<?xml version="1.0" encoding="iso-8859-1"?>
<!-- Uploaded to: SVG Repo, www.svgrepo.com, Generator: SVG Repo Mixer Tools -->
<svg height="800px" width="800px" version="1.1" id="Layer_1" xmlns="http://www.w3.org/2000/svg" xmlns:xlink="http://www.w3.org/1999/xlink" 
	 viewBox="0 0 512 512" xml:space="preserve">
<path style="fill:#C5EAD4;" d="M467.478,512H33.391c-6.147,0-11.13-4.983-11.13-11.13V66.783c0-24.588,19.933-44.522,44.522-44.522
	h367.304c24.588,0,44.522,19.933,44.522,44.522V500.87C478.609,507.017,473.626,512,467.478,512z"/>
<path style="fill:#EAFFFF;" d="M500.87,443.98V512H166.957H11.13C4.983,512,0,507.017,0,500.87v-22.261h166.957l244.483-95.667
	c7.611-2.979,15.712-4.507,23.885-4.507l0,0C471.524,378.435,500.87,407.78,500.87,443.98z"/>
<path style="fill:#727C7C;" d="M230.957,50.087c0,4.61-3.738,8.348-8.348,8.348c-10.74,0-19.478,8.738-19.478,19.478
	c0,4.61-3.738,8.348-8.348,8.348c-4.61,0-8.348-3.738-8.348-8.348c0-10.74-8.738-19.478-19.478-19.478
	c-4.61,0-8.348-3.738-8.348-8.348s3.738-8.348,8.348-8.348c11.176,0,21.186,5.096,27.826,13.084
	c6.64-7.988,16.65-13.084,27.826-13.084C227.219,41.739,230.957,45.477,230.957,50.087z"/>
<path style="fill:#EAFFFF;" d="M453.565,197.565H320c-4.61,0-8.348-3.738-8.348-8.348c0-4.61,3.738-8.348,8.348-8.348h133.565
	c4.61,0,8.348,3.738,8.348,8.348C461.913,193.828,458.175,197.565,453.565,197.565z M503.652,214.261H370.087
	c-4.61,0-8.348,3.738-8.348,8.348c0,4.61,3.738,8.348,8.348,8.348h133.565c4.61,0,8.348-3.738,8.348-8.348
	C512,217.998,508.262,214.261,503.652,214.261z M414.609,247.652h-77.913c-4.61,0-8.348,3.738-8.348,8.348s3.738,8.348,8.348,8.348
	h77.913c4.61,0,8.348-3.738,8.348-8.348S419.219,247.652,414.609,247.652z"/>
<path style="fill:#FF8950;" d="M155.826,200.348L155.826,200.348c0-6.359,4.735-11.723,11.045-12.511l77.999-9.75v44.522
	l-77.999-9.75C160.561,212.07,155.826,206.707,155.826,200.348z"/>
<path style="fill:#A9D5BB;" d="M512,44.522L512,44.522c0,12.295-9.966,22.261-22.261,22.261h-77.913
	c-12.295,0-22.261-9.966-22.261-22.261h-44.522c-12.295,0-22.261-9.966-22.261-22.261l0,0C322.783,9.966,332.749,0,345.043,0h77.913
	c12.295,0,22.261,9.966,22.261,22.261l0,0h44.522C502.034,22.261,512,32.227,512,44.522z"/>
<path style="fill:#505454;" d="M85.071,218.313c2.372,3.954,1.09,9.081-2.863,11.453l-55.652,33.391
	c-1.345,0.807-2.826,1.191-4.287,1.191c-2.836,0-5.601-1.445-7.166-4.054c-2.372-3.954-1.09-9.081,2.863-11.453l55.652-33.391
	C77.571,213.079,82.699,214.36,85.071,218.313z M73.618,159.799L17.966,193.19c-3.954,2.372-5.236,7.5-2.863,11.453
	c1.565,2.609,4.33,4.054,7.166,4.054c1.461,0,2.943-0.384,4.287-1.191l55.652-33.391c3.954-2.372,5.236-7.5,2.863-11.453
	C82.699,158.708,77.571,157.427,73.618,159.799z M73.618,271.661l-55.652,33.391c-3.954,2.372-5.236,7.5-2.863,11.453
	c1.565,2.609,4.33,4.054,7.166,4.054c1.461,0,2.943-0.384,4.287-1.191l55.652-33.391c3.954-2.372,5.236-7.5,2.863-11.453
	C82.699,270.571,77.571,269.289,73.618,271.661z M22.261,461.913c-4.61,0-8.348,3.738-8.348,8.348v33.391
	c0,4.61,3.738,8.348,8.348,8.348s8.348-3.738,8.348-8.348v-33.391C30.609,465.651,26.871,461.913,22.261,461.913z M311.652,461.913
	c-4.61,0-8.348,3.738-8.348,8.348v33.391c0,4.61,3.738,8.348,8.348,8.348s8.348-3.738,8.348-8.348v-33.391
	C320,465.651,316.262,461.913,311.652,461.913z M166.957,461.913c-4.61,0-8.348,3.738-8.348,8.348v33.391
	c0,4.61,3.738,8.348,8.348,8.348s8.348-3.738,8.348-8.348v-33.391C175.304,465.651,171.567,461.913,166.957,461.913z
	 M289.391,114.087c-4.61,0-8.348,3.738-8.348,8.348v211.478c0,4.61,3.738,8.348,8.348,8.348s8.348-3.738,8.348-8.348V122.435
	C297.739,117.825,294.002,114.087,289.391,114.087z"/>
<path style="fill:#727C7C;" d="M253.217,166.957v166.957c0,4.61-3.738,8.348-8.348,8.348s-8.348-3.738-8.348-8.348V166.957
	c0-4.61,3.738-8.348,8.348-8.348S253.217,162.346,253.217,166.957z M77.913,125.217c-4.61,0-8.348,3.738-8.348,8.348v195.896
	c0,4.61,3.738,8.348,8.348,8.348s8.348-3.738,8.348-8.348V133.565C86.261,128.955,82.523,125.217,77.913,125.217z M22.261,125.217
	c-4.61,0-8.348,3.738-8.348,8.348v195.896c0,4.61,3.738,8.348,8.348,8.348s8.348-3.738,8.348-8.348V133.565
	C30.609,128.955,26.871,125.217,22.261,125.217z M22.261,0c-4.61,0-8.348,3.738-8.348,8.348v89.043c0,4.61,3.738,8.348,8.348,8.348
	s8.348-3.738,8.348-8.348V8.348C30.609,3.738,26.871,0,22.261,0z"/>
<path style="fill:#FF8950;" d="M333.913,322.783v144.696c0,6.147-4.983,11.13-11.13,11.13H11.13c-6.147,0-11.13-4.983-11.13-11.13
	V322.783c0-6.147,4.983-11.13,11.13-11.13h311.652C328.93,311.652,333.913,316.635,333.913,322.783z"/>
<g>
	<path style="fill:#FF7039;" d="M100.174,100.174v22.261c0,6.147-4.983,11.13-11.13,11.13H11.13c-6.147,0-11.13-4.983-11.13-11.13
		v-22.261c0-6.147,4.983-11.13,11.13-11.13h77.913C95.191,89.043,100.174,94.027,100.174,100.174z"/>
	<path style="fill:#FF7039;" d="M333.913,378.435v89.043c0,6.147-4.983,11.13-11.13,11.13H11.13c-6.147,0-11.13-4.983-11.13-11.13
		v-89.043H333.913z"/>
</g>
<path style="fill:#A03D07;" d="M100.174,356.174v44.522c0,6.147-4.983,11.13-11.13,11.13H44.522c-6.147,0-11.13-4.983-11.13-11.13
	v-44.522c0-6.147,4.983-11.13,11.13-11.13h44.522C95.191,345.043,100.174,350.027,100.174,356.174z M189.217,345.043h-44.522
	c-6.147,0-11.13,4.983-11.13,11.13v44.522c0,6.147,4.983,11.13,11.13,11.13h44.522c6.147,0,11.13-4.983,11.13-11.13v-44.522
	C200.348,350.027,195.365,345.043,189.217,345.043z M289.391,345.043H244.87c-6.147,0-11.13,4.983-11.13,11.13v44.522
	c0,6.147,4.983,11.13,11.13,11.13h44.522c6.147,0,11.13-4.983,11.13-11.13v-44.522C300.522,350.027,295.539,345.043,289.391,345.043
	z"/>
<path style="fill:#A9D5BB;" d="M512,503.652c0,4.61-3.738,8.348-8.348,8.348H8.348C3.738,512,0,508.262,0,503.652
	s3.738-8.348,8.348-8.348h495.304C508.262,495.304,512,499.042,512,503.652z"/>
</svg>