<?xml version="1.0" encoding="iso-8859-1"?>
<!-- Uploaded to: SVG Repo, www.svgrepo.com, Generator: SVG Repo Mixer Tools -->
<svg height="800px" width="800px" version="1.1" id="Layer_1" xmlns="http://www.w3.org/2000/svg" xmlns:xlink="http://www.w3.org/1999/xlink" 
	 viewBox="0 0 512 512" xml:space="preserve">
<path style="fill:#EAFFFF;" d="M445.217,489.739H66.783c-24.588,0-44.522-19.934-44.522-44.522V66.783
	c0-24.588,19.933-44.522,44.522-44.522h378.435c24.588,0,44.522,19.933,44.522,44.522v378.435
	C489.739,469.806,469.806,489.739,445.217,489.739z"/>
<path style="fill:#C5EAD4;" d="M422.957,22.261L422.957,22.261c0,12.295-9.966,22.261-22.261,22.261H297.52
	c1.898,3.277,3.002,7.071,3.002,11.13l0,0c0,12.295-9.966,22.261-22.261,22.261h-89.043c-12.295,0-22.261-9.966-22.261-22.261l0,0
	c0-12.295,9.966-22.261,22.261-22.261h36.393c-1.898-3.277-3.002-7.071-3.002-11.13l0,0C222.609,9.966,232.575,0,244.87,0h155.826
	C412.99,0,422.957,9.966,422.957,22.261z"/>
<path style="fill:#A9D5BB;" d="M300.522,55.652L300.522,55.652c0,12.295-9.966,22.261-22.261,22.261h-89.043
	c-12.295,0-22.261-9.966-22.261-22.261l0,0c0-12.295,9.966-22.261,22.261-22.261h89.043
	C290.556,33.391,300.522,43.358,300.522,55.652z"/>
<path style="fill:#FFFF81;" d="M189.217,105.739c0,52.251-42.358,94.609-94.609,94.609S0,157.99,0,105.739
	S42.358,11.13,94.609,11.13S189.217,53.488,189.217,105.739z"/>
<path style="fill:#FFF145;" d="M144.696,105.739c0,27.662-22.424,50.087-50.087,50.087s-50.087-22.424-50.087-50.087
	s22.424-50.087,50.087-50.087S144.696,78.077,144.696,105.739z"/>
<path style="fill:#84837A;" d="M512,100.174c0,4.61-3.738,8.348-8.348,8.348c-10.74,0-19.478,8.739-19.478,19.478
	c0,4.61-3.738,8.348-8.348,8.348c-4.61,0-8.348-3.738-8.348-8.348c0-10.74-8.739-19.478-19.478-19.478
	c-4.61,0-8.348-3.738-8.348-8.348c0-4.61,3.738-8.348,8.348-8.348c11.176,0,21.186,5.096,27.826,13.084
	c6.64-7.988,16.65-13.084,27.826-13.084C508.262,91.826,512,95.564,512,100.174z"/>
<path style="fill:#A9D5BB;" d="M489.739,512H22.261C9.966,512,0,502.034,0,489.739V211.478c0-12.295,9.966-22.261,22.261-22.261
	h467.478c12.295,0,22.261,9.966,22.261,22.261v278.261C512,502.034,502.034,512,489.739,512z"/>
<path style="fill:#C5EAD4;" d="M512,400.696H0V289.391h512V400.696z"/>
<path style="fill:#EAFFFF;" d="M217.043,244.87c0,4.61-3.738,8.348-8.348,8.348H30.609c-4.61,0-8.348-3.738-8.348-8.348
	c0-4.61,3.738-8.348,8.348-8.348h178.087C213.306,236.522,217.043,240.259,217.043,244.87z M345.043,236.522H244.87
	c-4.61,0-8.348,3.738-8.348,8.348c0,4.61,3.738,8.348,8.348,8.348h100.174c4.61,0,8.348-3.738,8.348-8.348
	C353.391,240.259,349.654,236.522,345.043,236.522z M470.261,236.522h-44.522c-4.61,0-8.348,3.738-8.348,8.348
	c0,4.61,3.738,8.348,8.348,8.348h44.522c4.61,0,8.348-3.738,8.348-8.348C478.609,240.259,474.871,236.522,470.261,236.522z
	 M153.043,289.391c0-4.61-3.738-8.348-8.348-8.348H33.391c-4.61,0-8.348,3.738-8.348,8.348c0,4.61,3.738,8.348,8.348,8.348h111.304
	C149.306,297.739,153.043,294.002,153.043,289.391z M189.217,325.565h-89.043c-4.61,0-8.348,3.738-8.348,8.348
	c0,4.61,3.738,8.348,8.348,8.348h89.043c4.61,0,8.348-3.738,8.348-8.348C197.565,329.303,193.828,325.565,189.217,325.565z"/>
<path style="fill:#FFF175;" d="M500.87,512H11.13C4.983,512,0,507.017,0,500.87V389.565h512V500.87
	C512,507.017,507.017,512,500.87,512z"/>
<path style="fill:#D3842F;" d="M386.783,336.696v166.957c0,4.61-3.738,8.348-8.348,8.348c-4.61,0-8.348-3.738-8.348-8.348V336.696
	c0-4.61,3.738-8.348,8.348-8.348C383.045,328.348,386.783,332.085,386.783,336.696z M278.261,461.913
	c-4.61,0-8.348,3.738-8.348,8.348v33.391c0,4.61,3.738,8.348,8.348,8.348s8.348-3.738,8.348-8.348v-33.391
	C286.609,465.651,282.871,461.913,278.261,461.913z M322.783,461.913c-4.61,0-8.348,3.738-8.348,8.348v33.391
	c0,4.61,3.738,8.348,8.348,8.348s8.348-3.738,8.348-8.348v-33.391C331.13,465.651,327.393,461.913,322.783,461.913z
	 M434.087,461.913c-4.61,0-8.348,3.738-8.348,8.348v33.391c0,4.61,3.738,8.348,8.348,8.348s8.348-3.738,8.348-8.348v-33.391
	C442.435,465.651,438.697,461.913,434.087,461.913z M478.609,461.913c-4.61,0-8.348,3.738-8.348,8.348v33.391
	c0,4.61,3.738,8.348,8.348,8.348s8.348-3.738,8.348-8.348v-33.391C486.957,465.651,483.219,461.913,478.609,461.913z"/>
<path style="fill:#FFED8F;" d="M248.354,334.01l130.08-55.749l130.08,55.749c2.114,0.906,3.485,2.984,3.485,5.285l0,0
	c0,3.176-2.574,5.749-5.749,5.749H250.618c-3.176,0-5.749-2.574-5.749-5.749l0,0C244.87,336.994,246.24,334.916,248.354,334.01z"/>
<path style="fill:#FFFFB3;" d="M452.638,345.043h-202.02c-3.176,0-5.749-2.574-5.749-5.75c0-2.3,1.37-4.379,3.485-5.285
	l89.269-38.259L452.638,345.043z M333.913,378.435H267.13c-6.147,0-11.13,4.983-11.13,11.13v77.913c0,6.147,4.983,11.13,11.13,11.13
	h66.783c6.147,0,11.13-4.983,11.13-11.13v-77.913C345.043,383.418,340.06,378.435,333.913,378.435z M489.739,378.435h-66.783
	c-6.147,0-11.13,4.983-11.13,11.13v77.913c0,6.147,4.983,11.13,11.13,11.13h66.783c6.147,0,11.13-4.983,11.13-11.13v-77.913
	C500.87,383.418,495.886,378.435,489.739,378.435z"/>
<path style="fill:#D8FFA1;" d="M283.826,378.435h33.391v100.174h-33.391V378.435z M439.652,378.435v100.174h33.391V378.435H439.652z
	"/>
<path style="fill:#DDB961;" d="M16.696,436.87c0-4.61,3.738-8.348,8.348-8.348h11.13c4.61,0,8.348,3.738,8.348,8.348
	s-3.738,8.348-8.348,8.348h-11.13C20.433,445.217,16.696,441.48,16.696,436.87z M114.087,478.609h11.13
	c4.61,0,8.348-3.738,8.348-8.348s-3.738-8.348-8.348-8.348h-11.13c-4.61,0-8.348,3.738-8.348,8.348S109.477,478.609,114.087,478.609
	z M125.217,422.957h11.13c4.61,0,8.348-3.738,8.348-8.348c0-4.61-3.738-8.348-8.348-8.348h-11.13c-4.61,0-8.348,3.738-8.348,8.348
	C116.87,419.219,120.607,422.957,125.217,422.957z M203.13,456.348h11.13c4.61,0,8.348-3.738,8.348-8.348s-3.738-8.348-8.348-8.348
	h-11.13c-4.61,0-8.348,3.738-8.348,8.348S198.52,456.348,203.13,456.348z M503.652,495.304H8.348c-4.61,0-8.348,3.738-8.348,8.348
	S3.738,512,8.348,512h495.304c4.61,0,8.348-3.738,8.348-8.348S508.262,495.304,503.652,495.304z"/>
</svg>