<?xml version="1.0" encoding="iso-8859-1"?>
<!-- Uploaded to: SVG Repo, www.svgrepo.com, Generator: SVG Repo Mixer Tools -->
<svg height="800px" width="800px" version="1.1" id="Layer_1" xmlns="http://www.w3.org/2000/svg" xmlns:xlink="http://www.w3.org/1999/xlink" 
	 viewBox="0 0 512 512" xml:space="preserve">
<path style="fill:#EAFFFF;" d="M445.217,489.739H66.783c-24.588,0-44.522-19.934-44.522-44.522V66.783
	c0-24.588,19.933-44.522,44.522-44.522h378.435c24.588,0,44.522,19.933,44.522,44.522v378.435
	C489.739,469.806,469.806,489.739,445.217,489.739z"/>
<path style="fill:#84837A;" d="M512,8.348c0,4.61-3.738,8.348-8.348,8.348c-10.74,0-19.478,8.739-19.478,19.478
	c0,4.61-3.738,8.348-8.348,8.348c-4.61,0-8.348-3.738-8.348-8.348c0-10.74-8.739-19.478-19.478-19.478
	c-4.61,0-8.348-3.738-8.348-8.348S443.39,0,448,0c11.176,0,21.186,5.096,27.826,13.084C482.466,5.096,492.476,0,503.652,0
	C508.262,0,512,3.738,512,8.348z"/>
<path style="fill:#FFFF81;" d="M378.435,94.609c0,52.251-42.358,94.609-94.609,94.609s-94.609-42.358-94.609-94.609
	S231.575,0,283.826,0S378.435,42.358,378.435,94.609z"/>
<path style="fill:#FFF145;" d="M333.913,94.609c0,27.662-22.424,50.087-50.087,50.087c-27.662,0-50.087-22.424-50.087-50.087
	s22.424-50.087,50.087-50.087C311.489,44.522,333.913,66.946,333.913,94.609z"/>
<path style="fill:#FFED8F;" d="M467.478,512H44.522C19.933,512,0,492.066,0,467.478V278.261h512v189.217
	C512,492.066,492.066,512,467.478,512z"/>
<path style="fill:#DDB961;" d="M489.739,358.957c0,4.61-3.738,8.348-8.348,8.348H459.13c-4.61,0-8.348-3.738-8.348-8.348
	s3.738-8.348,8.348-8.348h22.261C486.001,350.609,489.739,354.346,489.739,358.957z M64,367.304c0-4.61-3.738-8.348-8.348-8.348
	H33.391c-4.61,0-8.348,3.738-8.348,8.348c0,4.61,3.738,8.348,8.348,8.348h22.261C60.262,375.652,64,371.915,64,367.304z
	 M100.174,403.478H44.522c-4.61,0-8.348,3.738-8.348,8.348c0,4.61,3.738,8.348,8.348,8.348h55.652c4.61,0,8.348-3.738,8.348-8.348
	C108.522,407.216,104.784,403.478,100.174,403.478z M278.261,470.261h-77.913c-4.61,0-8.348,3.738-8.348,8.348
	s3.738,8.348,8.348,8.348h77.913c4.61,0,8.348-3.738,8.348-8.348S282.871,470.261,278.261,470.261z M300.522,425.739h-66.783
	c-4.61,0-8.348,3.738-8.348,8.348s3.738,8.348,8.348,8.348h66.783c4.61,0,8.348-3.738,8.348-8.348S305.132,425.739,300.522,425.739z
	"/>
<path style="fill:#CEA455;" d="M512,495.304c0,9.22-7.475,16.696-16.696,16.696h-55.652c-9.22,0-16.696-7.475-16.696-16.696
	s7.475-16.696,16.696-16.696h55.652C504.525,478.609,512,486.084,512,495.304z M38.957,478.609H16.696
	C7.475,478.609,0,486.084,0,495.304S7.475,512,16.696,512h22.261c9.22,0,16.696-7.475,16.696-16.696S48.177,478.609,38.957,478.609z
	 M150.261,434.087h-11.13c-9.22,0-16.696,7.475-16.696,16.696c0,9.22,7.475,16.696,16.696,16.696h11.13
	c9.22,0,16.696-7.475,16.696-16.696C166.957,441.562,159.481,434.087,150.261,434.087z"/>
<path style="fill:#9FBA41;" d="M244.87,122.435L244.87,122.435v22.261H11.13v-22.261l0,0c0-24.588,19.933-44.522,44.522-44.522
	h144.696C224.936,77.913,244.87,97.847,244.87,122.435z"/>
<path style="fill:#C5EAD4;" d="M512,311.652h-37.397c-23.982,0-45.057,15.898-51.646,38.957l0,0
	c-6.588,23.059-27.665,38.957-51.646,38.957h-97.056c-23.982,0-45.057-15.898-51.645-38.957l0,0
	c-6.588-23.059-27.665-38.957-51.645-38.957H0V144.696h512V311.652z"/>
<path style="fill:#91C1A4;" d="M512,133.565v178.087H303.15c-15.253,0-29.197,8.618-36.019,22.261l0,0
	c-6.822,13.643-20.766,22.261-36.019,22.261H102.802c-15.253,0-29.197-8.618-36.019-22.261l0,0
	c-6.822-13.643-20.766-22.261-36.019-22.261H0v-89.043v-89.043c0-6.147,4.983-11.13,11.13-11.13H500.87
	C507.017,122.435,512,127.418,512,133.565z"/>
<path style="fill:#EAFFFF;" d="M189.217,186.435H33.391c-4.61,0-8.348-3.738-8.348-8.348c0-4.61,3.738-8.348,8.348-8.348h155.826
	c4.61,0,8.348,3.738,8.348,8.348C197.565,182.697,193.828,186.435,189.217,186.435z M278.261,169.739h-44.522
	c-4.61,0-8.348,3.738-8.348,8.348c0,4.61,3.738,8.348,8.348,8.348h44.522c4.61,0,8.348-3.738,8.348-8.348
	C286.609,173.477,282.871,169.739,278.261,169.739z M389.565,175.304h66.783c4.61,0,8.348-3.738,8.348-8.348
	s-3.738-8.348-8.348-8.348h-66.783c-4.61,0-8.348,3.738-8.348,8.348S384.955,175.304,389.565,175.304z M478.609,214.261H311.652
	c-4.61,0-8.348,3.738-8.348,8.348c0,4.61,3.738,8.348,8.348,8.348h166.957c4.61,0,8.348-3.738,8.348-8.348
	C486.957,217.998,483.219,214.261,478.609,214.261z M256,214.261H100.174c-4.61,0-8.348,3.738-8.348,8.348
	c0,4.61,3.738,8.348,8.348,8.348H256c4.61,0,8.348-3.738,8.348-8.348C264.348,217.998,260.61,214.261,256,214.261z M217.043,262.122
	H77.913c-4.61,0-8.348,3.738-8.348,8.348s3.738,8.348,8.348,8.348h139.13c4.61,0,8.348-3.738,8.348-8.348
	S221.654,262.122,217.043,262.122z M384,262.122h-77.913c-4.61,0-8.348,3.738-8.348,8.348s3.738,8.348,8.348,8.348H384
	c4.61,0,8.348-3.738,8.348-8.348S388.61,262.122,384,262.122z"/>
<path style="fill:#FF8950;" d="M379.973,358.882l11.718,20.372c0.825,1.434,2.419,2.428,4.263,2.657l26.202,3.267
	c4.644,0.579,6.498,5.475,3.138,8.285l-18.961,15.858c-1.335,1.116-1.943,2.724-1.628,4.3l4.476,22.391
	c0.794,3.968-4.061,6.994-8.214,5.121l-23.436-10.572c-1.65-0.743-3.62-0.743-5.269,0l-23.436,10.572
	c-4.154,1.873-9.008-1.152-8.214-5.121l4.476-22.391c0.315-1.576-0.294-3.183-1.628-4.3l-18.961-15.858
	c-3.36-2.81-1.506-7.707,3.138-8.285l26.202-3.267c1.844-0.23,3.438-1.223,4.263-2.657l11.718-20.372
	C371.896,355.271,377.896,355.271,379.973,358.882z"/>
</svg>