<?xml version="1.0" encoding="utf-8"?>
<!-- Uploaded to: SVG Repo, www.svgrepo.com, Generator: SVG Repo Mixer Tools -->
<svg width="800px" height="800px" viewBox="0 0 1024 1024" class="icon"  version="1.1" xmlns="http://www.w3.org/2000/svg"><path d="M184 80h344s-4.16 43.04-9.92 104H194.96q-4.8-51.12-10.96-104zM217.12 664.4c145.52 7.44 200 109.44 206.32 192A248 248 0 0 0 336 840H213.76c1.76-45.76 3.28-105.28 3.36-175.6z" fill="#2E88A0" /><path d="M821.84 896H608c-91.92 0-138.16-22.8-184.56-39.36-6-82.8-60.8-184.8-206.32-192 0-129.52-4.8-296-22.16-480h323.12C508 291.36 493.12 454.4 488 536c-8 128-8 208 144 208 76 0 120 18 144.96 44.96S808 852 808 888a16 16 0 0 1 13.84 8z" fill="#3DBADA" /><path d="M824 904v24a16 16 0 0 1-16 16H568c-80 0-168-40-168-40v40h-16l-20-20L344 944l-20-20L304 944l-20-20L264 944l-20-20L224 944h-16s3.12-37.6 5.76-104H336a248 248 0 0 1 87.44 16.64C469.84 873.2 516.08 896 608 896h213.84a16 16 0 0 1 2.16 8z" fill="#65676C" /></svg>