<?xml version="1.0" encoding="utf-8"?>
<!-- Uploaded to: SVG Repo, www.svgrepo.com, Generator: SVG Repo Mixer Tools -->
<svg width="800px" height="800px" viewBox="0 0 1024 1024" class="icon"  version="1.1" xmlns="http://www.w3.org/2000/svg"><path d="M760 608c8-120 45.44-150 33.92-232-39.2-56-93.76-72-62.4-272 0 0-62.72-24-101.92-24 0 0-39.2 48-117.6 48s-117.6-48-117.6-48c-39.2 0-101.92 24-101.92 24 31.36 200-23.2 216-62.4 272C218.56 458 256 488 264 608c6.08 91.76-32 209.12-48 336h592c-16-126.88-54.08-244.24-48-336z" fill="#3DBADA" /><path d="M352 110.08C352 218.24 424 304 512 304s160-85.76 160-193.92a236.16 236.16 0 0 0-1.36-24.48 195.04 195.04 0 0 0-41.04-5.6s-39.2 48-117.6 48-117.6-48-117.6-48a195.04 195.04 0 0 0-40.96 5.6 236.16 236.16 0 0 0-1.44 24.48z" fill="#2E88A0" /></svg>