<?xml version="1.0" encoding="iso-8859-1"?>
<!-- Uploaded to: SVG Repo, www.svgrepo.com, Generator: SVG Repo Mixer Tools -->
<svg height="800px" width="800px" version="1.1" id="Layer_1" xmlns="http://www.w3.org/2000/svg" xmlns:xlink="http://www.w3.org/1999/xlink" 
	 viewBox="0 0 512 512" xml:space="preserve">
<path style="fill:#EAFFFF;" d="M445.217,489.739H66.783c-24.588,0-44.522-19.934-44.522-44.522V66.783
	c0-24.588,19.933-44.522,44.522-44.522h378.435c24.588,0,44.522,19.933,44.522,44.522v378.435
	C489.739,469.806,469.806,489.739,445.217,489.739z"/>
<path style="fill:#A9D5BB;" d="M512,489.739c0,12.295-9.966,22.261-22.261,22.261H22.261C9.966,512,0,502.034,0,489.739V367.304h512
	V489.739z"/>
<path style="fill:#FFFF81;" d="M165.557,389.565c-2.704-8.799-4.166-18.141-4.166-27.826c0-52.251,42.358-94.609,94.609-94.609
	s94.609,42.358,94.609,94.609c0,9.685-1.463,19.027-4.166,27.826H165.557z"/>
<path style="fill:#FFF145;" d="M214.353,389.565c-5.328-7.959-8.44-17.528-8.44-27.826c0-27.662,22.424-50.087,50.087-50.087
	s50.087,22.424,50.087,50.087c0,10.298-3.111,19.867-8.44,27.826H214.353z"/>
<path style="fill:#8E9A9B;" d="M229.857,204.554c2.287,4.004,0.897,9.102-3.107,11.39c-1.307,0.747-2.73,1.102-4.134,1.102
	c-2.898,0-5.714-1.512-7.256-4.207L128.72,61.217h-23.701l-86.64,151.62c-2.287,4.004-7.386,5.394-11.39,3.107
	c-4.003-2.287-5.394-7.386-3.107-11.39L92.926,48.728c1.487-2.601,4.253-4.206,7.248-4.206h33.391c2.995,0,5.761,1.605,7.248,4.206
	L229.857,204.554z M508.118,204.554L419.074,48.728c-1.487-2.601-4.253-4.206-7.248-4.206h-33.391c-2.995,0-5.761,1.605-7.248,4.206
	l-89.043,155.826c-2.287,4.004-0.897,9.102,3.106,11.39c4.004,2.288,9.102,0.897,11.39-3.107l86.64-151.62h23.702l86.64,151.62
	c1.54,2.696,4.358,4.207,7.256,4.207c1.405,0,2.828-0.355,4.134-1.102C509.014,213.656,510.405,208.557,508.118,204.554z"/>
<path style="fill:#A03D07;" d="M133.565,16.696v350.609h-33.391V16.696C100.174,7.475,107.649,0,116.87,0
	S133.565,7.475,133.565,16.696z M395.13,0c-9.22,0-16.696,7.475-16.696,16.696v350.609h33.391V16.696
	C411.826,7.475,404.351,0,395.13,0z"/>
<path style="fill:#FF7039;" d="M512,211.478v11.13c0,6.147-4.983,11.13-11.13,11.13H11.13c-6.147,0-11.13-4.983-11.13-11.13v-11.13
	c0-6.147,4.983-11.13,11.13-11.13H500.87C507.017,200.348,512,205.331,512,211.478z"/>
<path style="fill:#727C7C;" d="M178.087,378.435c0,6.147-4.983,11.13-11.13,11.13H11.13c-6.147,0-11.13-4.983-11.13-11.13v-22.261
	c0-6.147,4.983-11.13,11.13-11.13h133.565C163.138,345.043,178.087,359.993,178.087,378.435z M500.87,345.043H367.304
	c-18.442,0-33.391,14.949-33.391,33.391c0,6.147,4.983,11.13,11.13,11.13H500.87c6.147,0,11.13-4.983,11.13-11.13v-22.261
	C512,350.027,507.017,345.043,500.87,345.043z"/>
<path style="fill:#EAFFFF;" d="M80.696,388.638c0-4.61,3.738-8.348,8.348-8.348h333.913c4.61,0,8.348,3.738,8.348,8.348
	s-3.738,8.348-8.348,8.348H89.043C84.433,396.986,80.696,393.248,80.696,388.638z M356.174,421.101H155.826
	c-4.61,0-8.348,3.738-8.348,8.348c0,4.61,3.738,8.348,8.348,8.348h200.348c4.61,0,8.348-3.738,8.348-8.348
	C364.522,424.839,360.784,421.101,356.174,421.101z M111.304,421.101H44.522c-4.61,0-8.348,3.738-8.348,8.348
	c0,4.61,3.738,8.348,8.348,8.348h66.783c4.61,0,8.348-3.738,8.348-8.348C119.652,424.839,115.915,421.101,111.304,421.101z
	 M467.478,421.101h-66.783c-4.61,0-8.348,3.738-8.348,8.348c0,4.61,3.738,8.348,8.348,8.348h66.783c4.61,0,8.348-3.738,8.348-8.348
	C475.826,424.839,472.088,421.101,467.478,421.101z M311.652,461.913H200.348c-4.61,0-8.348,3.738-8.348,8.348
	c0,4.61,3.738,8.348,8.348,8.348h111.304c4.61,0,8.348-3.738,8.348-8.348C320,465.651,316.262,461.913,311.652,461.913z"/>
</svg>