<?xml version="1.0" encoding="iso-8859-1"?>
<!-- Uploaded to: SVG Repo, www.svgrepo.com, Generator: SVG Repo Mixer Tools -->
<svg height="800px" width="800px" version="1.1" id="Layer_1" xmlns="http://www.w3.org/2000/svg" xmlns:xlink="http://www.w3.org/1999/xlink" 
	 viewBox="0 0 512 512" xml:space="preserve">
<g>
	<g>
		<path style="fill:#4FBA6F;" d="M109.115,189.553c-4.642,0-8.393-3.76-8.393-8.393V32.151c0-4.633,3.752-8.393,8.393-8.393
			s8.393,3.76,8.393,8.393V181.16C117.508,185.793,113.756,189.553,109.115,189.553L109.115,189.553z"/>
		<path style="fill:#4FBA6F;" d="M75.541,72.045c-4.642,0-8.393-3.76-8.393-8.393s3.752-8.393,8.393-8.393
			c13.883,0,25.18-11.298,25.18-25.18c0-4.633,3.752-8.393,8.393-8.393s8.393,3.76,8.393,8.393
			C117.508,53.219,98.682,72.045,75.541,72.045"/>
		<path style="fill:#4FBA6F;" d="M58.754,122.406c-4.642,0-8.393-3.76-8.393-8.393s3.752-8.393,8.393-8.393
			c23.141,0,41.967-18.826,41.967-41.967c0-4.633,3.752-8.393,8.393-8.393s8.393,3.76,8.393,8.393
			C117.508,96.05,91.144,122.406,58.754,122.406"/>
		<path style="fill:#4FBA6F;" d="M41.967,172.766c-4.642,0-8.393-3.76-8.393-8.393s3.752-8.393,8.393-8.393
			c32.39,0,58.754-26.355,58.754-58.754c0-4.633,3.752-8.393,8.393-8.393s8.393,3.76,8.393,8.393
			C117.508,138.874,83.624,172.766,41.967,172.766"/>
		<path style="fill:#4FBA6F;" d="M142.689,72.045c-23.141,0-41.967-18.826-41.967-41.967c0-4.633,3.752-8.393,8.393-8.393
			s8.393,3.76,8.393,8.393c0,13.883,11.298,25.18,25.18,25.18c4.642,0,8.393,3.76,8.393,8.393S147.33,72.045,142.689,72.045"/>
		<path style="fill:#4FBA6F;" d="M159.475,122.406c-32.39,0-58.754-26.355-58.754-58.754c0-4.633,3.752-8.393,8.393-8.393
			s8.393,3.76,8.393,8.393c0,23.141,18.826,41.967,41.967,41.967c4.642,0,8.393,3.76,8.393,8.393S164.117,122.406,159.475,122.406"
			/>
		<path style="fill:#4FBA6F;" d="M176.262,172.766c-41.657,0-75.541-33.893-75.541-75.541c0-4.633,3.752-8.393,8.393-8.393
			s8.393,3.76,8.393,8.393c0,32.399,26.364,58.754,58.754,58.754c4.642,0,8.393,3.76,8.393,8.393S180.904,172.766,176.262,172.766"
			/>
		<path style="fill:#4FBA6F;" d="M109.115,295.16c-4.642,0-8.393-3.76-8.393-8.393v-129.41c0-4.642,3.752-8.393,8.393-8.393
			s8.393,3.752,8.393,8.393v129.41C117.508,291.399,113.756,295.16,109.115,295.16"/>
		<path style="fill:#4FBA6F;" d="M193.049,222.426c-50.906,0-92.328-41.422-92.328-92.328c0-4.633,3.752-8.393,8.393-8.393
			s8.393,3.76,8.393,8.393c0,41.648,33.884,75.541,75.541,75.541c4.642,0,8.393,3.76,8.393,8.393S197.691,222.426,193.049,222.426"
			/>
		<path style="fill:#4FBA6F;" d="M25.18,222.426c-4.642,0-8.393-3.76-8.393-8.393s3.752-8.393,8.393-8.393
			c41.657,0,75.541-33.893,75.541-75.541c0-4.633,3.752-8.393,8.393-8.393s8.393,3.76,8.393,8.393
			C117.508,181.005,76.087,222.426,25.18,222.426"/>
		<path style="fill:#4FBA6F;" d="M147.09,259.287c-1.695,0-3.408-0.512-4.893-1.578c-27.514-19.783-41.472-48.598-41.472-85.647
			c0-4.633,3.752-8.393,8.393-8.393c4.633,0,8.393,3.76,8.393,8.393c0,31.341,11.6,55.573,34.489,72.016
			c3.76,2.703,4.625,7.949,1.914,11.709C152.269,258.07,149.709,259.287,147.09,259.287"/>
		<path style="fill:#4FBA6F;" d="M8.393,281.18c-4.642,0-8.393-3.76-8.393-8.393s3.752-8.393,8.393-8.393
			c50.906,0,92.328-41.422,92.328-92.328c0-4.633,3.752-8.393,8.393-8.393s8.393,3.76,8.393,8.393
			C117.508,232.23,68.558,281.18,8.393,281.18"/>
	</g>
	<g>
		<path style="fill:#358E4C;" d="M402.885,332.242c-4.642,0-8.393-3.76-8.393-8.393V174.84c0-4.633,3.752-8.393,8.393-8.393
			s8.393,3.76,8.393,8.393v149.009C411.279,328.482,407.527,332.242,402.885,332.242"/>
		<path style="fill:#358E4C;" d="M369.311,214.734c-4.642,0-8.393-3.76-8.393-8.393s3.752-8.393,8.393-8.393
			c13.883,0,25.18-11.298,25.18-25.18c0-4.633,3.752-8.393,8.393-8.393s8.393,3.76,8.393,8.393
			C411.279,195.907,392.452,214.734,369.311,214.734"/>
		<path style="fill:#358E4C;" d="M352.525,265.094c-4.642,0-8.393-3.76-8.393-8.393s3.752-8.393,8.393-8.393
			c23.141,0,41.967-18.826,41.967-41.967c0-4.633,3.752-8.393,8.393-8.393s8.393,3.76,8.393,8.393
			C411.279,238.739,384.915,265.094,352.525,265.094"/>
		<path style="fill:#358E4C;" d="M335.738,315.455c-4.642,0-8.393-3.76-8.393-8.393s3.752-8.393,8.393-8.393
			c32.39,0,58.754-26.355,58.754-58.754c0-4.633,3.752-8.393,8.393-8.393s8.393,3.76,8.393,8.393
			C411.279,281.562,377.394,315.455,335.738,315.455"/>
		<path style="fill:#358E4C;" d="M436.459,214.734c-23.141,0-41.967-18.826-41.967-41.967c0-4.633,3.752-8.393,8.393-8.393
			s8.393,3.76,8.393,8.393c0,13.883,11.298,25.18,25.18,25.18c4.642,0,8.393,3.76,8.393,8.393S441.101,214.734,436.459,214.734"/>
		<path style="fill:#358E4C;" d="M453.246,265.094c-32.39,0-58.754-26.355-58.754-58.754c0-4.633,3.752-8.393,8.393-8.393
			s8.393,3.76,8.393,8.393c0,23.141,18.827,41.967,41.967,41.967c4.642,0,8.393,3.76,8.393,8.393S457.887,265.094,453.246,265.094"
			/>
		<path style="fill:#358E4C;" d="M470.033,315.455c-41.657,0-75.541-33.893-75.541-75.541c0-4.633,3.752-8.393,8.393-8.393
			s8.393,3.76,8.393,8.393c0,32.399,26.364,58.754,58.754,58.754c4.642,0,8.393,3.76,8.393,8.393S474.674,315.455,470.033,315.455"
			/>
		<path style="fill:#358E4C;" d="M402.885,507.803c-4.642,0-8.393-3.76-8.393-8.393V297.967c0-4.633,3.752-8.393,8.393-8.393
			s8.393,3.76,8.393,8.393V499.41C411.279,504.043,407.527,507.803,402.885,507.803"/>
		<path style="fill:#358E4C;" d="M486.82,365.115c-50.906,0-92.328-41.422-92.328-92.328c0-4.633,3.752-8.393,8.393-8.393
			s8.393,3.76,8.393,8.393c0,41.648,33.884,75.541,75.541,75.541c4.642,0,8.393,3.76,8.393,8.393
			C495.213,361.354,491.461,365.115,486.82,365.115"/>
		<path style="fill:#358E4C;" d="M318.951,365.115c-4.642,0-8.393-3.76-8.393-8.393c0-4.633,3.752-8.393,8.393-8.393
			c41.657,0,75.541-33.893,75.541-75.541c0-4.633,3.752-8.393,8.393-8.393s8.393,3.76,8.393,8.393
			C411.279,323.693,369.857,365.115,318.951,365.115"/>
		<path style="fill:#358E4C;" d="M302.164,423.869c-4.642,0-8.393-3.76-8.393-8.393c0-4.633,3.752-8.393,8.393-8.393
			c50.906,0,92.328-41.422,92.328-92.328c0-4.633,3.752-8.393,8.393-8.393s8.393,3.76,8.393,8.393
			C411.279,374.918,362.328,423.869,302.164,423.869"/>
		<path style="fill:#358E4C;" d="M503.607,423.869c-60.164,0-109.115-48.951-109.115-109.115c0-4.633,3.752-8.393,8.393-8.393
			s8.393,3.76,8.393,8.393c0,50.906,41.422,92.328,92.328,92.328c4.642,0,8.393,3.76,8.393,8.393
			C512,420.109,508.248,423.869,503.607,423.869"/>
	</g>
	<path style="fill:#805333;" d="M54.424,378.455l105.044-88.878l105.044,88.878c2.627,2.224,5.959,3.45,9.401,3.45h22.822
		c4.969,0,7.386-6.077,3.777-9.485L159.468,239.216L18.542,372.311c-3.66,3.45-1.217,9.594,3.811,9.594h22.662
		C48.465,381.905,51.797,380.68,54.424,378.455"/>
	<polygon style="fill:#603B22;" points="228.902,348.328 90.032,348.328 75.528,360.599 75.528,499.41 243.397,499.41 
		243.397,360.599 	"/>
	<g>
		<polygon style="fill:#4C2D18;" points="134.287,499.41 184.647,499.41 184.647,423.869 134.287,423.869 		"/>
		<polygon style="fill:#4C2D18;" points="228.902,348.328 159.463,289.574 90.032,348.328 		"/>
	</g>
	<g>
		<path style="fill:#285680;" d="M251.803,188.852c-4.642,0-8.393-3.76-8.393-8.393c0-32.474,17.886-50.361,50.361-50.361
			c4.642,0,8.393,3.76,8.393,8.393s-3.752,8.393-8.393,8.393c-23.225,0-33.574,10.349-33.574,33.574
			C260.197,185.092,256.445,188.852,251.803,188.852"/>
		<path style="fill:#285680;" d="M251.803,188.852c-4.642,0-8.393-3.76-8.393-8.393c0-18.591-6.589-25.18-25.18-25.18
			c-4.642,0-8.393-3.76-8.393-8.393s3.752-8.393,8.393-8.393c27.841,0,41.967,14.118,41.967,41.967
			C260.197,185.092,256.445,188.852,251.803,188.852"/>
	</g>
	<g>
		<path style="fill:#805333;" d="M503.607,457.443H302.164c-4.642,0-8.393-3.76-8.393-8.393c0-4.633,3.752-8.393,8.393-8.393
			h201.443c4.642,0,8.393,3.76,8.393,8.393C512,453.682,508.248,457.443,503.607,457.443"/>
		<path style="fill:#805333;" d="M503.607,491.016H302.164c-4.642,0-8.393-3.76-8.393-8.393s3.752-8.393,8.393-8.393h201.443
			c4.642,0,8.393,3.76,8.393,8.393S508.248,491.016,503.607,491.016"/>
		<path style="fill:#805333;" d="M352.525,507.803c-4.642,0-8.393-3.76-8.393-8.393v-58.754c0-4.633,3.752-8.393,8.393-8.393
			c4.642,0,8.393,3.76,8.393,8.393v58.754C360.918,504.043,357.166,507.803,352.525,507.803"/>
		<path style="fill:#805333;" d="M453.246,507.803c-4.642,0-8.393-3.76-8.393-8.393v-58.754c0-4.633,3.752-8.393,8.393-8.393
			c4.642,0,8.393,3.76,8.393,8.393v58.754C461.639,504.043,457.887,507.803,453.246,507.803"/>
	</g>
	<path style="fill:#F0C419;" d="M461.639,96.525c0,23.174-18.793,41.967-41.967,41.967c-23.174,0-41.967-18.793-41.967-41.967
		s18.793-41.967,41.967-41.967C442.846,54.557,461.639,73.35,461.639,96.525"/>
	<g>
		<path style="fill:#E57E25;" d="M419.672,37.77c-4.642,0-8.393-3.76-8.393-8.393V12.59c0-4.633,3.752-8.393,8.393-8.393
			c4.642,0,8.393,3.76,8.393,8.393v16.787C428.066,34.01,424.314,37.77,419.672,37.77"/>
		<path style="fill:#E57E25;" d="M503.607,104.918H486.82c-4.642,0-8.393-3.76-8.393-8.393c0-4.633,3.752-8.393,8.393-8.393h16.787
			c4.642,0,8.393,3.76,8.393,8.393C512,101.158,508.248,104.918,503.607,104.918"/>
		<path style="fill:#E57E25;" d="M352.525,104.918h-16.787c-4.642,0-8.393-3.76-8.393-8.393c0-4.633,3.752-8.393,8.393-8.393h16.787
			c4.642,0,8.393,3.76,8.393,8.393C360.918,101.158,357.166,104.918,352.525,104.918"/>
		<path style="fill:#E57E25;" d="M467.155,57.439c-2.149,0-4.297-0.823-5.934-2.459c-3.282-3.273-3.282-8.586,0-11.868
			l11.868-11.877c3.282-3.273,8.586-3.273,11.868,0c3.282,3.282,3.282,8.595,0,11.868L473.09,54.98
			C471.453,56.616,469.304,57.439,467.155,57.439"/>
		<path style="fill:#E57E25;" d="M360.32,164.271c-2.149,0-4.297-0.823-5.934-2.459c-3.282-3.273-3.282-8.586,0-11.868
			l11.868-11.877c3.282-3.273,8.586-3.273,11.868,0c3.282,3.282,3.282,8.595,0,11.868l-11.868,11.877
			C364.617,163.448,362.468,164.271,360.32,164.271"/>
		<path style="fill:#E57E25;" d="M479.025,164.271c-2.149,0-4.297-0.823-5.934-2.459l-11.868-11.877
			c-3.282-3.273-3.282-8.587,0-11.868c3.282-3.273,8.587-3.273,11.868,0l11.868,11.877c3.282,3.282,3.282,8.595,0,11.868
			C483.322,163.448,481.173,164.271,479.025,164.271"/>
		<path style="fill:#E57E25;" d="M372.189,57.439c-2.149,0-4.297-0.823-5.934-2.459l-11.868-11.877
			c-3.282-3.273-3.282-8.586,0-11.868c3.282-3.273,8.586-3.273,11.868,0l11.868,11.877c3.282,3.282,3.282,8.595,0,11.868
			C376.486,56.616,374.337,57.439,372.189,57.439"/>
	</g>
</g>
</svg>