<?xml version="1.0" encoding="iso-8859-1"?>
<!-- Uploaded to: SVG Repo, www.svgrepo.com, Generator: SVG Repo Mixer Tools -->
<svg height="800px" width="800px" version="1.1" id="Layer_1" xmlns="http://www.w3.org/2000/svg" xmlns:xlink="http://www.w3.org/1999/xlink" 
	 viewBox="0 0 512 512" xml:space="preserve">
<g>
	<path style="fill:#805333;" d="M81.067,295.821c-4.719,0-8.533-3.823-8.533-8.533V170.662c0-4.71,3.814-8.533,8.533-8.533
		c4.719,0,8.533,3.823,8.533,8.533v116.625C89.6,291.998,85.786,295.821,81.067,295.821"/>
	<polygon style="fill:#358E4C;" points="81.067,42.667 140.8,170.667 21.333,170.667 	"/>
	<polygon style="fill:#4C8056;" points="192,401.067 29.867,401.067 81.067,264.533 251.733,264.533 	"/>
	<polygon style="fill:#396340;" points="251.733,264.533 311.467,401.067 192,401.067 	"/>
	<g>
		<path style="fill:#F0C419;" d="M379.733,320.006c0,21.769,14.583,41.728,35.925,46.037c2.884,0.58,5.811,0.887,8.713,0.887
			c22.477,0,40.695-16.427,40.695-38.946c0-22.511-6.536-31.94-6.536-31.94c0,18.5-20.599,35.84-20.599,35.84
			c0-14.609-7.398-28.749-7.398-28.749c0,11.443-17.263,11.221-17.263,11.221c-7.706-8.277,0-31.155,0-31.155
			c-18.773,1.954-33.536,15.497-33.536,32.529V320.006z"/>
		<path style="fill:#F0C419;" d="M439.467,110.933c0,32.99-26.743,59.733-59.733,59.733S320,143.923,320,110.933
			S346.743,51.2,379.733,51.2S439.467,77.943,439.467,110.933"/>
	</g>
	<g>
		<path style="fill:#E57E25;" d="M379.733,34.133c-4.719,0-8.533-3.823-8.533-8.533V8.533c0-4.71,3.814-8.533,8.533-8.533
			c4.719,0,8.533,3.823,8.533,8.533V25.6C388.267,30.31,384.452,34.133,379.733,34.133"/>
		<path style="fill:#E57E25;" d="M379.733,221.867c-4.719,0-8.533-3.823-8.533-8.533v-17.067c0-4.71,3.814-8.533,8.533-8.533
			c4.719,0,8.533,3.823,8.533,8.533v17.067C388.267,218.044,384.452,221.867,379.733,221.867"/>
		<path style="fill:#E57E25;" d="M482.133,119.467h-17.067c-4.719,0-8.533-3.823-8.533-8.533c0-4.71,3.814-8.533,8.533-8.533h17.067
			c4.719,0,8.533,3.823,8.533,8.533C490.667,115.644,486.852,119.467,482.133,119.467"/>
		<path style="fill:#E57E25;" d="M294.4,119.467h-17.067c-4.719,0-8.533-3.823-8.533-8.533c0-4.71,3.814-8.533,8.533-8.533H294.4
			c4.719,0,8.533,3.823,8.533,8.533C302.933,115.644,299.119,119.467,294.4,119.467"/>
		<path style="fill:#E57E25;" d="M319.392,59.125c-2.185,0-4.369-0.836-6.033-2.5l-12.066-12.066c-3.337-3.337-3.337-8.73,0-12.066
			s8.73-3.337,12.066,0l12.066,12.066c3.337,3.337,3.337,8.73,0,12.066C323.761,58.289,321.576,59.125,319.392,59.125"/>
		<path style="fill:#E57E25;" d="M452.142,191.875c-2.185,0-4.369-0.836-6.033-2.5l-12.066-12.066c-3.337-3.337-3.337-8.73,0-12.066
			s8.73-3.337,12.066,0l12.066,12.066c3.337,3.337,3.337,8.73,0,12.066C456.511,191.039,454.327,191.875,452.142,191.875"/>
		<path style="fill:#E57E25;" d="M440.075,59.125c-2.185,0-4.369-0.836-6.033-2.5c-3.337-3.337-3.337-8.73,0-12.066l12.066-12.066
			c3.337-3.337,8.73-3.337,12.066,0c3.337,3.337,3.337,8.73,0,12.066l-12.066,12.066C444.444,58.289,442.26,59.125,440.075,59.125"
			/>
		<path style="fill:#E57E25;" d="M307.325,191.875c-2.185,0-4.369-0.836-6.033-2.5c-3.337-3.337-3.337-8.73,0-12.066l12.066-12.066
			c3.337-3.337,8.73-3.337,12.066,0s3.337,8.73,0,12.066l-12.066,12.066C311.694,191.039,309.509,191.875,307.325,191.875"/>
	</g>
	<g>
		<path style="fill:#556080;" d="M46.933,512H12.8c-4.719,0-8.533-3.823-8.533-8.533c0-4.71,3.814-8.533,8.533-8.533h34.133
			c4.719,0,8.533,3.823,8.533,8.533C55.467,508.177,51.652,512,46.933,512"/>
		<path style="fill:#556080;" d="M89.6,477.867H55.467c-4.719,0-8.533-3.823-8.533-8.533c0-4.71,3.814-8.533,8.533-8.533H89.6
			c4.719,0,8.533,3.823,8.533,8.533C98.133,474.044,94.319,477.867,89.6,477.867"/>
		<path style="fill:#556080;" d="M140.8,512h-34.133c-4.719,0-8.533-3.823-8.533-8.533c0-4.71,3.814-8.533,8.533-8.533H140.8
			c4.719,0,8.533,3.823,8.533,8.533C149.333,508.177,145.519,512,140.8,512"/>
		<path style="fill:#556080;" d="M192,477.867h-34.133c-4.719,0-8.533-3.823-8.533-8.533c0-4.71,3.814-8.533,8.533-8.533H192
			c4.719,0,8.533,3.823,8.533,8.533C200.533,474.044,196.719,477.867,192,477.867"/>
		<path style="fill:#556080;" d="M243.2,512h-34.133c-4.719,0-8.533-3.823-8.533-8.533c0-4.71,3.814-8.533,8.533-8.533H243.2
			c4.719,0,8.533,3.823,8.533,8.533C251.733,508.177,247.919,512,243.2,512"/>
		<path style="fill:#556080;" d="M294.4,477.867h-34.133c-4.719,0-8.533-3.823-8.533-8.533c0-4.71,3.814-8.533,8.533-8.533H294.4
			c4.719,0,8.533,3.823,8.533,8.533C302.933,474.044,299.119,477.867,294.4,477.867"/>
		<path style="fill:#556080;" d="M243.2,443.733h-34.133c-4.719,0-8.533-3.823-8.533-8.533s3.814-8.533,8.533-8.533H243.2
			c4.719,0,8.533,3.823,8.533,8.533S247.919,443.733,243.2,443.733"/>
		<path style="fill:#556080;" d="M140.8,443.733h-34.133c-4.719,0-8.533-3.823-8.533-8.533s3.814-8.533,8.533-8.533H140.8
			c4.719,0,8.533,3.823,8.533,8.533S145.519,443.733,140.8,443.733"/>
		<path style="fill:#556080;" d="M46.933,443.733H12.8c-4.719,0-8.533-3.823-8.533-8.533s3.814-8.533,8.533-8.533h34.133
			c4.719,0,8.533,3.823,8.533,8.533S51.652,443.733,46.933,443.733"/>
		<path style="fill:#556080;" d="M345.6,443.733h-34.133c-4.719,0-8.533-3.823-8.533-8.533s3.814-8.533,8.533-8.533H345.6
			c4.719,0,8.533,3.823,8.533,8.533S350.319,443.733,345.6,443.733"/>
		<path style="fill:#556080;" d="M345.6,512h-34.133c-4.719,0-8.533-3.823-8.533-8.533c0-4.71,3.814-8.533,8.533-8.533H345.6
			c4.719,0,8.533,3.823,8.533,8.533C354.133,508.177,350.319,512,345.6,512"/>
		<path style="fill:#556080;" d="M396.8,477.867h-34.133c-4.719,0-8.533-3.823-8.533-8.533c0-4.71,3.814-8.533,8.533-8.533H396.8
			c4.719,0,8.533,3.823,8.533,8.533C405.333,474.044,401.519,477.867,396.8,477.867"/>
		<path style="fill:#556080;" d="M448,443.733h-34.133c-4.719,0-8.533-3.823-8.533-8.533s3.814-8.533,8.533-8.533H448
			c4.719,0,8.533,3.823,8.533,8.533S452.719,443.733,448,443.733"/>
		<path style="fill:#556080;" d="M448,512h-34.133c-4.719,0-8.533-3.823-8.533-8.533c0-4.71,3.814-8.533,8.533-8.533H448
			c4.719,0,8.533,3.823,8.533,8.533C456.533,508.177,452.719,512,448,512"/>
		<path style="fill:#556080;" d="M499.2,477.867h-34.133c-4.719,0-8.533-3.823-8.533-8.533c0-4.71,3.814-8.533,8.533-8.533H499.2
			c4.719,0,8.533,3.823,8.533,8.533C507.733,474.044,503.919,477.867,499.2,477.867"/>
	</g>
	<g>
		<path style="fill:#805333;" d="M485.668,371.932l-25.446-25.446c-5.726,10.402-16.051,17.707-28.501,19.772l29.815,29.807
			c6.665,6.665,17.468,6.665,24.132,0C492.332,389.4,492.332,378.597,485.668,371.932"/>
		<path style="fill:#805333;" d="M415.66,366.044c-10.59-2.133-19.499-8.141-25.813-16.299l-22.178,22.187
			c-6.665,6.665-6.665,17.468,0,24.132c6.665,6.665,17.468,6.665,24.132,0l29.414-29.414c-0.427-0.034-0.836-0.119-1.263-0.171
			C418.519,366.334,417.085,366.334,415.66,366.044"/>
	</g>
	<polygon style="fill:#234428;" points="251.733,264.533 243.2,284.041 243.2,401.067 260.267,401.067 260.267,284.041 	"/>
</g>
</svg>