<?xml version="1.0" encoding="iso-8859-1"?>
<!-- Uploaded to: SVG Repo, www.svgrepo.com, Generator: SVG Repo Mixer Tools -->
<svg height="800px" width="800px" version="1.1" id="Layer_1" xmlns="http://www.w3.org/2000/svg" xmlns:xlink="http://www.w3.org/1999/xlink" 
	 viewBox="0 0 512 512" xml:space="preserve">
<path style="fill:#A9B9BB;" d="M445.217,489.739H66.783c-24.588,0-44.522-19.934-44.522-44.522V66.783
	c0-24.588,19.933-44.522,44.522-44.522h378.435c24.588,0,44.522,19.933,44.522,44.522v378.435
	C489.739,469.806,469.806,489.739,445.217,489.739z"/>
<path style="fill:#C7D7D8;" d="M200.348,77.913L200.348,77.913c0,12.295-9.966,22.261-22.261,22.261H66.783
	c-12.295,0-22.261-9.966-22.261-22.261l0,0c0-4.059,1.104-7.854,3.002-11.13H22.261C9.966,66.783,0,56.816,0,44.522l0,0
	c0-12.295,9.966-22.261,22.261-22.261h66.783c12.295,0,22.261,9.966,22.261,22.261l0,0c0,4.059-1.104,7.854-3.002,11.13h69.784
	C190.382,55.652,200.348,65.618,200.348,77.913z"/>
<path style="fill:#505454;" d="M164.174,8.348V64c0,4.61-3.738,8.348-8.348,8.348s-8.348-3.738-8.348-8.348V8.348
	c0-4.61,3.738-8.348,8.348-8.348S164.174,3.738,164.174,8.348z"/>
<path style="fill:#A0A092;" d="M489.739,38.962v272.69H356.174V89.977c0-2.247,1.351-4.273,3.425-5.137l122.435-51.014
	C485.699,32.298,489.739,34.991,489.739,38.962z"/>
<path style="fill:#E7E8D4;" d="M409.043,108.522v169.739c0,4.61-3.738,8.348-8.348,8.348c-4.61,0-8.348-3.738-8.348-8.348V108.522
	c0-4.61,3.738-8.348,8.348-8.348C405.306,100.174,409.043,103.912,409.043,108.522z"/>
<path style="fill:#5F6666;" d="M367.304,27.826v283.826H244.87V22.261V5.565c0-3.073,2.492-5.565,5.565-5.565h66.783
	c3.073,0,5.565,2.492,5.565,5.565v11.13c0,3.073,2.492,5.565,5.565,5.565h33.391C364.812,22.261,367.304,24.753,367.304,27.826z"/>
<g>
	<path style="fill:#8E9A9B;" d="M342.261,55.652v222.609c0,4.61-3.738,8.348-8.348,8.348s-8.348-3.738-8.348-8.348V55.652
		c0-4.61,3.738-8.348,8.348-8.348S342.261,51.042,342.261,55.652z"/>
	<path style="fill:#8E9A9B;" d="M201.343,56.051l51.159,20.463c2.113,0.845,3.498,2.892,3.498,5.167v229.971H133.565V61.217
		c0-3.073,2.492-5.565,5.565-5.565h60.146C199.984,55.652,200.685,55.787,201.343,56.051z"/>
</g>
<path style="fill:#FFED8F;" d="M158.609,100.174c0-4.61,3.738-8.348,8.348-8.348h33.391c4.61,0,8.348,3.738,8.348,8.348
	c0,4.61-3.738,8.348-8.348,8.348h-33.391C162.346,108.522,158.609,104.784,158.609,100.174z M200.348,125.217h-33.391
	c-4.61,0-8.348,3.738-8.348,8.348c0,4.61,3.738,8.348,8.348,8.348h33.391c4.61,0,8.348-3.738,8.348-8.348
	C208.696,128.955,204.958,125.217,200.348,125.217z M200.348,158.609h-33.391c-4.61,0-8.348,3.738-8.348,8.348
	s3.738,8.348,8.348,8.348h33.391c4.61,0,8.348-3.738,8.348-8.348S204.958,158.609,200.348,158.609z"/>
<path style="fill:#74843A;" d="M205.913,292.638v40.812c0,30.992-25.124,56.115-56.116,56.115l0,0
	c-13.566,0-26.007-4.814-35.71-12.828c-9.702,8.014-22.144,12.828-35.71,12.828l0,0c-30.993,0-56.116-25.124-56.116-56.116V200.812
	c0-30.993,25.124-56.116,56.116-56.116l0,0c30.992,0,56.116,25.124,56.116,56.116v37.84c4.867-1.377,9.996-2.13,15.304-2.13l0,0
	C180.789,236.522,205.913,261.645,205.913,292.638z"/>
<path style="fill:#8CA055;" d="M169.739,328.812v40.812c0,6.014-0.956,11.803-2.708,17.233c-5.432,1.752-11.221,2.708-17.234,2.708
	l0,0c-13.566,0-26.007-4.814-35.71-12.827c-9.702,8.013-22.144,12.827-35.71,12.827l0,0c-30.993,0-56.116-25.124-56.116-56.116
	V200.812c0-6.014,0.956-11.803,2.708-17.234c5.432-1.751,11.221-2.708,17.234-2.708l0,0c30.992,0,56.115,25.124,56.115,56.116
	v37.841c4.867-1.378,9.996-2.13,15.304-2.13l0,0C144.615,272.696,169.739,297.819,169.739,328.812z"/>
<path style="fill:#727C7C;" d="M512,489.739c0,12.295-9.966,22.261-22.261,22.261H22.261C9.966,512,0,502.034,0,489.739V389.565h512
	V489.739z"/>
<path style="fill:#C5EAD4;" d="M411.826,438.725H100.174c-4.611,0-8.348-3.738-8.348-8.348c0-4.61,3.736-8.348,8.348-8.348h311.652
	c4.611,0,8.348,3.738,8.348,8.348C420.174,434.987,416.437,438.725,411.826,438.725z M345.043,462.84H166.957
	c-4.611,0-8.348,3.738-8.348,8.348s3.736,8.348,8.348,8.348h178.087c4.611,0,8.348-3.738,8.348-8.348S349.655,462.84,345.043,462.84
	z M89.043,470.261H33.391c-4.611,0-8.348,3.738-8.348,8.348s3.736,8.348,8.348,8.348h55.652c4.611,0,8.348-3.738,8.348-8.348
	S93.655,470.261,89.043,470.261z M478.609,470.261h-55.652c-4.611,0-8.348,3.738-8.348,8.348s3.736,8.348,8.348,8.348h55.652
	c4.611,0,8.348-3.738,8.348-8.348S483.22,470.261,478.609,470.261z"/>
<path style="fill:#BCAE8A;" d="M30.609,222.609v100.174c0,4.61-3.738,8.348-8.348,8.348s-8.348-3.738-8.348-8.348V222.609
	c0-4.61,3.738-8.348,8.348-8.348S30.609,217.998,30.609,222.609z M256,214.261c-4.61,0-8.348,3.738-8.348,8.348v100.174
	c0,4.61,3.738,8.348,8.348,8.348s8.348-3.738,8.348-8.348V222.609C264.348,217.998,260.61,214.261,256,214.261z M489.739,214.261
	c-4.61,0-8.348,3.738-8.348,8.348v100.174c0,4.61,3.738,8.348,8.348,8.348s8.348-3.738,8.348-8.348V222.609
	C498.087,217.998,494.349,214.261,489.739,214.261z"/>
<path style="fill:#FFED8F;" d="M44.522,211.478L44.522,211.478c0,12.295-9.966,22.261-22.261,22.261S0,223.773,0,211.478l0,0
	c0-12.295,9.966-22.261,22.261-22.261S44.522,199.184,44.522,211.478z M256,189.217c-12.295,0-22.261,9.966-22.261,22.261l0,0
	c0,12.295,9.966,22.261,22.261,22.261c12.295,0,22.261-9.966,22.261-22.261l0,0C278.261,199.184,268.295,189.217,256,189.217z
	 M489.739,189.217c-12.295,0-22.261,9.966-22.261,22.261l0,0c0,12.295,9.966,22.261,22.261,22.261S512,223.773,512,211.478l0,0
	C512,199.184,502.034,189.217,489.739,189.217z"/>
<path style="fill:#BCAE8A;" d="M512,389.565H0v-75.13h512V389.565z"/>
<path style="fill:#998C6E;" d="M512,314.435c0,4.61-3.738,8.348-8.348,8.348H8.348c-4.61,0-8.348-3.738-8.348-8.348
	c0-4.61,3.738-8.348,8.348-8.348h495.304C508.262,306.087,512,309.825,512,314.435z"/>
<path style="fill:#505454;" d="M512,389.565c0,4.61-3.738,8.348-8.348,8.348H8.348c-4.61,0-8.348-3.738-8.348-8.348
	c0-4.61,3.738-8.348,8.348-8.348h50.087v-36.174c0-4.61,3.738-8.348,8.348-8.348s8.348,3.738,8.348,8.348v36.174h37.366v-36.174
	c0-4.61,3.738-8.348,8.348-8.348s8.348,3.738,8.348,8.348v36.174h37.367v-36.174c0-4.61,3.738-8.348,8.348-8.348
	c4.61,0,8.348,3.738,8.348,8.348v36.174h37.366v-36.174c0-4.61,3.738-8.348,8.348-8.348c4.61,0,8.348,3.738,8.348,8.348v36.174
	h37.366v-36.174c0-4.61,3.738-8.348,8.348-8.348s8.348,3.738,8.348,8.348v36.174h37.366v-36.174c0-4.61,3.738-8.348,8.348-8.348
	c4.61,0,8.348,3.738,8.348,8.348v36.174h37.367v-36.174c0-4.61,3.738-8.348,8.348-8.348s8.348,3.738,8.348,8.348v36.174h37.367
	v-36.174c0-4.61,3.738-8.348,8.348-8.348s8.348,3.738,8.348,8.348v36.174h50.087C508.262,381.217,512,384.955,512,389.565z"/>
</svg>