<?xml version="1.0" encoding="iso-8859-1"?>
<!-- Uploaded to: SVG Repo, www.svgrepo.com, Generator: SVG Repo Mixer Tools -->
<svg height="800px" width="800px" version="1.1" id="Layer_1" xmlns="http://www.w3.org/2000/svg" xmlns:xlink="http://www.w3.org/1999/xlink" 
	 viewBox="0 0 512 512" xml:space="preserve">
<path style="fill:#C7D7D8;" d="M489.739,512H22.261V66.783c0-24.588,19.933-44.522,44.522-44.522h378.435
	c24.588,0,44.522,19.933,44.522,44.522V512z"/>
<path style="fill:#A9B9BB;" d="M406.261,512h-55.652V144.696h55.652V512z"/>
<path style="fill:#8E9A9B;" d="M89.043,27.826V512H33.391V27.826C33.391,12.458,45.85,0,61.217,0l0,0
	C76.585,0,89.043,12.458,89.043,27.826z"/>
<path style="fill:#727C7C;" d="M55.652,27.826V512H33.391V27.826C33.391,12.458,45.85,0,61.217,0c3.959,0,7.721,0.831,11.13,2.322
	C62.522,6.617,55.652,16.416,55.652,27.826z"/>
<path style="fill:#A9B9BB;" d="M386.783,8.348V75.13c0,4.61-3.738,8.348-8.348,8.348c-4.61,0-8.348-3.738-8.348-8.348V8.348
	c0-4.61,3.738-8.348,8.348-8.348C383.045,0,386.783,3.738,386.783,8.348z M222.609,367.304c-4.61,0-8.348,3.738-8.348,8.348v66.783
	c0,4.61,3.738,8.348,8.348,8.348c4.61,0,8.348-3.738,8.348-8.348v-66.783C230.957,371.042,227.219,367.304,222.609,367.304z"/>
<path style="fill:#8E9A9B;" d="M512,322.783c0,18.441-14.95,33.391-33.391,33.391H384V512h-33.391V356.174h-72.348
	c-18.441,0-33.391-14.95-33.391-33.391s14.95-33.391,33.391-33.391h33.391h38.957V144.696H384v144.696h22.261h27.826h44.522
	C497.05,289.391,512,304.342,512,322.783z"/>
<g>
	<path style="fill:#727C7C;" d="M507.522,306.087C510.365,311,512,316.699,512,322.783l0,0c0,18.442-14.949,33.391-33.391,33.391
		H278.261c-18.442,0-33.391-14.949-33.391-33.391l0,0c0-6.084,1.635-11.783,4.478-16.696c5.774,9.977,16.555,16.696,28.914,16.696
		h200.348C490.966,322.783,501.748,316.064,507.522,306.087z"/>
	<path style="fill:#727C7C;" d="M178.087,105.739V512h-55.652V105.739c0-15.368,12.458-27.826,27.826-27.826
		S178.087,90.371,178.087,105.739z M378.435,66.783L378.435,66.783c-39.957,0-72.348,32.392-72.348,72.348l0,0
		c0,39.956,32.391,72.348,72.348,72.348l0,0c39.957,0,72.348-32.392,72.348-72.348l0,0
		C450.783,99.174,418.392,66.783,378.435,66.783z"/>
</g>
<path style="fill:#5F6666;" d="M150.261,77.913c3.959,0,7.721,0.833,11.13,2.322c-9.826,4.294-16.696,14.096-16.696,25.504V512
	h-22.261V105.739C122.435,90.371,134.893,77.913,150.261,77.913z M406.261,178.087L406.261,178.087
	c-39.957,0-72.348-32.392-72.348-72.348l0,0c0-9.721,1.93-18.99,5.408-27.458c-19.987,12.875-33.234,35.308-33.234,60.849l0,0
	c0,39.956,32.391,72.348,72.348,72.348l0,0c30.235,0,56.125-18.553,66.94-44.89C434.095,173.854,420.676,178.087,406.261,178.087z"
	/>
<path style="fill:#A9B9BB;" d="M178.087,233.739H33.391C14.949,233.739,0,218.79,0,200.348l0,0
	c0-18.442,14.949-33.391,33.391-33.391h144.696c18.442,0,33.391,14.949,33.391,33.391l0,0
	C211.478,218.79,196.529,233.739,178.087,233.739z"/>
<path style="fill:#8E9A9B;" d="M289.391,500.87V512H155.826v-11.13c0-36.883,29.9-66.783,66.783-66.783l0,0
	C259.492,434.087,289.391,463.987,289.391,500.87z"/>
<path style="fill:#727C7C;" d="M512,503.652c0,4.61-3.738,8.348-8.348,8.348H8.348C3.738,512,0,508.262,0,503.652
	s3.738-8.348,8.348-8.348h495.304C508.262,495.304,512,499.042,512,503.652z"/>
<path style="fill:#C7FAFF;" d="M64,200.348c0,4.61-3.738,8.348-8.348,8.348H33.391c-4.61,0-8.348-3.738-8.348-8.348
	c0-4.61,3.738-8.348,8.348-8.348h22.261C60.262,192,64,195.738,64,200.348z M100.174,192h-11.13c-4.61,0-8.348,3.738-8.348,8.348
	c0,4.61,3.738,8.348,8.348,8.348h11.13c4.61,0,8.348-3.738,8.348-8.348C108.522,195.738,104.784,192,100.174,192z M467.478,130.783
	H289.391c-4.61,0-8.348,3.738-8.348,8.348c0,4.61,3.738,8.348,8.348,8.348h178.087c4.61,0,8.348-3.738,8.348-8.348
	C475.826,134.52,472.088,130.783,467.478,130.783z M228.174,459.13h-11.13c-4.61,0-8.348,3.738-8.348,8.348s3.738,8.348,8.348,8.348
	h11.13c4.61,0,8.348-3.738,8.348-8.348S232.784,459.13,228.174,459.13z"/>
<path style="fill:#EAFFFF;" d="M233.739,52.87h-44.522c-4.61,0-8.348-3.738-8.348-8.348s3.738-8.348,8.348-8.348h44.522
	c4.61,0,8.348,3.738,8.348,8.348S238.349,52.87,233.739,52.87z M489.739,236.522h-33.391c-4.61,0-8.348,3.738-8.348,8.348
	s3.738,8.348,8.348,8.348h33.391c4.61,0,8.348-3.738,8.348-8.348S494.349,236.522,489.739,236.522z M267.13,247.652H244.87
	c-4.61,0-8.348,3.738-8.348,8.348s3.738,8.348,8.348,8.348h22.261c4.61,0,8.348-3.738,8.348-8.348S271.741,247.652,267.13,247.652z
	 M289.391,80.696H256c-4.61,0-8.348,3.738-8.348,8.348c0,4.61,3.738,8.348,8.348,8.348h33.391c4.61,0,8.348-3.738,8.348-8.348
	C297.739,84.433,294.002,80.696,289.391,80.696z"/>
</svg>