<?xml version="1.0" encoding="iso-8859-1"?>
<!-- Uploaded to: SVG Repo, www.svgrepo.com, Generator: SVG Repo Mixer Tools -->
<svg height="800px" width="800px" version="1.1" id="Layer_1" xmlns="http://www.w3.org/2000/svg" xmlns:xlink="http://www.w3.org/1999/xlink" 
	 viewBox="0 0 512 512" xml:space="preserve">
<path style="fill:#EAFFFF;" d="M445.217,478.609H66.783c-24.588,0-44.522-19.934-44.522-44.522V66.783
	c0-24.588,19.933-44.522,44.522-44.522h378.435c24.588,0,44.522,19.933,44.522,44.522v367.304
	C489.739,458.675,469.806,478.609,445.217,478.609z"/>
<path style="fill:#C5EAD4;" d="M389.565,66.783L389.565,66.783c0,12.295-9.966,22.261-22.261,22.261h-44.522
	c-12.295,0-22.261-9.966-22.261-22.261l0,0c0-12.295,9.966-22.261,22.261-22.261h44.522
	C379.599,44.522,389.565,54.488,389.565,66.783z M166.957,0H55.652C43.357,0,33.391,9.966,33.391,22.261l0,0
	c0,4.059,1.104,7.854,3.002,11.13H22.261C9.966,33.391,0,43.357,0,55.652l0,0c0,12.295,9.966,22.261,22.261,22.261h44.522
	c12.295,0,22.261-9.966,22.261-22.261l0,0c0-4.059-1.104-7.854-3.002-11.13h80.915c12.295,0,22.261-9.966,22.261-22.261l0,0
	C189.217,9.966,179.251,0,166.957,0z"/>
<path style="fill:#FFFF81;" d="M417.391,66.783c52.251,0,94.609,42.358,94.609,94.609S469.642,256,417.391,256
	s-94.609-42.358-94.609-94.609S365.141,66.783,417.391,66.783z"/>
<path style="fill:#FFF145;" d="M417.391,111.304c27.662,0,50.087,22.424,50.087,50.087s-22.424,50.087-50.087,50.087
	c-27.662,0-50.087-22.424-50.087-50.087S389.729,111.304,417.391,111.304z"/>
<path style="fill:#8E9A9B;" d="M500.87,300.522V512H389.565V289.391h100.174C495.886,289.391,500.87,294.374,500.87,300.522z
	 M345.043,189.217h-66.783v55.652h77.913v-44.522C356.174,194.2,351.191,189.217,345.043,189.217z"/>
<path style="fill:#A9B9BB;" d="M200.348,122.435v33.391h-33.391v-33.391c0-6.147,4.983-11.13,11.13-11.13h11.13
	C195.365,111.304,200.348,116.287,200.348,122.435z M77.913,211.478V512h100.174V200.348H89.043
	C82.896,200.348,77.913,205.331,77.913,211.478z M389.565,233.739H278.261V512h122.435V244.87
	C400.696,238.722,395.713,233.739,389.565,233.739z M256,69.565c-4.61,0-8.348,3.738-8.348,8.348v77.913
	c0,4.61,3.738,8.348,8.348,8.348s8.348-3.738,8.348-8.348V77.913C264.348,73.303,260.61,69.565,256,69.565z"/>
<path style="fill:#C7D7D8;" d="M111.304,456.348V512H11.13v-55.652c0-6.147,4.983-11.13,11.13-11.13h77.913
	C106.321,445.217,111.304,450.2,111.304,456.348z M116.87,225.391c-4.61,0-8.348,3.738-8.348,8.348v144.696
	c0,4.61,3.738,8.348,8.348,8.348s8.348-3.738,8.348-8.348V233.739C125.217,229.129,121.48,225.391,116.87,225.391z M278.261,144.696
	H166.957V512h122.435V155.826C289.391,149.679,284.408,144.696,278.261,144.696z M356.174,258.783c-4.61,0-8.348,3.738-8.348,8.348
	v77.913c0,4.61,3.738,8.348,8.348,8.348s8.348-3.738,8.348-8.348V267.13C364.522,262.52,360.784,258.783,356.174,258.783z"/>
<path style="fill:#A9C253;" d="M415.006,494.51V512H222.609v-17.49c0-25.898,14.082-48.493,34.997-60.589
	c-0.003-0.21-0.016-0.417-0.016-0.629c0-24.15,19.577-43.727,43.727-43.727c21.155,0,38.798,15.023,42.85,34.982h0.876
	C383.683,424.547,415.006,455.87,415.006,494.51z"/>
<path style="fill:#98B629;" d="M373.016,512H222.609v-17.49c0-25.143,13.274-47.171,33.186-59.502c2.889-0.601,5.882-0.92,8.95-0.92
	c21.155,0,38.798,15.023,42.85,34.982h0.876C337.528,469.069,362.443,486.783,373.016,512z"/>
<path style="fill:#FFFFFF;" d="M253.217,200.348v144.696c0,4.61-3.738,8.348-8.348,8.348s-8.348-3.738-8.348-8.348V200.348
	c0-4.61,3.738-8.348,8.348-8.348S253.217,195.738,253.217,200.348z"/>
<path style="fill:#A9B9BB;" d="M425.739,322.783c0-4.61,3.738-8.348,8.348-8.348h11.13c4.61,0,8.348,3.738,8.348,8.348
	s-3.738,8.348-8.348,8.348h-11.13C429.477,331.13,425.739,327.393,425.739,322.783z M445.217,347.826h-11.13
	c-4.61,0-8.348,3.738-8.348,8.348s3.738,8.348,8.348,8.348h11.13c4.61,0,8.348-3.738,8.348-8.348S449.828,347.826,445.217,347.826z
	 M445.217,381.217h-11.13c-4.61,0-8.348,3.738-8.348,8.348c0,4.61,3.738,8.348,8.348,8.348h11.13c4.61,0,8.348-3.738,8.348-8.348
	C453.565,384.955,449.828,381.217,445.217,381.217z"/>
<path style="fill:#505454;" d="M512,503.652c0,4.61-3.738,8.348-8.348,8.348H8.348C3.738,512,0,508.262,0,503.652
	s3.738-8.348,8.348-8.348h495.304C508.262,495.304,512,499.042,512,503.652z"/>
</svg>