<?xml version="1.0" encoding="iso-8859-1"?>
<!-- Uploaded to: SVG Repo, www.svgrepo.com, Generator: SVG Repo Mixer Tools -->
<svg height="800px" width="800px" version="1.1" id="Layer_1" xmlns="http://www.w3.org/2000/svg" xmlns:xlink="http://www.w3.org/1999/xlink" 
	 viewBox="0 0 512 512" xml:space="preserve">
<path style="fill:#EAFFFF;" d="M445.217,489.739H66.783c-24.588,0-44.522-19.934-44.522-44.522V66.783
	c0-24.588,19.933-44.522,44.522-44.522h378.435c24.588,0,44.522,19.933,44.522,44.522v378.435
	C489.739,469.806,469.806,489.739,445.217,489.739z"/>
<path style="fill:#A9D5BB;" d="M77.913,44.522H22.261C9.966,44.522,0,34.556,0,22.261l0,0C0,9.966,9.966,0,22.261,0h55.652
	c12.295,0,22.261,9.966,22.261,22.261l0,0C100.174,34.556,90.208,44.522,77.913,44.522z"/>
<path style="fill:#91C1A4;" d="M512,389.565L512,389.565v100.174c0,12.295-9.966,22.261-22.261,22.261H22.261
	C9.966,512,0,502.034,0,489.739V389.565l0,0c14.64-7.319,30.782-11.13,47.15-11.13h417.702
	C481.218,378.435,497.36,382.246,512,389.565z"/>
<path style="fill:#EAFFFF;" d="M453.565,434.087c0,4.61-3.738,8.348-8.348,8.348H311.652c-4.61,0-8.348-3.738-8.348-8.348
	s3.738-8.348,8.348-8.348h133.565C449.828,425.739,453.565,429.477,453.565,434.087z M317.217,463.583H194.783
	c-4.61,0-8.348,3.738-8.348,8.348s3.738,8.348,8.348,8.348h122.435c4.61,0,8.348-3.738,8.348-8.348S321.828,463.583,317.217,463.583
	z M407.745,463.583h-44.522c-4.61,0-8.348,3.738-8.348,8.348s3.738,8.348,8.348,8.348h44.522c4.61,0,8.348-3.738,8.348-8.348
	S412.356,463.583,407.745,463.583z M148.777,463.583h-44.522c-4.61,0-8.348,3.738-8.348,8.348s3.738,8.348,8.348,8.348h44.522
	c4.61,0,8.348-3.738,8.348-8.348S153.387,463.583,148.777,463.583z"/>
<path style="fill:#CEA455;" d="M244.87,367.304v44.522c0,12.295-9.966,22.261-22.261,22.261H122.435
	c-12.295,0-22.261-9.966-22.261-22.261v-44.522H244.87z M66.783,89.043H33.391c-6.147,0-11.13,4.983-11.13,11.13v267.13h55.652
	v-267.13C77.913,94.027,72.93,89.043,66.783,89.043z"/>
<path style="fill:#A07040;" d="M44.522,130.783H22.261v-16.696h22.261c4.61,0,8.348,3.738,8.348,8.348
	S49.132,130.783,44.522,130.783z M53.24,158.609h-6.308c-4.61,0-8.348,3.738-8.348,8.348s3.738,8.348,8.348,8.348h6.308
	c4.61,0,8.348-3.738,8.348-8.348S57.852,158.609,53.24,158.609z"/>
<path style="fill:#A9A632;" d="M280.908,10.702L383.78,370.755c2.694,9.426-4.384,18.809-14.188,18.809H163.847
	c-9.804,0-16.882-9.383-14.188-18.809L252.532,10.702C254.342,4.368,260.132,0,266.72,0l0,0C273.308,0,279.098,4.368,280.908,10.702
	z"/>
<path style="fill:#606D11;" d="M362.85,10.702l104.193,364.675c2.031,7.11-3.307,14.188-10.702,14.188H245.79
	c-9.804,0-16.882-9.383-14.188-18.809L334.474,10.702C336.284,4.368,342.074,0,348.662,0l0,0C355.25,0,361.04,4.368,362.85,10.702z"
	/>
<path style="fill:#A07040;" d="M340.904,389.565V194.783c0-4.61,3.738-8.348,8.348-8.348s8.348,3.738,8.348,8.348v194.783H340.904z"
	/>
<path style="fill:#DBCB9C;" d="M205.737,14.51l139.306,375.056H0L139.306,14.51C142.546,5.788,150.87,0,160.174,0h24.695
	C194.174,0,202.497,5.788,205.737,14.51z"/>
<path style="fill:#BCAE8A;" d="M172.522,0h12.348c9.305,0,17.628,5.788,20.867,14.51l139.306,375.056H172.522V0z"/>
<path style="fill:#998C6E;" d="M217.043,222.609v166.956H128V222.609c0-6.147,4.983-11.13,11.13-11.13h66.783
	C212.06,211.478,217.043,216.461,217.043,222.609z"/>
<path style="fill:#FFAF4A;" d="M189.217,162.504h-33.391c-6.147,0-11.13-4.983-11.13-11.13v-28.939c0-6.147,4.983-11.13,11.13-11.13
	h33.391c6.147,0,11.13,4.983,11.13,11.13v28.939C200.348,157.521,195.365,162.504,189.217,162.504z"/>
<path style="fill:#A9A632;" d="M442.797,147.351L512,389.565H355.45l69.203-242.214c1.158-4.05,4.858-6.842,9.071-6.842l0,0
	C437.937,140.509,441.639,143.302,442.797,147.351z"/>
<path style="fill:#825E06;" d="M428.445,389.565v-95.351c0-4.61,3.738-8.348,8.348-8.348c4.61,0,8.348,3.738,8.348,8.348v95.351
	H428.445z"/>
</svg>