<?xml version="1.0" encoding="utf-8"?>
<!-- Uploaded to: SVG Repo, www.svgrepo.com, Generator: SVG Repo Mixer Tools -->
<svg width="800px" height="800px" viewBox="0 0 1024 1024" class="icon"  version="1.1" xmlns="http://www.w3.org/2000/svg"><path d="M776 576.8C672 544 624 456 512 456S352 544 248 576.8c-125.92 40-168 72.48-168 153.04 0 40 48 40 48 0 0-56 56-72.48 128-88.64 125.92-28.16 176-64.48 256-64.48s130.08 36.24 256 64.48c72 16 128 32 128 88.64 0 40 48 40 48 0 0-80.64-42.08-113.36-168-153.04z" fill="#CB525F" /></svg>