<?xml version="1.0" encoding="utf-8"?>
<!-- Uploaded to: SVG Repo, www.svgrepo.com, Generator: SVG Repo Mixer Tools -->
<svg width="800px" height="800px" viewBox="0 0 1024 1024" class="icon"  version="1.1" xmlns="http://www.w3.org/2000/svg"><path d="M744 632c0-107.84 3.36-154.4 7.36-166 0-1.36 0.64-2 0.64-2l152-56s-28.88-128-40-184c-6.32-32-26.56-58.4-53.36-80A322.96 322.96 0 0 0 640 80H384a322.96 322.96 0 0 0-170.64 64c-26.8 21.6-47.04 48-53.36 80-11.12 56-40 184-40 184l152 56s0 0.64 0.64 2c4 11.6 7.36 58.16 7.36 166a1151.36 1151.36 0 0 1-32.64 256 248.8 248.8 0 0 0-7.36 56h544a248.8 248.8 0 0 0-7.36-56A1151.36 1151.36 0 0 1 744 632z" fill="#FFFFFF" /><path d="M384 80c0 88 57.36 160 128 160s128-71.52 128-160z" fill="#EAEAEA" /><path d="M608 452a24 24 0 0 1-10.72-2.56A53.12 53.12 0 0 1 568 404.08a24 24 0 0 1 40-17.92 24 24 0 0 1 40 17.92 53.12 53.12 0 0 1-29.28 45.36 24 24 0 0 1-10.72 2.56zM344 516.08a52.88 52.88 0 0 1-29.28 45.36 24 24 0 0 1-21.44 0 57.36 57.36 0 0 1-14.08-10.32c-0.64-24-1.44-42.64-2.48-56a24 24 0 0 1 11.28-2.96 24 24 0 0 1 16 6 24 24 0 0 1 40 17.92zM376 876a24 24 0 0 1-10.72-2.56 53.12 53.12 0 0 1-29.28-45.36 24 24 0 0 1 40-17.92 24 24 0 0 1 40 17.92 53.12 53.12 0 0 1-29.28 45.36 24 24 0 0 1-10.72 2.56zM454.56 657.44a24 24 0 0 1-5.84-9.44 53.12 53.12 0 0 1 11.36-52.8 24 24 0 0 1 40.88 15.52 24 24 0 0 1 16 41.04A53.12 53.12 0 0 1 464 663.28a24 24 0 0 1-9.44-5.84zM611.6 944h-77.52a48.64 48.64 0 0 1 14.08-36.72 24 24 0 0 1 40.88 15.52 24.56 24.56 0 0 1 16 7.04 24 24 0 0 1 6.56 14.16zM332.72 123.84A53.12 53.12 0 0 1 280 135.28a24.48 24.48 0 0 1-15.2-15.2 55.36 55.36 0 0 1-1.68-6.88 344 344 0 0 1 68.16-24.8c0.56 0 1.04 0.96 1.6 1.44a24 24 0 0 1-0.16 34zM417.44 369.44a24 24 0 0 1-9.36 5.84 53.12 53.12 0 0 1-52.8-11.36 24 24 0 0 1 15.52-40.88 24 24 0 0 1 41.04-16A53.12 53.12 0 0 1 423.28 360a24 24 0 0 1-5.84 9.44zM745.2 537.04c-0.64 19.04-0.96 42.24-1.12 70.24a53.12 53.12 0 0 1-52.8-11.44 24 24 0 0 1 15.52-40.88 24.56 24.56 0 0 1 7.04-16 24 24 0 0 1 31.36-1.92zM673.44 809.44a24 24 0 0 1-9.36 5.84 53.12 53.12 0 0 1-52.8-11.36 24 24 0 0 1 15.52-40.88 24 24 0 0 1 41.04-16 53.12 53.12 0 0 1 11.36 52.8 24 24 0 0 1-5.76 9.6zM781.12 210.24q-7.12 20.72-12.64 42.48a56 56 0 0 1-40.56 2.56 24.48 24.48 0 0 1-15.2-15.2 53.12 53.12 0 0 1 11.44-52.8 24 24 0 0 1 40.88 15.52 24.56 24.56 0 0 1 16 7.04zM208 276.08a52.88 52.88 0 0 1-29.28 45.36 24 24 0 0 1-21.44 0 58.56 58.56 0 0 1-15.44-11.68c4.32-19.76 8.64-40 12.32-57.52a24 24 0 0 1 13.76 5.92 24 24 0 0 1 40 17.92zM889.92 344.8a50.96 50.96 0 0 1-46.64-12.96 24 24 0 0 1 15.52-40.88 24.56 24.56 0 0 1 7.04-16 24 24 0 0 1 8-5.12c4.96 24.56 10.88 51.44 16.08 74.96z" fill="#E455AF" /></svg>