<?xml version="1.0" encoding="iso-8859-1"?>
<!-- Uploaded to: SVG Repo, www.svgrepo.com, Generator: SVG Repo Mixer Tools -->
<svg height="800px" width="800px" version="1.1" id="Layer_1" xmlns="http://www.w3.org/2000/svg" xmlns:xlink="http://www.w3.org/1999/xlink" 
	 viewBox="0 0 512 512" xml:space="preserve">
<path style="fill:#EAFFFF;" d="M445.217,489.739H66.783c-24.588,0-44.522-19.934-44.522-44.522V66.783
	c0-24.588,19.933-44.522,44.522-44.522h378.435c24.588,0,44.522,19.933,44.522,44.522v378.435
	C489.739,469.806,469.806,489.739,445.217,489.739z"/>
<path style="fill:#FFFF81;" d="M317.217,0c52.251,0,94.609,42.358,94.609,94.609s-42.358,94.609-94.609,94.609
	s-94.609-42.358-94.609-94.609S264.967,0,317.217,0z"/>
<path style="fill:#FFF145;" d="M317.217,44.522c27.662,0,50.087,22.424,50.087,50.087s-22.424,50.087-50.087,50.087
	s-50.087-22.424-50.087-50.087S289.555,44.522,317.217,44.522z"/>
<path style="fill:#727C7C;" d="M72.348,44.522c0,4.61-3.738,8.348-8.348,8.348c-10.74,0-19.478,8.739-19.478,19.478
	c0,4.61-3.738,8.348-8.348,8.348s-8.348-3.738-8.348-8.348c0-10.74-8.739-19.478-19.478-19.478C3.738,52.87,0,49.132,0,44.522
	s3.738-8.348,8.348-8.348c11.176,0,21.186,5.096,27.826,13.084c6.64-7.988,16.65-13.084,27.826-13.084
	C68.61,36.174,72.348,39.912,72.348,44.522z M503.652,180.87c-11.176,0-21.186,5.096-27.826,13.084
	c-6.64-7.988-16.65-13.084-27.826-13.084c-4.61,0-8.348,3.738-8.348,8.348c0,4.61,3.738,8.348,8.348,8.348
	c10.74,0,19.478,8.739,19.478,19.478c0,4.61,3.738,8.348,8.348,8.348c4.61,0,8.348-3.738,8.348-8.348
	c0-10.74,8.739-19.478,19.478-19.478c4.61,0,8.348-3.738,8.348-8.348C512,184.607,508.262,180.87,503.652,180.87z"/>
<path style="fill:#C7D7D8;" d="M340.225,185.145l152.297,203.063h-57.688H146.392H19.478l135.263-270.525
	c1.954-3.909,5.949-6.378,10.319-6.378h56.327c3.632,0,7.051,1.71,9.23,4.615l44.997,59.995c2.179,2.905,5.599,4.615,9.23,4.615
	h46.15C334.626,180.53,338.046,182.24,340.225,185.145z"/>
<path style="fill:#A9B9BB;" d="M178.087,388.207h-31.695H19.478l135.263-270.525c1.954-3.909,5.949-6.378,10.319-6.378h13.027
	V388.207z"/>
<path style="fill:#A9D5BB;" d="M512,489.739c0,12.295-9.966,22.261-22.261,22.261H22.261C9.966,512,0,502.034,0,489.739V389.565h512
	V489.739z"/>
<g>
	<path style="fill:#EAFFFF;" d="M512,389.565c0,4.61-3.738,8.348-8.348,8.348H8.348c-4.61,0-8.348-3.738-8.348-8.348
		c0-4.61,3.738-8.348,8.348-8.348h495.304C508.262,381.217,512,384.955,512,389.565z M342.261,478.609H164.174
		c-4.61,0-8.348,3.738-8.348,8.348c0,4.61,3.738,8.348,8.348,8.348h178.087c4.61,0,8.348-3.738,8.348-8.348
		C350.609,482.346,346.871,478.609,342.261,478.609z M331.13,448c0-4.61-3.738-8.348-8.348-8.348H139.13
		c-4.61,0-8.348,3.738-8.348,8.348c0,4.61,3.738,8.348,8.348,8.348h183.652C327.393,456.348,331.13,452.61,331.13,448z
		 M94.609,439.652H50.087c-4.61,0-8.348,3.738-8.348,8.348c0,4.61,3.738,8.348,8.348,8.348h44.522c4.61,0,8.348-3.738,8.348-8.348
		C102.957,443.39,99.219,439.652,94.609,439.652z M478.609,439.652h-44.522c-4.61,0-8.348,3.738-8.348,8.348
		c0,4.61,3.738,8.348,8.348,8.348h44.522c4.61,0,8.348-3.738,8.348-8.348C486.957,443.39,483.219,439.652,478.609,439.652z"/>
	<path style="fill:#EAFFFF;" d="M352.174,365.585L384,456.348H250.435l36.89-110.669c2.094-6.282,9.177-9.357,15.196-6.598
		l43.787,20.069C349.056,360.409,351.174,362.732,352.174,365.585z"/>
</g>
</svg>