<?xml version="1.0" encoding="iso-8859-1"?>
<!-- Uploaded to: SVG Repo, www.svgrepo.com, Generator: SVG Repo Mixer Tools -->
<svg height="800px" width="800px" version="1.1" id="Layer_1" xmlns="http://www.w3.org/2000/svg" xmlns:xlink="http://www.w3.org/1999/xlink" 
	 viewBox="0 0 512 512" xml:space="preserve">
<path style="fill:#F2F2E7;" d="M445.217,489.739H66.783c-24.588,0-44.522-19.934-44.522-44.522V66.783
	c0-24.588,19.933-44.522,44.522-44.522h378.435c24.588,0,44.522,19.933,44.522,44.522v378.435
	C489.739,469.806,469.806,489.739,445.217,489.739z"/>
<path style="fill:#D3D5BB;" d="M189.217,44.522H44.522c-12.295,0-22.261-9.966-22.261-22.261l0,0C22.261,9.966,32.227,0,44.522,0
	h144.696c12.295,0,22.261,9.966,22.261,22.261l0,0C211.478,34.556,201.512,44.522,189.217,44.522z M267.13,0
	c-12.295,0-22.261,9.966-22.261,22.261s9.966,22.261,22.261,22.261c12.295,0,22.261-9.966,22.261-22.261S279.425,0,267.13,0z
	 M434.087,155.826h-77.913h-66.783c-12.295,0-22.261,9.966-22.261,22.261l0,0c0,4.059,1.104,7.854,3.002,11.13h-36.393h-66.783
	c-12.295,0-22.261,9.966-22.261,22.261l0,0c0,12.295,9.966,22.261,22.261,22.261h144.696c12.295,0,22.261-9.966,22.261-22.261l0,0
	c0-4.059-1.104-7.854-3.002-11.13h103.176c12.295,0,22.261-9.966,22.261-22.261l0,0
	C456.348,165.792,446.382,155.826,434.087,155.826z M489.739,100.174c-12.295,0-22.261,9.966-22.261,22.261
	s9.966,22.261,22.261,22.261S512,134.729,512,122.435S502.034,100.174,489.739,100.174z"/>
<path style="fill:#FFA47B;" d="M478.609,356.174v55.652h-89.043v-55.652c0-6.147,4.983-11.13,11.13-11.13h66.783
	C473.626,345.043,478.609,350.027,478.609,356.174z M322.783,345.043H256c-6.147,0-11.13,4.983-11.13,11.13v55.652h89.043v-55.652
	C333.913,350.027,328.93,345.043,322.783,345.043z"/>
<path style="fill:#84837A;" d="M500.87,400.696V512H166.957V389.565h322.783C495.886,389.565,500.87,394.548,500.87,400.696z"/>
<path style="fill:#6B6A63;" d="M403.478,434.087c0-4.61,3.738-8.348,8.348-8.348h44.522c4.61,0,8.348,3.738,8.348,8.348
	s-3.738,8.348-8.348,8.348h-44.522C407.216,442.435,403.478,438.697,403.478,434.087z M456.348,459.13h-44.522
	c-4.61,0-8.348,3.738-8.348,8.348s3.738,8.348,8.348,8.348h44.522c4.61,0,8.348-3.738,8.348-8.348S460.958,459.13,456.348,459.13z
	 M311.652,425.739H267.13c-4.61,0-8.348,3.738-8.348,8.348s3.738,8.348,8.348,8.348h44.522c4.61,0,8.348-3.738,8.348-8.348
	S316.262,425.739,311.652,425.739z M311.652,459.13H267.13c-4.61,0-8.348,3.738-8.348,8.348s3.738,8.348,8.348,8.348h44.522
	c4.61,0,8.348-3.738,8.348-8.348S316.262,459.13,311.652,459.13z"/>
<path style="fill:#E7E8D4;" d="M100.174,512H11.13V100.174c0-6.147,4.983-11.13,11.13-11.13h66.783c6.147,0,11.13,4.983,11.13,11.13
	V512z"/>
<path style="fill:#D3D5BB;" d="M66.783,100.174V512H11.13V100.174c0-6.147,4.983-11.13,11.13-11.13h33.391
	C61.8,89.043,66.783,94.027,66.783,100.174z"/>
<path style="fill:#FFA47B;" d="M11.13,200.348h89.043V256H11.13V200.348z M11.13,367.304h89.043v-55.652H11.13V367.304z
	 M89.043,89.043H22.261c-6.147,0-11.13,4.983-11.13,11.13v44.522h89.043v-44.522C100.174,94.027,95.191,89.043,89.043,89.043z"/>
<path style="fill:#FF8950;" d="M11.13,200.348h55.652V256H11.13V200.348z M11.13,367.304h55.652v-55.652H11.13V367.304z
	 M55.652,89.043H22.261c-6.147,0-11.13,4.983-11.13,11.13v44.522h55.652v-44.522C66.783,94.027,61.8,89.043,55.652,89.043z"/>
<path style="fill:#B9BAA6;" d="M251.416,289.391v4.402c0,34.928,3.94,69.746,11.745,103.791L289.391,512H44.522l27.484-110.373
	c9.141-36.712,13.764-74.404,13.764-112.236l0,0c0-6.147,4.983-11.13,11.13-11.13h143.387
	C246.433,278.261,251.416,283.244,251.416,289.391z"/>
<path style="fill:#A0A092;" d="M207.509,397.584L233.739,512H44.522l27.484-110.373c9.141-36.712,13.764-74.404,13.764-112.236l0,0
	c0-6.147,4.983-11.13,11.13-11.13h87.733c6.147,0,11.13,4.983,11.13,11.13v4.402C195.764,328.722,199.704,363.539,207.509,397.584z"
	/>
<path style="fill:#6B6A63;" d="M512,503.652c0,4.61-3.738,8.348-8.348,8.348H8.348C3.738,512,0,508.262,0,503.652
	s3.738-8.348,8.348-8.348h495.304C508.262,495.304,512,499.042,512,503.652z"/>
</svg>