<?xml version="1.0" encoding="iso-8859-1"?>
<!-- Uploaded to: SVG Repo, www.svgrepo.com, Generator: SVG Repo Mixer Tools -->
<svg height="800px" width="800px" version="1.1" id="Layer_1" xmlns="http://www.w3.org/2000/svg" xmlns:xlink="http://www.w3.org/1999/xlink" 
	 viewBox="0 0 512 512" xml:space="preserve">
<path style="fill:#A9B9BB;" d="M445.217,489.739H66.783c-24.588,0-44.522-19.934-44.522-44.522V66.782
	c0-24.588,19.933-44.522,44.522-44.522h378.435c24.588,0,44.522,19.933,44.522,44.522v378.435
	C489.739,469.805,469.806,489.739,445.217,489.739z"/>
<path style="fill:#FFED8F;" d="M0,228.239C0,129.537,73.374,47.984,168.55,35.119c-5.226,17.604-8.044,36.244-8.044,55.544
	c0,107.64,87.259,194.899,194.899,194.899c8.938,0,17.731-0.614,26.35-1.78c-12.941,43.599-40.727,80.806-77.493,105.783H85.55
	C33.927,354.508,0,295.344,0,228.239z"/>
<path style="fill:#727C7C;" d="M512,389.565v100.174c0,12.295-9.966,22.261-22.261,22.261H22.261C9.966,512,0,502.034,0,489.739
	V389.565H512z"/>
<path style="fill:#C5EAD4;" d="M333.913,434.087H111.304c-4.61,0-8.348-3.738-8.348-8.348c0-4.61,3.738-8.348,8.348-8.348h222.609
	c4.61,0,8.348,3.738,8.348,8.348C342.261,430.349,338.523,434.087,333.913,434.087z M400.696,417.391h-22.261
	c-4.61,0-8.348,3.738-8.348,8.348c0,4.61,3.738,8.348,8.348,8.348h22.261c4.61,0,8.348-3.738,8.348-8.348
	C409.043,421.129,405.306,417.391,400.696,417.391z M350.609,456.348H217.043c-4.61,0-8.348,3.738-8.348,8.348
	s3.738,8.348,8.348,8.348h133.565c4.61,0,8.348-3.738,8.348-8.348S355.219,456.348,350.609,456.348z M183.652,456.348h-22.261
	c-4.61,0-8.348,3.738-8.348,8.348s3.738,8.348,8.348,8.348h22.261c4.61,0,8.348-3.738,8.348-8.348S188.262,456.348,183.652,456.348z
	"/>
<path style="fill:#DBCB9C;" d="M413.633,256h31.585C482.1,256,512,285.9,512,322.782l0,0v66.783H189.217l11.13-33.391
	c6.647-19.941,25.308-33.391,46.328-33.391h74.301c21.02,0,39.681-13.45,46.328-33.391l0,0C373.951,269.45,392.613,256,413.633,256z
	"/>
<path style="fill:#BCAE8A;" d="M348.295,314.42c-14.294,26.872-34.875,49.891-59.789,67.088v13.252h-96.601v-13.253l8.444-25.333
	c6.647-19.941,25.308-33.391,46.328-33.391h74.3C330.96,322.782,340.409,319.743,348.295,314.42z"/>
<g>
	<path style="fill:#FFED8F;" d="M471.471,128.337l-9.838,9.838l5.228,5.228c3.26,3.26,3.26,8.546,0,11.805
		c-1.629,1.63-3.767,2.445-5.902,2.445c-2.136,0-4.273-0.815-5.902-2.445l-5.228-5.228l-9.838,9.838
		c-1.629,1.63-3.767,2.445-5.902,2.445c-2.136,0-4.273-0.815-5.902-2.445c-3.26-3.26-3.26-8.546,0-11.805l9.838-9.838l-5.228-5.228
		c-3.26-3.26-3.26-8.546,0-11.805c3.26-3.26,8.546-3.26,11.805,0l5.228,5.228l9.838-9.838c3.26-3.26,8.546-3.26,11.805,0
		C474.732,119.791,474.732,125.078,471.471,128.337z"/>
	<path style="fill:#FFED8F;" d="M44.522,33.391c0,12.295-9.966,22.261-22.261,22.261S0,45.686,0,33.391S9.966,11.13,22.261,11.13
		S44.522,21.096,44.522,33.391z"/>
</g>
<g>
	<path style="fill:#FFCD69;" d="M277.643,45.731c-1.63,1.629-3.767,2.445-5.902,2.445s-4.273-0.815-5.902-2.445L256,35.893
		l-5.228,5.228c-1.63,1.629-3.767,2.445-5.902,2.445s-4.273-0.815-5.902-2.445c-3.26-3.26-3.26-8.546,0-11.805l5.228-5.228
		l-9.838-9.838c-3.26-3.26-3.26-8.546,0-11.805c3.26-3.26,8.546-3.26,11.805,0L256,12.282l5.228-5.228
		c3.26-3.26,8.546-3.26,11.805,0c3.26,3.26,3.26,8.546,0,11.805l-5.228,5.228l9.838,9.838
		C280.904,37.186,280.904,42.471,277.643,45.731z"/>
	<path style="fill:#FFCD69;" d="M122.435,23.93v1.113c0,4.61-3.738,8.348-8.348,8.348s-8.348-3.738-8.348-8.348V23.93
		c0-4.61,3.738-8.348,8.348-8.348S122.435,19.32,122.435,23.93z M486.957,208.139c-4.61,0-8.348,3.738-8.348,8.348v1.113
		c0,4.61,3.738,8.348,8.348,8.348c4.61,0,8.348-3.738,8.348-8.348v-1.113C495.304,211.877,491.567,208.139,486.957,208.139z"/>
</g>
<path style="fill:#C5EAD4;" d="M406.598,25.381l-77.913,77.913c-1.63,1.629-3.767,2.445-5.902,2.445s-4.273-0.815-5.902-2.445
	c-3.26-3.26-3.26-8.546,0-11.805l77.913-77.913c3.26-3.26,8.546-3.26,11.805,0C409.858,16.835,409.858,22.12,406.598,25.381z
	 M450.445,2.445l-77.913,77.913c-3.26,3.26-3.26,8.546,0,11.805c1.63,1.629,3.767,2.445,5.902,2.445
	c2.136,0,4.273-0.815,5.902-2.445L462.25,14.25c3.26-3.26,3.26-8.546,0-11.805C458.991-0.815,453.704-0.815,450.445,2.445z
	 M353.391,208.139c-4.61,0-8.348,3.738-8.348,8.348v1.113c0,4.61,3.738,8.348,8.348,8.348s8.348-3.738,8.348-8.348v-1.113
	C361.739,211.877,358.002,208.139,353.391,208.139z M486.957,46.191c-4.61,0-8.348,3.738-8.348,8.348v1.113
	c0,4.61,3.738,8.348,8.348,8.348c4.61,0,8.348-3.738,8.348-8.348v-1.113C495.304,49.929,491.567,46.191,486.957,46.191z"/>
<path style="fill:#FFCD69;" d="M300.522,133.565c0,12.295-9.966,22.261-22.261,22.261c-12.295,0-22.261-9.966-22.261-22.261
	c0-12.295,9.966-22.261,22.261-22.261C290.556,111.304,300.522,121.27,300.522,133.565z M83.478,189.217h-11.13
	c-9.22,0-16.696,7.475-16.696,16.696c0,9.22,7.475,16.696,16.696,16.696h11.13c9.22,0,16.696-7.475,16.696-16.696
	C100.174,196.692,92.699,189.217,83.478,189.217z M172.522,267.13H139.13c-9.22,0-16.696,7.475-16.696,16.696
	c0,9.22,7.475,16.696,16.696,16.696h33.391c9.22,0,16.696-7.475,16.696-16.696C189.217,274.605,181.742,267.13,172.522,267.13z"/>
<path style="fill:#5F6666;" d="M512,389.565c0,4.61-3.738,8.348-8.348,8.348H8.348c-4.61,0-8.348-3.738-8.348-8.348
	s3.738-8.348,8.348-8.348h495.304C508.262,381.217,512,384.955,512,389.565z"/>
</svg>