<?xml version="1.0" encoding="iso-8859-1"?>
<!-- Uploaded to: SVG Repo, www.svgrepo.com, Generator: SVG Repo Mixer Tools -->
<svg height="800px" width="800px" version="1.1" id="Layer_1" xmlns="http://www.w3.org/2000/svg" xmlns:xlink="http://www.w3.org/1999/xlink" 
	 viewBox="0 0 512 512" xml:space="preserve">
<g>
	<path style="fill:#ECF0F1;" d="M512,256c0,141.383-114.617,256-256,256S0,397.383,0,256S114.617,0,256,0S512,114.617,512,256"/>
	<g>
		<polygon style="fill:#805333;" points="353.103,229.517 306.211,281.618 361.931,388.414 467.862,388.414 		"/>
		<polygon style="fill:#805333;" points="158.897,229.517 44.138,388.414 150.069,388.414 205.789,281.618 		"/>
	</g>
	<g>
		<path style="fill:#285680;" d="M141.241,176.552c-4.882,0-8.828-3.955-8.828-8.828c0-34.154,18.812-52.966,52.966-52.966
			c4.882,0,8.828,3.955,8.828,8.828s-3.946,8.828-8.828,8.828c-24.426,0-35.31,10.884-35.31,35.31
			C150.069,172.597,146.123,176.552,141.241,176.552"/>
		<path style="fill:#285680;" d="M141.241,176.552c-4.882,0-8.828-3.955-8.828-8.828c0-19.553-6.93-26.483-26.483-26.483
			c-4.882,0-8.828-3.955-8.828-8.828c0-4.873,3.946-8.828,8.828-8.828c29.281,0,44.138,14.848,44.138,44.138
			C150.069,172.597,146.123,176.552,141.241,176.552"/>
	</g>
	<path style="fill:#95A5A5;" d="M335.448,79.448c14.627,0,26.483,11.855,26.483,26.483s-11.855,26.483-26.483,26.483h-17.655
		c-9.754,0-17.655-7.901-17.655-17.655c-9.754,0-17.655-7.901-17.655-17.655s7.901-17.655,17.655-17.655
		c0-9.754,7.901-17.655,17.655-17.655C327.548,61.793,335.448,69.694,335.448,79.448"/>
	<g>
		<polygon style="fill:#358E4C;" points="222.708,249.19 255.996,282.479 290.609,251.715 255.996,185.376 		"/>
		<path style="fill:#358E4C;" d="M36.871,388.414C81.733,462.486,163.079,512,255.998,512s174.274-49.514,219.127-123.586H36.871z"
			/>
	</g>
	<polygon style="fill:#603B22;" points="290.611,251.717 255.998,282.481 222.709,249.192 150.067,388.412 361.929,388.412 	"/>
</g>
</svg>