<?xml version="1.0" encoding="iso-8859-1"?>
<!-- Uploaded to: SVG Repo, www.svgrepo.com, Generator: SVG Repo Mixer Tools -->
<svg height="800px" width="800px" version="1.1" id="Layer_1" xmlns="http://www.w3.org/2000/svg" xmlns:xlink="http://www.w3.org/1999/xlink" 
	 viewBox="0 0 512.008 512.008" xml:space="preserve">
<g transform="translate(0 -1)">
	<path style="fill:#F0C419;" d="M332.803,120.482c0,0,32.222,65.604,59.733,34.133c0,0,8.986,50.065,25.626,107.836
		c48.887-11.58,85.308-55.407,85.308-107.836c0-61.269-49.664-110.933-110.933-110.933c-57.02,0-103.936,43.034-110.174,98.381
		C299.72,150.041,317.955,147.541,332.803,120.482"/>
	<g>
		<path style="fill:#285680;" d="M25.603,470.349c-14.114,0-25.6-11.494-25.6-25.617c0-11.537,7.663-21.316,18.176-24.508
			c3.2-10.487,12.962-18.142,24.491-18.142c11.418,0,21.12,7.518,24.405,17.86c8.107,1.783,15.138,6.451,19.968,12.877
			c4.275-3.226,9.6-5.137,15.36-5.137c14.114,0,25.6,11.486,25.6,25.6c0,4.71-3.823,8.533-8.533,8.533
			c-4.71,0-8.533-3.823-8.533-8.533c0-4.702-3.831-8.533-8.533-8.533s-8.533,3.831-8.533,8.533c0,4.71-3.823,8.533-8.533,8.533
			c-4.71,0-8.533-3.823-8.533-8.533c0-9.412-7.654-17.067-17.067-17.067c-4.71,0-8.533-3.823-8.533-8.533
			c0-4.702-3.831-8.533-8.533-8.533s-8.533,3.831-8.533,8.533c0,4.855-4.122,8.687-8.96,8.525c-4.506,0.222-8.107,3.959-8.107,8.525
			c0,4.71,3.831,8.55,8.533,8.55c4.71,0,8.533,3.823,8.533,8.533S30.314,470.349,25.603,470.349"/>
		<path style="fill:#285680;" d="M153.603,359.415c-4.71,0-8.533-3.823-8.533-8.533c0-4.702-3.831-8.533-8.533-8.533
			s-8.533,3.831-8.533,8.533c0,4.71-3.823,8.533-8.533,8.533c-4.71,0-8.533-3.823-8.533-8.533c0-9.412-7.654-17.067-17.067-17.067
			c-4.71,0-8.533-3.823-8.533-8.533c0-4.702-3.831-8.533-8.533-8.533c-4.702,0-8.533,3.831-8.533,8.533
			c0,4.71-3.823,8.533-8.533,8.533s-8.533-3.823-8.533-8.533v-0.009c0.009-14.114,11.486-25.591,25.6-25.591
			c11.418,0,21.12,7.518,24.405,17.86c8.107,1.783,15.138,6.451,19.968,12.877c4.275-3.226,9.6-5.137,15.36-5.137
			c14.114,0,25.6,11.486,25.6,25.6C162.137,355.592,158.314,359.415,153.603,359.415"/>
		<path style="fill:#285680;" d="M401.07,410.615c-4.71,0-8.533-3.823-8.533-8.533c0-4.702-3.831-8.533-8.533-8.533
			c-4.702,0-8.533,3.831-8.533,8.533c0,4.71-3.823,8.533-8.533,8.533s-8.533-3.823-8.533-8.533c0-9.412-7.654-17.067-17.067-17.067
			c-4.71,0-8.533-3.823-8.533-8.533c0-4.702-3.831-8.533-8.533-8.533c-4.702,0-8.533,3.831-8.533,8.533
			c0,4.71-3.823,8.533-8.533,8.533s-8.533-3.823-8.533-8.533v-0.009c0.009-14.114,11.486-25.591,25.6-25.591
			c11.418,0,21.12,7.518,24.405,17.86c8.107,1.783,15.138,6.451,19.968,12.877c4.275-3.226,9.6-5.137,15.36-5.137
			c14.114,0,25.6,11.486,25.6,25.6C409.603,406.792,405.78,410.615,401.07,410.615"/>
		<path style="fill:#285680;" d="M264.537,436.215c-4.71,0-8.533-3.823-8.533-8.533c0-4.702-3.831-8.533-8.533-8.533
			s-8.533,3.831-8.533,8.533c0,4.71-3.823,8.533-8.533,8.533s-8.533-3.823-8.533-8.533c0-9.412-7.654-17.067-17.067-17.067
			c-4.71,0-8.533-3.823-8.533-8.533c0-4.702-3.831-8.533-8.533-8.533s-8.533,3.831-8.533,8.533c0,4.71-3.823,8.533-8.533,8.533
			s-8.533-3.823-8.533-8.533v-0.009c0.009-14.114,11.486-25.591,25.6-25.591c11.418,0,21.12,7.518,24.405,17.86
			c8.107,1.783,15.138,6.451,19.968,12.877c4.275-3.226,9.6-5.137,15.36-5.137c14.114,0,25.6,11.486,25.6,25.6
			C273.07,432.392,269.247,436.215,264.537,436.215"/>
	</g>
	<path style="fill:#42A557;" d="M507.929,420.403c-65.545-40.132-106.59-265.028-106.991-267.298
		c-0.58-3.226-2.961-5.837-6.118-6.716c-3.157-0.87-6.545,0.145-8.704,2.611c-4.924,5.623-8.695,5.862-11.102,5.538
		c-12.39-1.621-27.767-24.064-34.551-37.82c-1.408-2.859-4.284-4.693-7.467-4.762c-3.166-0.043-6.144,1.63-7.671,4.42
		c-7.757,14.131-16.341,21.052-26.249,21.171c-0.094,0.009-0.179,0.009-0.273,0.009c-26.581,0-59.196-46.174-69.547-64.017
		c-1.835-3.157-5.461-4.762-9.02-4.079c-3.567,0.7-6.306,3.593-6.818,7.194c-0.179,1.263-4.753,30.891-36.702,40.661
		c-4.514,1.382-7.049,6.153-5.666,10.658c1.374,4.506,6.135,7.031,10.658,5.666c0.546-0.171,1.007-0.401,1.545-0.58l21.555,21.555
		c12.911,11.025,17.092,28.809,32.99,34.773l14.182,5.316c19.524,7.322,37.248,18.739,51.994,33.485l11.759,11.759
		c24.721,0,80.777,72.713,108.1,68.949c18.884,54.477,44.16,107.068,75.179,126.063c1.391,0.853,2.927,1.254,4.454,1.254
		c2.867,0,5.675-1.451,7.287-4.079C513.211,428.117,511.948,422.869,507.929,420.403"/>
	<path style="fill:#ECF0F1;" d="M403.345,362.461c-30.908,0-60.996-32.981-76.271-52.77c-8.132,17.28-27.29,41.19-71.074,41.19
		c-4.011,0-7.484-2.799-8.337-6.724c-1.229-5.666-2.509-10.172-3.661-13.645c-6.135,3.328-11.913,3.652-16.29,3.081
		c-17.331-2.278-32.171-21.35-40.542-34.654c-9.353,11.691-20.403,17.664-32.973,17.809c-30.729,0.631-60.134-35.661-75.051-57.301
		c-8.38,17.195-27.631,40.235-70.613,40.235c-4.71,0-8.533-3.823-8.533-8.533v-66.304c0-3.541,2.185-6.673,5.41-7.945
		c2.227-1.271,28.945-18.91,110.686-168.772c1.468-2.688,4.267-4.386,7.339-4.437c3.328-0.256,5.931,1.536,7.492,4.164
		c0.708,1.186,71.979,119.663,176.802,178.193c7.364,4.113,16,9.097,24.175,14.865l112.606,79.437c3.55,2.5,4.651,7.27,2.56,11.076
		c-10.94,19.934-25.105,30.362-42.103,31.01C404.429,362.452,403.883,362.461,403.345,362.461"/>
	<path style="fill:#95A5A5;" d="M80.911,127.174h0.085H80.911z M128.007,188.75c-0.085,0-0.171,0-0.256-0.009
		c-2.347-0.06-4.565-1.101-6.127-2.859l-47.113-53.001c-2.022-2.287-2.679-5.478-1.715-8.371c0.196-0.589,0.469-1.186,0.802-1.724
		c13.09-21.837,27.392-46.959,42.505-74.658c1.459-2.697,4.267-4.386,7.33-4.446c2.987-0.256,5.922,1.536,7.492,4.173
		c0.205,0.341,20.685,34.551,55.433,74.88c2.918,3.379,2.731,8.448-0.427,11.605L134.04,186.25
		C132.436,187.854,130.26,188.75,128.007,188.75L128.007,188.75z"/>
</g>
</svg>