<?xml version="1.0" encoding="iso-8859-1"?>
<!-- Uploaded to: SVG Repo, www.svgrepo.com, Generator: SVG Repo Mixer Tools -->
<svg height="800px" width="800px" version="1.1" id="Layer_1" xmlns="http://www.w3.org/2000/svg" xmlns:xlink="http://www.w3.org/1999/xlink" 
	 viewBox="0 0 512.011 512.011" xml:space="preserve">
<g transform="translate(-1)">
	<g>
		<path style="fill:#F29C1F;" d="M257.005,128.005c-4.719,0-8.533-3.823-8.533-8.533v-51.2c0-4.71,3.814-8.533,8.533-8.533
			c4.719,0,8.533,3.823,8.533,8.533v51.2C265.539,124.183,261.724,128.005,257.005,128.005"/>
		<path style="fill:#F29C1F;" d="M365.613,172.993c-2.185,0-4.369-0.836-6.033-2.5c-3.337-3.337-3.337-8.738,0-12.066l24.141-24.132
			c3.337-3.337,8.738-3.337,12.066,0c3.337,3.328,3.337,8.738,0,12.066l-24.141,24.132
			C369.983,172.157,367.798,172.993,365.613,172.993"/>
		<path style="fill:#F29C1F;" d="M413.889,124.722c-2.185,0-4.369-0.836-6.033-2.5c-3.337-3.337-3.337-8.73,0-12.066l6.033-6.033
			c3.337-3.337,8.73-3.337,12.066,0c3.337,3.337,3.337,8.73,0,12.066l-6.033,6.033C418.258,123.886,416.074,124.722,413.889,124.722
			"/>
		<path style="fill:#F29C1F;" d="M257.005,42.672c-4.719,0-8.533-3.823-8.533-8.533v-8.533c0-4.71,3.814-8.533,8.533-8.533
			c4.719,0,8.533,3.823,8.533,8.533v8.533C265.539,38.849,261.724,42.672,257.005,42.672"/>
		<path style="fill:#F29C1F;" d="M148.397,172.993c-2.185,0-4.369-0.836-6.033-2.5l-24.141-24.132
			c-3.337-3.328-3.337-8.738,0-12.066c3.328-3.337,8.73-3.337,12.066,0l24.141,24.132c3.337,3.328,3.337,8.73,0,12.066
			C152.767,172.157,150.582,172.993,148.397,172.993"/>
		<path style="fill:#F29C1F;" d="M100.122,124.722c-2.185,0-4.369-0.836-6.033-2.5l-6.033-6.033c-3.337-3.337-3.337-8.73,0-12.066
			c3.337-3.337,8.73-3.337,12.066,0l6.033,6.033c3.337,3.337,3.337,8.73,0,12.066C104.491,123.886,102.306,124.722,100.122,124.722"
			/>
	</g>
	<path style="fill:#F0C419;" d="M103.405,273.072c0-84.83,68.77-153.6,153.6-153.6s153.6,68.77,153.6,153.6H103.405z"/>
	<path style="fill:#4482C3;" d="M504.472,494.939H9.539c-4.719,0-8.533-3.823-8.533-8.533V273.072c0-4.71,3.814-8.533,8.533-8.533
		h494.933c4.719,0,8.533,3.823,8.533,8.533v213.333C513.005,491.116,509.191,494.939,504.472,494.939"/>
	<g>
		<path style="fill:#285680;" d="M504.464,324.268c-1.28,0-2.586-0.29-3.806-0.896l-18.807-9.412
			c-7.569-3.78-16.401-4.147-24.252-1.007l-10.854,4.343c-12.365,4.949-26.308,4.369-38.212-1.587l-1.758-0.887
			c-4.207-2.116-5.914-7.245-3.797-11.452c2.116-4.207,7.228-5.922,11.46-3.797l1.741,0.87c7.526,3.772,16.358,4.147,24.235,1.007
			l10.854-4.343c12.365-4.949,26.308-4.369,38.212,1.587l18.807,9.404c4.215,2.116,5.931,7.236,3.823,11.452
			C510.608,322.544,507.595,324.268,504.464,324.268"/>
		<path style="fill:#285680;" d="M291.13,319.739c-7.177,0-14.345-1.63-20.873-4.898c-8.303-4.156-18.219-4.156-26.505-0.009
			c-4.215,2.108-9.335,0.401-11.452-3.814c-2.108-4.215-0.393-9.344,3.823-11.452c13.056-6.528,28.681-6.537,41.754,0
			c8.303,4.156,18.219,4.156,26.505,0.009c13.082-6.537,28.689-6.545,41.771-0.009c4.215,2.099,5.931,7.228,3.823,11.443
			c-2.116,4.215-7.236,5.931-11.452,3.823c-8.303-4.147-18.21-4.156-26.496,0C305.483,318.101,298.307,319.739,291.13,319.739"/>
		<path style="fill:#285680;" d="M9.539,324.272c-3.379,0-6.588-2.031-7.927-5.367c-1.749-4.378,0.384-9.344,4.762-11.093
			l26.761-10.701c12.356-4.949,26.308-4.378,38.212,1.587l1.741,0.87c8.303,4.147,18.21,4.156,26.496,0
			c13.09-6.545,28.698-6.528,41.771,0c8.303,4.147,18.21,4.147,26.496,0c4.224-2.099,9.344-0.393,11.46,3.814
			c2.108,4.215,0.401,9.335-3.814,11.452c-13.09,6.537-28.698,6.537-41.771,0c-8.303-4.147-18.21-4.156-26.496,0
			c-13.09,6.537-28.698,6.537-41.771,0l-1.741-0.87c-7.569-3.78-16.41-4.156-24.252-1.007l-26.761,10.701
			C11.672,324.076,10.597,324.272,9.539,324.272"/>
		<path style="fill:#285680;" d="M429.414,371.83c-7.177,0-14.336-1.647-20.881-4.924l-1.758-0.887
			c-8.61-4.318-18.569-3.746-27.273,0.401c-9.643,4.591-20.591,5.683-30.848,3.277c-5.436-1.28-8.354-7.211-5.854-12.203
			c1.818-3.644,5.905-5.299,9.873-4.386c6.468,1.502,13.372,0.811,19.439-2.074c13.107-6.238,28.006-7.458,40.969-0.947l3.029,1.519
			c7.578,3.814,16.427,4.19,24.303,1.041l10.854-4.335c4.326-1.758,9.335,0.367,11.085,4.745c1.749,4.378-0.384,9.344-4.753,11.093
			l-10.854,4.343C441.181,370.721,435.285,371.83,429.414,371.83"/>
		<path style="fill:#285680;" d="M222.872,370.939c-7.168,0-14.336-1.63-20.873-4.898c-8.32-4.164-18.219-4.164-26.505-0.009
			c-13.09,6.537-28.698,6.537-41.771,0c-4.215-2.108-5.931-7.228-3.823-11.452c2.125-4.215,7.236-5.914,11.452-3.814
			c8.303,4.156,18.21,4.147,26.496,0.009c13.073-6.545,28.689-6.545,41.762-0.009c8.311,4.156,18.202,4.156,26.513,0
			c4.215-2.099,9.335-0.401,11.452,3.814c2.108,4.224,0.393,9.344-3.823,11.452C237.217,369.301,230.049,370.939,222.872,370.939"/>
		<path style="fill:#285680;" d="M9.539,375.472c-3.379,0-6.588-2.031-7.927-5.367c-1.749-4.378,0.384-9.344,4.762-11.093
			l26.761-10.701c12.356-4.949,26.308-4.378,38.212,1.587l1.741,0.87c4.215,2.108,5.931,7.236,3.823,11.452
			c-2.116,4.215-7.245,5.922-11.452,3.814l-1.741-0.87c-7.569-3.78-16.41-4.156-24.252-1.007l-26.761,10.701
			C11.672,375.276,10.597,375.472,9.539,375.472"/>
		<path style="fill:#285680;" d="M504.464,426.668c-1.28,0-2.586-0.29-3.806-0.896l-18.807-9.412
			c-7.569-3.78-16.401-4.156-24.252-1.007l-10.854,4.343c-12.365,4.949-26.308,4.369-38.212-1.587l-1.758-0.887
			c-4.207-2.116-5.914-7.245-3.797-11.452c2.116-4.207,7.228-5.914,11.46-3.797l1.741,0.87c7.526,3.78,16.358,4.147,24.235,1.007
			l10.854-4.343c12.365-4.949,26.308-4.369,38.212,1.587l18.807,9.404c4.215,2.116,5.931,7.236,3.823,11.452
			C510.608,424.944,507.595,426.668,504.464,426.668"/>
		<path style="fill:#285680;" d="M291.13,422.139c-7.177,0-14.345-1.63-20.873-4.898c-8.303-4.156-18.219-4.156-26.505-0.009
			c-4.215,2.116-9.335,0.41-11.452-3.814c-2.108-4.215-0.393-9.344,3.823-11.452c13.056-6.528,28.681-6.537,41.754,0
			c8.303,4.156,18.219,4.156,26.505,0.009c4.215-2.116,9.353-0.41,11.46,3.806c2.108,4.224,0.401,9.344-3.814,11.452
			C305.483,420.501,298.307,422.139,291.13,422.139"/>
		<path style="fill:#285680;" d="M86.339,422.139c-7.177,0-14.345-1.638-20.881-4.907l-1.741-0.87
			c-7.569-3.789-16.41-4.164-24.252-1.007c-4.343,1.724-9.344-0.375-11.093-4.762c-1.749-4.369,0.384-9.335,4.762-11.085
			c12.356-4.949,26.308-4.378,38.212,1.587l1.741,0.87c8.303,4.156,18.21,4.156,26.496,0.009c13.09-6.545,28.698-6.537,41.771-0.009
			c4.215,2.108,5.931,7.236,3.823,11.452c-2.125,4.224-7.236,5.931-11.452,3.814c-8.303-4.147-18.21-4.156-26.496,0
			C100.692,420.501,93.507,422.139,86.339,422.139"/>
		<path style="fill:#285680;" d="M504.464,477.868c-1.28,0-2.586-0.29-3.806-0.896l-18.807-9.412
			c-7.569-3.789-16.401-4.156-24.252-1.007l-10.854,4.343c-12.365,4.949-26.308,4.369-38.212-1.587
			c-4.215-2.108-5.931-7.236-3.814-11.452c2.116-4.215,7.228-5.931,11.443-3.814c7.561,3.772,16.392,4.147,24.252,1.007
			l10.854-4.343c12.365-4.949,26.308-4.369,38.212,1.587l18.807,9.404c4.215,2.116,5.931,7.236,3.823,11.452
			C510.608,476.144,507.595,477.868,504.464,477.868"/>
		<path style="fill:#285680;" d="M291.13,473.338c-7.177,0-14.345-1.63-20.873-4.898c-4.215-2.108-5.931-7.236-3.823-11.452
			c2.116-4.224,7.245-5.922,11.443-3.823c8.303,4.156,18.219,4.156,26.505,0.009c13.082-6.537,28.689-6.545,41.771-0.009
			c4.215,2.099,5.931,7.228,3.823,11.443c-2.116,4.224-7.236,5.931-11.452,3.823c-8.303-4.147-18.21-4.156-26.496,0
			C305.483,471.7,298.307,473.338,291.13,473.338"/>
		<path style="fill:#285680;" d="M154.597,473.335c-7.168,0-14.345-1.63-20.873-4.898c-4.215-2.108-5.931-7.236-3.823-11.452
			c2.116-4.215,7.236-5.922,11.452-3.814c8.303,4.147,18.21,4.147,26.496,0c13.073-6.545,28.689-6.545,41.762-0.009
			c4.215,2.108,5.939,7.236,3.831,11.46c-2.125,4.215-7.236,5.922-11.443,3.814c-8.32-4.156-18.219-4.156-26.505-0.009
			C168.95,471.705,161.773,473.335,154.597,473.335"/>
		<path style="fill:#285680;" d="M9.539,477.872c-3.379,0-6.588-2.031-7.927-5.367c-1.749-4.378,0.384-9.344,4.762-11.093
			l26.761-10.701c12.356-4.949,26.308-4.378,38.212,1.587l1.741,0.87c4.215,2.108,5.931,7.236,3.823,11.452
			c-2.116,4.215-7.245,5.922-11.452,3.814l-1.741-0.87c-7.569-3.789-16.41-4.156-24.252-1.007l-26.761,10.701
			C11.672,477.676,10.597,477.872,9.539,477.872"/>
	</g>
</g>
</svg>