<?xml version="1.0" encoding="utf-8"?>
<!-- Uploaded to: SVG Repo, www.svgrepo.com, Generator: SVG Repo Mixer Tools -->
<svg width="800px" height="800px" viewBox="0 0 1024 1024" class="icon"  version="1.1" xmlns="http://www.w3.org/2000/svg"><path d="M272 208c0 224 56 184 56 320 0 48-16 80-16 144s48 144 56 272h96l48-632 48 632h96c8-128 56-208 56-272s-16-96-16-144c0-136 56-96 56-320V80H272z" fill="#FC9C5E" /><path d="M752 201.36C621.76 309.84 664.8 565.2 547.28 776.64L560 944h96c8-128 56-208 56-272s-16-96-16-144c0-136 56-96 56-320zM272 201.36c130.24 108.48 87.2 363.84 204.72 575.28L464 944H368c-8-128-56-208-56-272s16-96 16-144c0-136-56-96-56-320z" fill="#CB525F" /><path d="M272 80h480v48H272z" fill="#FFFFFF" /></svg>