<?xml version="1.0" encoding="iso-8859-1"?>
<!-- Uploaded to: SVG Repo, www.svgrepo.com, Generator: SVG Repo Mixer Tools -->
<svg height="800px" width="800px" version="1.1" id="Layer_1" xmlns="http://www.w3.org/2000/svg" xmlns:xlink="http://www.w3.org/1999/xlink" 
	 viewBox="0 0 512 512" xml:space="preserve">
<path style="fill:#A9D5BB;" d="M445.217,489.739H77.913c-24.588,0-44.522-19.934-44.522-44.522V66.783
	c0-24.588,19.933-44.522,44.522-44.522h367.304c24.588,0,44.522,19.933,44.522,44.522v378.435
	C489.739,469.806,469.806,489.739,445.217,489.739z"/>
<path style="fill:#C5EAD4;" d="M389.565,44.522L389.565,44.522c0,12.295-9.966,22.261-22.261,22.261H244.87
	c-12.295,0-22.261-9.966-22.261-22.261h-66.783c-12.295,0-22.261-9.966-22.261-22.261l0,0C133.565,9.966,143.531,0,155.826,0H256
	c12.295,0,22.261,9.966,22.261,22.261l0,0h89.043C379.599,22.261,389.565,32.227,389.565,44.522z"/>
<path style="fill:#74843A;" d="M500.87,317.217V512h-89.043h-33.391h-55.652h-33.391h-66.783h-22.261h-66.783h-33.391H11.13V283.826
	c0-33.81,27.408-61.217,61.217-61.217l0,0c10.024,0,19.475,2.424,27.826,6.695v-34.521c0-33.81,27.408-61.217,61.217-61.217l0,0
	c33.81,0,61.217,27.408,61.217,61.217v41.819c10.584-8.742,24.157-13.993,38.957-13.993l0,0c11.309,0,21.892,3.079,30.983,8.426
	c8.116-24.297,31.035-41.817,58.061-41.817l0,0c33.81,0,61.217,27.408,61.217,61.217v12.26c8.351-4.271,17.802-6.695,27.826-6.695
	l0,0C473.462,256,500.87,283.408,500.87,317.217z"/>
<path style="fill:#9FBA41;" d="M161.054,60.994l24.022,280.248c2.227,25.994-18.271,48.324-44.359,48.324H48.501
	c-26.089,0-46.588-22.33-44.359-48.324L28.163,60.994C31.121,26.496,59.985,0,94.609,0l0,0C129.232,0,158.097,26.496,161.054,60.994
	z"/>
<path style="fill:#A07040;" d="M102.957,102.957v400.696c0,4.61-3.738,8.348-8.348,8.348c-4.61,0-8.348-3.738-8.348-8.348V102.957
	c0-4.61,3.738-8.348,8.348-8.348C99.219,94.609,102.957,98.346,102.957,102.957z"/>
<path style="fill:#A0A092;" d="M175.304,414.609v89.043c0,4.61-3.738,8.348-8.348,8.348s-8.348-3.738-8.348-8.348v-89.043
	c0-4.61,3.738-8.348,8.348-8.348S175.304,409.998,175.304,414.609z M345.043,406.261c-4.61,0-8.348,3.738-8.348,8.348v89.043
	c0,4.61,3.738,8.348,8.348,8.348s8.348-3.738,8.348-8.348v-89.043C353.391,409.998,349.654,406.261,345.043,406.261z
	 M467.478,105.739h-66.783c-16.878,0-30.609,13.73-30.609,30.609v41.739c0,4.61,3.738,8.348,8.348,8.348
	c4.61,0,8.348-3.738,8.348-8.348v-41.739c0-7.672,6.241-13.913,13.913-13.913h25.043v370.087c0,4.61,3.738,8.348,8.348,8.348
	s8.348-3.738,8.348-8.348V122.435h25.043c7.672,0,13.913,6.241,13.913,13.913v41.739c0,4.61,3.738,8.348,8.348,8.348
	s8.348-3.738,8.348-8.348v-41.739C498.087,119.47,484.356,105.739,467.478,105.739z"/>
<path style="fill:#FFED8F;" d="M512,189.217L512,189.217c0,12.295-9.966,22.261-22.261,22.261s-22.261-9.966-22.261-22.261l0,0
	c0-12.295,9.966-22.261,22.261-22.261S512,176.923,512,189.217z M378.435,166.957c-12.295,0-22.261,9.966-22.261,22.261l0,0
	c0,12.295,9.966,22.261,22.261,22.261c12.295,0,22.261-9.966,22.261-22.261l0,0C400.696,176.923,390.729,166.957,378.435,166.957z"
	/>
<path style="fill:#DDB961;" d="M128,411.826v-44.522c0-6.147,4.983-11.13,11.13-11.13H372.87c6.147,0,11.13,4.983,11.13,11.13
	v44.522c0,6.147-4.983,11.13-11.13,11.13H139.13C132.983,422.957,128,417.973,128,411.826z M384,439.652H128
	c-4.61,0-8.348,3.738-8.348,8.348c0,4.61,3.738,8.348,8.348,8.348h256c4.61,0,8.348-3.738,8.348-8.348
	C392.348,443.39,388.61,439.652,384,439.652z"/>
<path style="fill:#606D11;" d="M512,503.652c0,4.61-3.738,8.348-8.348,8.348H8.348C3.738,512,0,508.262,0,503.652
	s3.738-8.348,8.348-8.348h495.304C508.262,495.304,512,499.042,512,503.652z"/>
</svg>