<?xml version="1.0" encoding="iso-8859-1"?>
<!-- Uploaded to: SVG Repo, www.svgrepo.com, Generator: SVG Repo Mixer Tools -->
<svg height="800px" width="800px" version="1.1" id="Layer_1" xmlns="http://www.w3.org/2000/svg" xmlns:xlink="http://www.w3.org/1999/xlink" 
	 viewBox="0 0 512 512" xml:space="preserve">
<path style="fill:#EAFFFF;" d="M445.217,489.739H66.783c-24.588,0-44.522-19.934-44.522-44.522V66.783
	c0-24.588,19.933-44.522,44.522-44.522h378.435c24.588,0,44.522,19.933,44.522,44.522v378.435
	C489.739,469.806,469.806,489.739,445.217,489.739z"/>
<path style="fill:#91C1A4;" d="M512,411.826v77.913c0,12.295-9.966,22.261-22.261,22.261H22.261C9.966,512,0,502.034,0,489.739
	v-77.913c0-12.295,9.966-22.261,22.261-22.261h467.478C502.034,389.565,512,399.531,512,411.826z"/>
<g>
	<path style="fill:#CEA455;" d="M108.522,233.739v66.783c0,3.133-1.729,5.859-4.281,7.287c0.599,1.151,0.942,2.457,0.942,3.843
		v111.304c0,4.61-3.738,8.348-8.348,8.348s-8.348-3.738-8.348-8.348V311.652c0-3.133,1.729-5.859,4.281-7.287
		c-0.599-1.151-0.942-2.457-0.942-3.843v-66.783c0-4.61,3.738-8.348,8.348-8.348C104.784,225.391,108.522,229.129,108.522,233.739z
		 M256,225.391c-4.61,0-8.348,3.738-8.348,8.348v66.783c0,4.61,3.738,8.348,8.348,8.348s8.348-3.738,8.348-8.348v-66.783
		C264.348,229.129,260.61,225.391,256,225.391z M389.565,114.087c-4.61,0-8.348,3.738-8.348,8.348v178.087
		c0,4.61,3.738,8.348,8.348,8.348c4.61,0,8.348-3.738,8.348-8.348V122.435C397.913,117.825,394.175,114.087,389.565,114.087z
		 M163.617,303.304c-4.61,0-8.348,3.738-8.348,8.348v111.304c0,4.61,3.738,8.348,8.348,8.348s8.348-3.738,8.348-8.348V311.652
		C171.965,307.042,168.228,303.304,163.617,303.304z M30.052,303.304c-4.61,0-8.348,3.738-8.348,8.348v111.304
		c0,4.61,3.738,8.348,8.348,8.348s8.348-3.738,8.348-8.348V311.652C38.4,307.042,34.662,303.304,30.052,303.304z M230.4,303.304
		c-4.61,0-8.348,3.738-8.348,8.348v111.304c0,4.61,3.738,8.348,8.348,8.348c4.61,0,8.348-3.738,8.348-8.348V311.652
		C238.748,307.042,235.01,303.304,230.4,303.304z M363.965,303.304c-4.61,0-8.348,3.738-8.348,8.348v111.304
		c0,4.61,3.738,8.348,8.348,8.348s8.348-3.738,8.348-8.348V311.652C372.313,307.042,368.575,303.304,363.965,303.304z
		 M297.183,303.304c-4.61,0-8.348,3.738-8.348,8.348v111.304c0,4.61,3.738,8.348,8.348,8.348s8.348-3.738,8.348-8.348V311.652
		C305.53,307.042,301.793,303.304,297.183,303.304z"/>
	<path style="fill:#CEA455;" d="M434.087,300.522L434.087,300.522c0,12.295-9.966,22.261-22.261,22.261H5.565
		c-3.073,0-5.565-2.492-5.565-5.565v-33.391c0-3.073,2.492-5.565,5.565-5.565h406.261
		C424.121,278.261,434.087,288.227,434.087,300.522z"/>
</g>
<path style="fill:#A07040;" d="M0,300.522h434.087c0,12.295-9.966,22.261-22.261,22.261H5.565c-3.073,0-5.565-2.492-5.565-5.565
	V300.522z"/>
<path style="fill:#C7D7D8;" d="M411.826,122.435c0,12.295-9.966,22.261-22.261,22.261c-12.295,0-22.261-9.966-22.261-22.261
	s9.966-22.261,22.261-22.261C401.86,100.174,411.826,110.14,411.826,122.435z"/>
<path style="fill:#EAFFFF;" d="M448,471.188c0,4.61-3.738,8.348-8.348,8.348h-244.87c-4.61,0-8.348-3.738-8.348-8.348
	s3.738-8.348,8.348-8.348h244.87C444.262,462.84,448,466.578,448,471.188z M128,462.84H61.217c-4.61,0-8.348,3.738-8.348,8.348
	s3.738,8.348,8.348,8.348H128c4.61,0,8.348-3.738,8.348-8.348S132.61,462.84,128,462.84z M414.609,430.377
	c0-4.61-3.738-8.348-8.348-8.348H16.696c-4.61,0-8.348,3.738-8.348,8.348c0,4.61,3.738,8.348,8.348,8.348h389.565
	C410.871,438.725,414.609,434.987,414.609,430.377z M495.304,422.029h-55.652c-4.61,0-8.348,3.738-8.348,8.348
	c0,4.61,3.738,8.348,8.348,8.348h55.652c4.61,0,8.348-3.738,8.348-8.348C503.652,425.767,499.915,422.029,495.304,422.029z"/>
<path style="fill:#FFFF81;" d="M189.217,94.609c0,52.251-42.358,94.609-94.609,94.609S0,146.859,0,94.609S42.358,0,94.609,0
	S189.217,42.358,189.217,94.609z"/>
<path style="fill:#FFF145;" d="M144.696,94.609c0,27.662-22.424,50.087-50.087,50.087s-50.087-22.424-50.087-50.087
	s22.424-50.087,50.087-50.087S144.696,66.946,144.696,94.609z"/>
<path style="fill:#C5EAD4;" d="M512,44.522L512,44.522c0,12.295-9.966,22.261-22.261,22.261h-55.652
	c-12.295,0-22.261-9.966-22.261-22.261l0,0c0-12.295,9.966-22.261,22.261-22.261h55.652C502.034,22.261,512,32.227,512,44.522z
	 M333.913,0H166.957c-12.295,0-22.261,9.966-22.261,22.261l0,0c0,12.295,9.966,22.261,22.261,22.261h166.957
	c12.295,0,22.261-9.966,22.261-22.261l0,0C356.174,9.966,346.208,0,333.913,0z"/>
</svg>