<?xml version="1.0" encoding="utf-8"?>
<!-- Uploaded to: SVG Repo, www.svgrepo.com, Generator: SVG Repo Mixer Tools -->
<svg width="800px" height="800px" viewBox="0 0 1024 1024" class="icon"  version="1.1" xmlns="http://www.w3.org/2000/svg"><path d="M112 371.84c-35.6 78.72-35.36 165.04-27.76 243.28-16 32 8 96.96 94.08 96.96h478.8c102 0 169.52 1.52 256-54.96S888.88 528 790.4 504c-87.04-21.2-243.12-90.88-321.6-139.28s-102-72.72-117.68-32S368 416 368 416s-25.76 24-112 24c-63.44 0-96-46.88-109.52-70a19.04 19.04 0 0 0-22.72-8.56 19.6 19.6 0 0 0-11.76 10.4z" fill="#9666C6" /><path d="M316 622.96c-106.16 4.88-156.56-4.72-232-13.36 0 1.76 0 3.6 0.48 5.44-16 32 8 96.96 94.16 96.96h478.48c102 0 169.52 1.52 256-54.96a75.76 75.76 0 0 0 25.92-25.92C662.56 697.2 440 617.36 316 622.96z" fill="#4EC67C" /><path d="M90.48 438.48c-12.56 57.52-11.52 116.16-6.4 171.2 62.08 7.04 107.2 14.8 180.4 14.64-18.4-84.96-84.24-142.64-174-185.84z" fill="#FDD54F" /><path d="M450.88 353.44c-64-40.64-85.28-58.16-99.68-21.04C335.52 372.8 368 416 368 416c0.4 30.56 40-52 82.88-62.56z" fill="#FFFFFF" /><path d="M938.8 631.12a1041.04 1041.04 0 0 1-326.32 22.48C608 592 647.04 599.12 736 608c80 8 160-8 186.32-38.32 19.52 19.52 27.92 40.88 16.48 61.44z" fill="#6C4C95" /></svg>