<?xml version="1.0" encoding="iso-8859-1"?>
<!-- Uploaded to: SVG Repo, www.svgrepo.com, Generator: SVG Repo Mixer Tools -->
<svg height="800px" width="800px" version="1.1" id="Layer_1" xmlns="http://www.w3.org/2000/svg" xmlns:xlink="http://www.w3.org/1999/xlink" 
	 viewBox="0 0 512 512" xml:space="preserve">
<path style="fill:#EAFFFF;" d="M445.217,500.87H66.783c-24.588,0-44.522-19.933-44.522-44.522V77.913
	c0-24.588,19.933-44.522,44.522-44.522h378.435c24.588,0,44.522,19.933,44.522,44.522v378.435
	C489.739,480.936,469.806,500.87,445.217,500.87z"/>
<path style="fill:#FFFF81;" d="M417.391,0C469.642,0,512,42.358,512,94.609s-42.358,94.609-94.609,94.609
	s-94.609-42.358-94.609-94.609S365.141,0,417.391,0z"/>
<path style="fill:#FFF145;" d="M417.391,44.522c27.662,0,50.087,22.424,50.087,50.087s-22.424,50.087-50.087,50.087
	c-27.662,0-50.087-22.424-50.087-50.087S389.729,44.522,417.391,44.522z"/>
<path style="fill:#C5EAD4;" d="M322.783,77.913H166.957c-12.295,0-22.261-9.966-22.261-22.261l0,0c0-4.059,1.104-7.854,3.002-11.13
	h-36.393c-12.295,0-22.261-9.966-22.261-22.261l0,0C89.043,9.966,99.01,0,111.304,0h89.043c12.295,0,22.261,9.966,22.261,22.261l0,0
	c0,4.059-1.104,7.854-3.002,11.13h103.176c12.295,0,22.261,9.966,22.261,22.261l0,0C345.043,67.947,335.077,77.913,322.783,77.913z"
	/>
<path style="fill:#727C7C;" d="M72.348,100.174c0,4.61-3.738,8.348-8.348,8.348c-10.74,0-19.478,8.739-19.478,19.478
	c0,4.61-3.738,8.348-8.348,8.348s-8.348-3.738-8.348-8.348c0-10.74-8.739-19.478-19.478-19.478c-4.61,0-8.348-3.738-8.348-8.348
	c0-4.61,3.738-8.348,8.348-8.348c11.176,0,21.186,5.096,27.826,13.084c6.64-7.988,16.65-13.084,27.826-13.084
	C68.61,91.826,72.348,95.564,72.348,100.174z"/>
<path style="fill:#FF7039;" d="M500.87,378.435V512h-89.043V378.621c0-86.163-69.849-156.012-156.012-156.012l0,0
	c-86.163,0-156.012,69.849-156.012,156.012V512H11.13V378.435c0-135.238,109.631-244.87,244.87-244.87l0,0
	C391.238,133.565,500.87,243.197,500.87,378.435z"/>
<path style="fill:#FFFF81;" d="M467.478,378.435V512h-66.783V378.435c0-79.913-64.782-144.696-144.696-144.696l0,0
	c-79.913,0-144.696,64.782-144.696,144.696V512H44.522V378.435c0-116.796,94.682-211.478,211.478-211.478l0,0
	C372.796,166.957,467.478,261.639,467.478,378.435z"/>
<path style="fill:#A9D5BB;" d="M434.087,378.435V512h-33.391V378.435c0-79.913-64.782-144.696-144.696-144.696l0,0
	c-79.913,0-144.696,64.782-144.696,144.696V512H77.913V378.435c0-98.354,79.732-178.087,178.087-178.087l0,0
	C354.355,200.348,434.087,280.08,434.087,378.435z"/>
<path style="fill:#7F932A;" d="M362.032,398.353c0,9.026-2.558,17.453-6.979,24.604h1.121v33.391H155.826v-11.13v-22.261v-24.604
	c0-25.883,20.982-46.865,46.865-46.865l0,0v-12.302c0-33.647,27.276-60.925,60.925-60.925l0,0c33.647,0,60.925,27.276,60.925,60.925
	v13.241C345.932,356.769,362.032,375.68,362.032,398.353L362.032,398.353z"/>
<path style="fill:#9FBA41;" d="M278.261,502.459v6.36H176.496h-63.603H11.13v-6.36c0-29.375,15.333-55.155,38.419-69.821
	c3.182-42.756,38.855-76.464,82.425-76.464l0,0c39.742,0,72.924,28.044,80.865,65.42
	C250.217,429.536,278.261,462.717,278.261,502.459z"/>
<path style="fill:#BBF260;" d="M121.941,485.074L121.941,485.074c89.016-19.075,175.262-49.329,256.688-90.042l0,0
	c7.193-3.596,15.123-5.468,23.164-5.468l0,0c19.908,0,38.226,10.874,47.76,28.351L500.87,512H100.174l0,0
	C100.174,499.015,109.244,487.796,121.941,485.074z"/>
<path style="fill:#9FBA41;" d="M512,503.652c0,4.61-3.738,8.348-8.348,8.348H8.348C3.738,512,0,508.262,0,503.652
	s3.738-8.348,8.348-8.348h495.304C508.262,495.304,512,499.042,512,503.652z"/>
</svg>