<?xml version="1.0" encoding="iso-8859-1"?>
<!-- Uploaded to: SVG Repo, www.svgrepo.com, Generator: SVG Repo Mixer Tools -->
<svg height="800px" width="800px" version="1.1" id="Layer_1" xmlns="http://www.w3.org/2000/svg" xmlns:xlink="http://www.w3.org/1999/xlink" 
	 viewBox="0 0 512.001 512.001" xml:space="preserve">
<path style="fill:#EAFFFF;" d="M445.218,489.74H66.783c-24.588,0-44.522-19.933-44.522-44.522V66.783
	c0-24.588,19.933-44.522,44.522-44.522h378.435c24.588,0,44.522,19.933,44.522,44.522v378.435
	C489.74,469.806,469.806,489.74,445.218,489.74z"/>
<path style="fill:#FFED8F;" d="M50.468,445.218C18.969,407.546,0,359.035,0,306.087C0,186.217,97.174,89.044,217.044,89.044
	s217.043,97.173,217.043,217.043c0,52.947-18.968,101.458-50.468,139.13H50.468z"/>
<path style="fill:#FFCD69;" d="M342.994,306.087c0,69.56-56.39,125.95-125.95,125.95s-125.95-56.39-125.95-125.95
	s56.39-125.95,125.95-125.95S342.994,236.528,342.994,306.087z"/>
<path style="fill:#C5EAD4;" d="M512,44.522L512,44.522c0,12.295-9.966,22.261-22.261,22.261h-77.913
	c-12.295,0-22.261-9.966-22.261-22.261h-44.522c-12.295,0-22.261-9.966-22.261-22.261l0,0C322.783,9.967,332.749,0,345.044,0h77.913
	c12.295,0,22.261,9.966,22.261,22.261l0,0h44.522C502.034,22.261,512,32.228,512,44.522z"/>
<path style="fill:#727C7C;" d="M111.305,19.479c0,4.61-3.738,8.348-8.348,8.348c-10.74,0-19.478,8.739-19.478,19.478
	c0,4.61-3.738,8.348-8.348,8.348c-4.61,0-8.348-3.738-8.348-8.348c0-10.74-8.739-19.478-19.478-19.478
	c-4.61,0-8.348-3.738-8.348-8.348s3.738-8.348,8.348-8.348c11.176,0,21.186,5.096,27.826,13.084
	c6.64-7.988,16.65-13.084,27.826-13.084C107.567,11.131,111.305,14.869,111.305,19.479z M503.653,133.566
	c-11.176,0-21.186,5.096-27.826,13.084c-6.64-7.988-16.65-13.084-27.826-13.084c-4.61,0-8.348,3.738-8.348,8.348
	c0,4.61,3.738,8.348,8.348,8.348c10.74,0,19.478,8.739,19.478,19.478c0,4.61,3.738,8.348,8.348,8.348
	c4.61,0,8.348-3.738,8.348-8.348c0-10.74,8.739-19.478,19.478-19.478c4.61,0,8.348-3.738,8.348-8.348
	C512,137.303,508.263,133.566,503.653,133.566z"/>
<path style="fill:#8E9A9B;" d="M411.827,512H100.174V389.566h311.652V512z"/>
<path style="fill:#C7D7D8;" d="M264.348,500.87V512h-16.696v-11.13c0-4.61,3.738-8.348,8.348-8.348S264.348,496.26,264.348,500.87z
	 M247.653,389.566v22.261c0,4.61,3.738,8.348,8.348,8.348s8.348-3.738,8.348-8.348v-22.261H247.653z M256,436.87
	c-4.61,0-8.348,3.738-8.348,8.348v22.261c0,4.61,3.738,8.348,8.348,8.348s8.348-3.738,8.348-8.348v-22.261
	C264.348,440.608,260.611,436.87,256,436.87z"/>
<path style="fill:#8E9A9B;" d="M397.914,289.392v100.174c0,4.61-3.738,8.348-8.348,8.348c-4.61,0-8.348-3.738-8.348-8.348V289.392
	c0-4.61,3.738-8.348,8.348-8.348C394.176,281.044,397.914,284.782,397.914,289.392z M478.609,281.044
	c-4.61,0-8.348,3.738-8.348,8.348v100.174c0,4.61,3.738,8.348,8.348,8.348s8.348-3.738,8.348-8.348V289.392
	C486.957,284.782,483.219,281.044,478.609,281.044z"/>
<path style="fill:#F2F2E7;" d="M367.305,222.609H500.87c6.147,0,11.13,4.983,11.13,11.13v66.783c0,6.147-4.983,11.13-11.13,11.13
	H367.305c-6.147,0-11.13-4.983-11.13-11.13V233.74C356.174,227.592,361.157,222.609,367.305,222.609z"/>
<path style="fill:#B9BAA6;" d="M486.957,252.661c0,4.61-3.738,8.348-8.348,8.348h-89.043c-4.61,0-8.348-3.738-8.348-8.348
	c0-4.61,3.738-8.348,8.348-8.348h89.043C483.219,244.314,486.957,248.051,486.957,252.661z M445.218,273.253h-22.261
	c-4.61,0-8.348,3.738-8.348,8.348c0,4.61,3.738,8.348,8.348,8.348h22.261c4.61,0,8.348-3.738,8.348-8.348
	C453.566,276.99,449.828,273.253,445.218,273.253z"/>
<path style="fill:#CEA455;" d="M0,389.566h122.435V512H22.261C9.967,512,0,502.034,0,489.74V389.566z M389.566,389.566V512H489.74
	C502.034,512,512,502.034,512,489.74V389.566H389.566z"/>
<path style="fill:#DDB961;" d="M64,422.957c0,4.61-3.738,8.348-8.348,8.348H33.392c-4.61,0-8.348-3.738-8.348-8.348
	s3.738-8.348,8.348-8.348h22.261C60.263,414.609,64,418.347,64,422.957z M89.044,436.87h-11.13c-4.61,0-8.348,3.738-8.348,8.348
	s3.738,8.348,8.348,8.348h11.13c4.61,0,8.348-3.738,8.348-8.348S93.654,436.87,89.044,436.87z M55.653,470.261H33.392
	c-4.61,0-8.348,3.738-8.348,8.348s3.738,8.348,8.348,8.348h22.261c4.61,0,8.348-3.738,8.348-8.348S60.263,470.261,55.653,470.261z
	 M478.609,414.609h-22.261c-4.61,0-8.348,3.738-8.348,8.348s3.738,8.348,8.348,8.348h22.261c4.61,0,8.348-3.738,8.348-8.348
	S483.219,414.609,478.609,414.609z M434.087,436.87h-11.13c-4.61,0-8.348,3.738-8.348,8.348s3.738,8.348,8.348,8.348h11.13
	c4.61,0,8.348-3.738,8.348-8.348S438.698,436.87,434.087,436.87z M467.479,470.261h-11.13c-4.61,0-8.348,3.738-8.348,8.348
	s3.738,8.348,8.348,8.348h11.13c4.61,0,8.348-3.738,8.348-8.348S472.089,470.261,467.479,470.261z"/>
<path style="fill:#A9A632;" d="M155.827,350.609L155.827,350.609c0,21.515-17.441,38.957-38.957,38.957h-16.696H0v-38.957v-44.522
	C0,278.425,22.425,256,50.087,256l0,0c27.662,0,50.087,22.424,50.087,50.087v5.565h16.696
	C138.385,311.653,155.827,329.094,155.827,350.609z"/>
<path style="fill:#898424;" d="M166.957,350.609L166.957,350.609c0,21.515-17.441,38.957-38.957,38.957H83.479
	c-21.515,0-38.957-17.441-38.957-38.957l0,0c0-21.515,17.441-38.957,38.957-38.957H128
	C149.516,311.653,166.957,329.094,166.957,350.609z"/>
<path style="fill:#DDB961;" d="M133.566,389.566c0,4.61-3.738,8.348-8.348,8.348H8.348c-4.696,0-8.486-3.877-8.344-8.605
	c0.137-4.569,4.123-8.091,8.694-8.091h116.52C129.828,381.218,133.566,384.955,133.566,389.566z M503.303,381.218h-116.52
	c-4.61,0-8.348,3.738-8.348,8.348s3.738,8.348,8.348,8.348h116.87c4.696,0,8.486-3.877,8.344-8.605
	C511.859,384.74,507.873,381.218,503.303,381.218z"/>
<path style="fill:#B9BAA6;" d="M122.435,381.218h267.13v16.696h-267.13V381.218z"/>
</svg>