<?xml version="1.0" encoding="iso-8859-1"?>
<!-- Uploaded to: SVG Repo, www.svgrepo.com, Generator: SVG Repo Mixer Tools -->
<svg height="800px" width="800px" version="1.1" id="Layer_1" xmlns="http://www.w3.org/2000/svg" xmlns:xlink="http://www.w3.org/1999/xlink" 
	 viewBox="0 0 512 512" xml:space="preserve">
<path style="fill:#FFFFB3;" d="M445.217,512H22.261V66.783c0-24.588,19.933-44.522,44.522-44.522h378.435
	c24.588,0,44.522,19.933,44.522,44.522v400.696C489.739,492.066,469.806,512,445.217,512z"/>
<path style="fill:#FFFF81;" d="M94.609,0c52.251,0,94.609,42.358,94.609,94.609s-42.358,94.609-94.609,94.609S0,146.859,0,94.609
	S42.358,0,94.609,0z"/>
<path style="fill:#FFF145;" d="M94.609,44.522c27.662,0,50.087,22.424,50.087,50.087s-22.424,50.087-50.087,50.087
	s-50.087-22.424-50.087-50.087S66.946,44.522,94.609,44.522z"/>
<path style="fill:#C5EAD4;" d="M400.696,44.522h-55.652c-12.295,0-22.261-9.966-22.261-22.261l0,0
	C322.783,9.966,332.749,0,345.043,0h55.652c12.295,0,22.261,9.966,22.261,22.261l0,0C422.957,34.556,412.99,44.522,400.696,44.522z"
	/>
<path style="fill:#A9D5BB;" d="M489.739,122.435h-55.652c-12.295,0-22.261-9.966-22.261-22.261l0,0
	c0-12.295,9.966-22.261,22.261-22.261h55.652c12.295,0,22.261,9.966,22.261,22.261l0,0C512,112.469,502.034,122.435,489.739,122.435
	z"/>
<path style="fill:#DDB961;" d="M277.937,71.172L117.488,512H24.655l-1.7-0.619L194.263,40.718c2.103-5.777,8.489-8.755,14.266-6.653
	l62.756,22.841C277.061,59.009,280.04,65.396,277.937,71.172z M404.85,208.141l-62.756-22.841
	c-5.777-2.103-12.163,0.876-14.266,6.653l-30.455,83.673L211.341,512h94.758l74.948-205.919l30.455-83.673
	C413.605,216.632,410.626,210.244,404.85,208.141z"/>
<path style="fill:#CEA455;" d="M432.402,295.16L432.402,295.16c-5.256,14.441-21.225,21.887-35.665,16.631l-115.051-41.875
	c-14.441-5.256-21.887-21.223-16.631-35.665c5.256-14.441,21.224-21.887,35.665-16.631l115.051,41.875
	C430.211,264.752,437.658,280.72,432.402,295.16z M298.835,143.925L298.835,143.925c5.256-14.441-2.189-30.409-16.631-35.665
	L167.154,66.385c-14.441-5.256-30.409,2.189-35.665,16.631l0,0c-5.256,14.441,2.189,30.408,16.631,35.665l115.051,41.875
	C277.612,165.812,293.58,158.366,298.835,143.925z"/>
<path style="fill:#DDB961;" d="M317.35,253.285c-5.256,14.441-21.224,21.887-35.665,16.631l0,0
	c-14.441-5.256-21.887-21.224-16.631-35.665c5.256-14.441,21.224-21.887,35.665-16.631l0,0
	C315.16,222.877,322.607,238.845,317.35,253.285z M415.771,259.496L415.771,259.496c-14.441-5.256-30.409,2.189-35.665,16.631l0,0
	c-5.256,14.441,2.189,30.408,16.631,35.665s30.409-2.189,35.665-16.631l0,0C437.658,280.72,430.211,264.752,415.771,259.496z
	 M167.154,66.385L167.154,66.385c-14.441-5.256-30.409,2.189-35.665,16.631l0,0c-5.256,14.441,2.189,30.408,16.631,35.665l0,0
	c14.441,5.256,30.408-2.189,35.665-16.631l0,0C189.042,87.609,181.595,71.641,167.154,66.385z M298.835,143.925L298.835,143.925
	c5.256-14.441-2.189-30.409-16.631-35.665l0,0c-14.441-5.256-30.409,2.189-35.665,16.631l0,0
	c-5.256,14.441,2.189,30.408,16.631,35.665C277.612,165.812,293.58,158.366,298.835,143.925z"/>
<path style="fill:#CEA455;" d="M317.708,330.407l-54.98,151.057c-1.233,3.389-4.435,5.495-7.845,5.495
	c-0.948,0-1.912-0.163-2.854-0.505c-4.333-1.577-6.566-6.368-4.99-10.7l54.98-151.057c1.577-4.333,6.369-6.567,10.7-4.99
	C317.052,321.284,319.284,326.075,317.708,330.407z M340.959,329.985c-4.33-1.576-9.123,0.657-10.7,4.99l-30.984,85.127
	c-1.577,4.332,0.657,9.123,4.99,10.7c0.943,0.343,1.906,0.505,2.854,0.505c3.409,0,6.611-2.106,7.845-5.495l30.984-85.127
	C347.524,336.353,345.291,331.562,340.959,329.985z M181.295,162.619c-4.332-1.583-9.124,0.646-10.706,4.975L57.972,475.743
	c-1.583,4.33,0.646,9.124,4.975,10.706c0.946,0.346,1.913,0.51,2.865,0.51c3.406,0,6.605-2.1,7.841-5.484l112.618-308.149
	C187.853,168.994,185.626,164.201,181.295,162.619z M209.535,172.897c-4.329-1.584-9.124,0.644-10.706,4.975l-108.86,297.87
	c-1.583,4.33,0.646,9.124,4.975,10.706c0.946,0.346,1.913,0.51,2.865,0.51c3.406,0,6.605-2.1,7.841-5.485l108.861-297.87
	C216.093,179.272,213.866,174.48,209.535,172.897z"/>
<path style="fill:#A07040;" d="M299.237,246.099l-0.381,1.045c-1.233,3.39-4.434,5.496-7.845,5.496
	c-0.948,0-1.911-0.163-2.854-0.505c-4.332-1.576-6.567-6.367-4.99-10.699l0.381-1.045c1.576-4.333,6.364-6.566,10.699-4.99
	C298.578,236.977,300.813,241.768,299.237,246.099z M409.298,277.276c-4.334-1.577-9.124,0.658-10.699,4.99l-0.381,1.045
	c-1.577,4.333,0.658,9.122,4.99,10.699c0.943,0.343,1.906,0.505,2.854,0.505c3.41,0,6.611-2.106,7.845-5.496l0.381-1.045
	C415.864,283.642,413.63,278.852,409.298,277.276z M160.681,84.166c-4.335-1.577-9.122,0.658-10.699,4.99l-0.381,1.045
	c-1.577,4.333,0.658,9.122,4.99,10.699c0.943,0.343,1.906,0.505,2.854,0.505c3.41,0,6.611-2.106,7.845-5.496l0.381-1.045
	C167.248,90.532,165.013,85.742,160.681,84.166z M275.731,126.04c-4.332-1.576-9.123,0.659-10.697,4.992l-0.381,1.046
	c-1.576,4.333,0.659,9.122,4.992,10.697c0.942,0.343,1.904,0.505,2.853,0.505c3.41,0,6.613-2.106,7.846-5.497l0.381-1.046
	C282.299,132.405,280.064,127.616,275.731,126.04z"/>
<path style="fill:#DBCB9C;" d="M309.321,454.25l166.957-17.574c13.144-1.384,24.592,8.922,24.592,22.138v30.925
	c0,12.295-9.966,22.261-22.261,22.261H311.652c-12.295,0-22.261-9.966-22.261-22.261v-13.351
	C289.391,464.996,297.992,455.443,309.321,454.25z"/>
<path style="fill:#BCAE8A;" d="M512,503.652c0,4.61-3.738,8.348-8.348,8.348H8.348C3.738,512,0,508.262,0,503.652
	s3.738-8.348,8.348-8.348h495.304C508.262,495.304,512,499.042,512,503.652z"/>
</svg>