<?xml version="1.0" encoding="iso-8859-1"?>
<!-- Uploaded to: SVG Repo, www.svgrepo.com, Generator: SVG Repo Mixer Tools -->
<svg height="800px" width="800px" version="1.1" id="Layer_1" xmlns="http://www.w3.org/2000/svg" xmlns:xlink="http://www.w3.org/1999/xlink" 
	 viewBox="0 0 512.001 512.001" xml:space="preserve">
<path style="fill:#F4F170;" d="M489.74,66.783v400.696c0,24.588-19.934,44.522-44.522,44.522H66.783
	c-24.588,0-44.522-19.933-44.522-44.522V66.783c0-24.588,19.933-44.522,44.522-44.522h378.435
	C469.806,22.261,489.74,42.194,489.74,66.783z"/>
<path style="fill:#CC9600;" d="M512.001,478.609v22.261c0,6.147-4.983,11.13-11.13,11.13H11.131c-6.147,0-11.13-4.983-11.13-11.13
	v-22.261c0-6.147,4.983-11.13,11.13-11.13H500.87C507.017,467.478,512.001,472.461,512.001,478.609z"/>
<path style="fill:#D3842F;" d="M431.305,214.261v11.13c0,29.152-23.718,52.87-52.87,52.87H264.348v225.391
	c0,4.61-3.738,8.348-8.348,8.348c-4.61,0-8.348-3.738-8.348-8.348v-192h-91.826c-29.152,0-52.87-23.718-52.87-52.87v-44.522
	c0-4.61,3.738-8.348,8.348-8.348s8.348,3.738,8.348,8.348v44.522c0,19.946,16.228,36.174,36.174,36.174h91.826V180.87
	c0-4.61,3.738-8.348,8.348-8.348c4.61,0,8.348,3.738,8.348,8.348v80.696h114.087c19.946,0,36.174-16.228,36.174-36.174v-11.13
	c0-4.61,3.738-8.348,8.348-8.348C427.567,205.913,431.305,209.651,431.305,214.261z"/>
<path style="fill:#FFFF81;" d="M189.218,94.609c0,52.251-42.358,94.609-94.609,94.609S0.001,146.859,0.001,94.609S42.359,0,94.609,0
	S189.218,42.358,189.218,94.609z"/>
<path style="fill:#FFF145;" d="M144.696,94.609c0,27.662-22.424,50.087-50.087,50.087s-50.087-22.424-50.087-50.087
	s22.424-50.087,50.087-50.087S144.696,66.946,144.696,94.609z"/>
<path style="fill:#A07040;" d="M512.001,19.478c0,4.61-3.738,8.348-8.348,8.348c-10.74,0-19.478,8.739-19.478,19.478
	c0,4.61-3.738,8.348-8.348,8.348s-8.348-3.738-8.348-8.348c0-10.74-8.739-19.478-19.478-19.478c-4.61,0-8.348-3.738-8.348-8.348
	s3.738-8.348,8.348-8.348c11.176,0,21.186,5.096,27.826,13.084c6.64-7.988,16.65-13.084,27.826-13.084
	C508.263,11.13,512.001,14.868,512.001,19.478z"/>
<path style="fill:#825E06;" d="M512.001,211.478L512.001,211.478c0,12.295-9.966,22.261-22.261,22.261H345.044
	c-12.295,0-22.261-9.966-22.261-22.261l0,0c0-12.295,9.966-22.261,22.261-22.261H489.74
	C502.034,189.217,512.001,199.184,512.001,211.478z M178.087,178.087H44.522c-24.588,0-44.522,19.934-44.522,44.522l0,0
	c0,12.295,9.966,22.261,22.261,22.261h178.087c12.295,0,22.261-9.966,22.261-22.261l0,0
	C222.609,198.02,202.676,178.087,178.087,178.087z"/>
<path style="fill:#A9A632;" d="M445.218,166.957L445.218,166.957c0,18.442-14.949,33.391-33.391,33.391H100.174
	c-18.442,0-33.391-14.949-33.391-33.391l0,0c0-30.736,24.917-55.652,55.652-55.652h267.13
	C420.301,111.304,445.218,136.221,445.218,166.957z"/>
<path style="fill:#A03D07;" d="M374.901,413.99l33.449,58.535c2.278,3.987,3.476,8.499,3.476,13.09l0,0
	c0,14.572-11.813,26.385-26.385,26.385H271.255c-14.572,0-26.385-11.813-26.385-26.385l0,0c0-4.591,1.199-9.104,3.476-13.09
	l33.449-58.535c4.697-8.221,13.44-13.294,22.909-13.294h47.29C361.461,400.696,370.204,405.769,374.901,413.99z"/>
<path style="fill:#D3842F;" d="M400.696,445.217h28.621c8.771,0,16.788,4.955,20.71,12.8l10.237,20.472
	c1.607,3.216,2.444,6.761,2.444,10.356l0,0c0,12.789-10.367,23.156-23.156,23.156H390.46c-12.789,0-23.156-10.367-23.156-23.156l0,0
	c0-3.595,0.837-7.14,2.444-10.356l10.237-20.472C383.908,450.173,391.925,445.217,400.696,445.217z"/>
<path style="fill:#DDB900;" d="M27.827,470.261v33.391c0,4.61-3.738,8.348-8.348,8.348s-8.348-3.738-8.348-8.348v-33.391
	c0-4.61,3.738-8.348,8.348-8.348S27.827,465.651,27.827,470.261z M52.87,461.913c-4.61,0-8.348,3.738-8.348,8.348v33.391
	c0,4.61,3.738,8.348,8.348,8.348s8.348-3.738,8.348-8.348v-33.391C61.218,465.651,57.48,461.913,52.87,461.913z M86.261,461.913
	c-4.61,0-8.348,3.738-8.348,8.348v33.391c0,4.61,3.738,8.348,8.348,8.348c4.61,0,8.348-3.738,8.348-8.348v-33.391
	C94.609,465.651,90.872,461.913,86.261,461.913z M119.653,461.913c-4.61,0-8.348,3.738-8.348,8.348v33.391
	c0,4.61,3.738,8.348,8.348,8.348c4.61,0,8.348-3.738,8.348-8.348v-33.391C128.001,465.651,124.263,461.913,119.653,461.913z
	 M153.044,461.913c-4.61,0-8.348,3.738-8.348,8.348v33.391c0,4.61,3.738,8.348,8.348,8.348c4.61,0,8.348-3.738,8.348-8.348v-33.391
	C161.392,465.651,157.654,461.913,153.044,461.913z M186.435,461.913c-4.61,0-8.348,3.738-8.348,8.348v33.391
	c0,4.61,3.738,8.348,8.348,8.348s8.348-3.738,8.348-8.348v-33.391C194.783,465.651,191.046,461.913,186.435,461.913z
	 M219.827,461.913c-4.61,0-8.348,3.738-8.348,8.348v33.391c0,4.61,3.738,8.348,8.348,8.348c4.61,0,8.348-3.738,8.348-8.348v-33.391
	C228.174,465.651,224.437,461.913,219.827,461.913z M492.522,461.913c-4.61,0-8.348,3.738-8.348,8.348v33.391
	c0,4.61,3.738,8.348,8.348,8.348c4.61,0,8.348-3.738,8.348-8.348v-33.391C500.87,465.651,497.132,461.913,492.522,461.913z"/>
<path style="fill:#825E06;" d="M512.001,503.652c0,4.61-3.738,8.348-8.348,8.348H8.348c-4.61,0-8.348-3.738-8.348-8.348
	s3.738-8.348,8.348-8.348h495.304C508.263,495.304,512.001,499.042,512.001,503.652z"/>
</svg>