<?xml version="1.0" encoding="iso-8859-1"?>
<!-- Uploaded to: SVG Repo, www.svgrepo.com, Generator: SVG Repo Mixer Tools -->
<svg height="800px" width="800px" version="1.1" id="Layer_1" xmlns="http://www.w3.org/2000/svg" xmlns:xlink="http://www.w3.org/1999/xlink" 
	 viewBox="0 0 512 512" xml:space="preserve">
<path style="fill:#EAFFFF;" d="M445.217,489.739H66.783c-24.588,0-44.522-19.934-44.522-44.522V66.783
	c0-24.588,19.933-44.522,44.522-44.522h378.435c24.588,0,44.522,19.933,44.522,44.522v378.435
	C489.739,469.806,469.806,489.739,445.217,489.739z"/>
<path style="fill:#C5EAD4;" d="M489.739,44.522H378.435c-12.295,0-22.261-9.966-22.261-22.261l0,0C356.174,9.966,366.14,0,378.435,0
	h111.304C502.034,0,512,9.966,512,22.261l0,0C512,34.556,502.034,44.522,489.739,44.522z"/>
<path style="fill:#84837A;" d="M108.522,261.565c0,4.61-3.738,8.348-8.348,8.348c-10.74,0-19.478,8.738-19.478,19.478
	c0,4.61-3.738,8.348-8.348,8.348S64,294.002,64,289.391c0-10.74-8.739-19.478-19.478-19.478c-4.61,0-8.348-3.738-8.348-8.348
	c0-4.61,3.738-8.348,8.348-8.348c11.176,0,21.186,5.096,27.826,13.084c6.64-7.988,16.65-13.084,27.826-13.084
	C104.784,253.217,108.522,256.955,108.522,261.565z"/>
<path style="fill:#FFFF81;" d="M189.217,94.609c0,52.251-42.358,94.609-94.609,94.609S0,146.859,0,94.609S42.358,0,94.609,0
	S189.217,42.358,189.217,94.609z"/>
<path style="fill:#FFF145;" d="M144.696,94.609c0,27.662-22.424,50.087-50.087,50.087s-50.087-22.424-50.087-50.087
	s22.424-50.087,50.087-50.087S144.696,66.946,144.696,94.609z"/>
<path style="fill:#FFED8F;" d="M336.381,96.799l70.83,222.609c2.284,7.178-3.073,14.505-10.606,14.505H153.842
	c-8.783,0-14.106-9.697-9.391-17.106l141.66-222.609c2.044-3.21,5.585-5.155,9.391-5.155h30.273
	C330.622,89.043,334.911,92.18,336.381,96.799z"/>
<path style="fill:#FFCD69;" d="M311.652,333.913H153.842c-8.783,0-14.106-9.697-9.391-17.106l141.66-222.609
	c2.044-3.21,5.585-5.155,9.391-5.155h16.15V333.913z"/>
<path style="fill:#D3842F;" d="M320,77.913v311.652c0,4.61-3.738,8.348-8.348,8.348s-8.348-3.738-8.348-8.348V77.913
	c0-4.61,3.738-8.348,8.348-8.348S320,73.303,320,77.913z"/>
<path style="fill:#A9D5BB;" d="M512,411.826v77.913c0,12.295-9.966,22.261-22.261,22.261H22.261C9.966,512,0,502.034,0,489.739
	v-77.913c0-12.295,9.966-22.261,22.261-22.261h467.478C502.034,389.565,512,399.531,512,411.826z"/>
<path style="fill:#EAFFFF;" d="M496.499,434.087c0,4.61-3.738,8.348-8.348,8.348h-42.933c-4.61,0-8.348-3.738-8.348-8.348
	s3.738-8.348,8.348-8.348h42.933C492.761,425.739,496.499,429.477,496.499,434.087z M44.522,435.757h100.174
	c4.61,0,8.348-3.738,8.348-8.348c0-4.61-3.738-8.348-8.348-8.348H44.522c-4.61,0-8.348,3.738-8.348,8.348
	C36.174,432.019,39.912,435.757,44.522,435.757z M378.435,459.13h-244.87c-4.61,0-8.348,3.738-8.348,8.348s3.738,8.348,8.348,8.348
	h244.87c4.61,0,8.348-3.738,8.348-8.348S383.045,459.13,378.435,459.13z M456.348,459.13h-44.522c-4.61,0-8.348,3.738-8.348,8.348
	s3.738,8.348,8.348,8.348h44.522c4.61,0,8.348-3.738,8.348-8.348S460.958,459.13,456.348,459.13z M77.913,470.261H22.261
	c-4.61,0-8.348,3.738-8.348,8.348s3.738,8.348,8.348,8.348h55.652c4.61,0,8.348-3.738,8.348-8.348S82.523,470.261,77.913,470.261z"
	/>
<path style="fill:#BCAE8A;" d="M429.03,375.732l-25.091,41.819c-2.011,3.352-5.634,5.404-9.544,5.404H198.343
	c-5.306,0-9.874-3.745-10.915-8.948l-8.009-40.048c-0.689-3.444,1.946-6.657,5.457-6.657h239.382
	C428.584,367.304,431.255,372.024,429.03,375.732z"/>
<path style="fill:#998C6E;" d="M420.797,389.565l-16.793,27.987c-2.011,3.352-5.634,5.404-9.544,5.404H198.409
	c-5.306,0-9.874-3.745-10.915-8.948l-4.888-24.444H420.797z"/>
</svg>