<?xml version="1.0" encoding="iso-8859-1"?>
<!-- Uploaded to: SVG Repo, www.svgrepo.com, Generator: SVG Repo Mixer Tools -->
<svg height="800px" width="800px" version="1.1" id="Layer_1" xmlns="http://www.w3.org/2000/svg" xmlns:xlink="http://www.w3.org/1999/xlink" 
	 viewBox="0 0 512 512" xml:space="preserve">
<path style="fill:#FFF1B6;" d="M445.217,489.739H66.783c-24.588,0-44.522-19.934-44.522-44.522V66.783
	c0-24.588,19.933-44.522,44.522-44.522h378.435c24.588,0,44.522,19.933,44.522,44.522v378.435
	C489.739,469.806,469.806,489.739,445.217,489.739z"/>
<path style="fill:#A9D5BB;" d="M489.739,512H22.261C9.966,512,0,502.034,0,489.739V256h512v233.739
	C512,502.034,502.034,512,489.739,512z"/>
<path style="fill:#C5EAD4;" d="M311.652,512H200.348l-89.043-256h289.391L311.652,512z"/>
<path style="fill:#BCAE8A;" d="M389.565,256L389.565,256H155.826l0,0c0-24.588,19.933-44.522,44.522-44.522h144.696
	C369.632,211.478,389.565,231.412,389.565,256z"/>
<path style="fill:#9FBA41;" d="M256,256L256,256H0l0,0c0-36.883,29.9-66.783,66.783-66.783h122.435
	C226.1,189.217,256,219.117,256,256z"/>
<path style="fill:#EAFFFF;" d="M409.043,292.174c0,4.61-3.738,8.348-8.348,8.348H111.304c-4.61,0-8.348-3.738-8.348-8.348
	c0-4.61,3.738-8.348,8.348-8.348h289.391C405.306,283.826,409.043,287.564,409.043,292.174z M345.043,356.174
	c4.61,0,8.348-3.738,8.348-8.348s-3.738-8.348-8.348-8.348H166.957c-4.61,0-8.348,3.738-8.348,8.348s3.738,8.348,8.348,8.348
	H345.043z M300.522,406.261h-89.043c-4.61,0-8.348,3.738-8.348,8.348s3.738,8.348,8.348,8.348h89.043
	c4.61,0,8.348-3.738,8.348-8.348S305.132,406.261,300.522,406.261z M267.13,473.043H244.87c-4.61,0-8.348,3.738-8.348,8.348
	c0,4.61,3.738,8.348,8.348,8.348h22.261c4.61,0,8.348-3.738,8.348-8.348C275.478,476.781,271.741,473.043,267.13,473.043z
	 M356.174,406.261h-22.261c-4.61,0-8.348,3.738-8.348,8.348s3.738,8.348,8.348,8.348h22.261c4.61,0,8.348-3.738,8.348-8.348
	S360.784,406.261,356.174,406.261z M178.087,406.261h-22.261c-4.61,0-8.348,3.738-8.348,8.348s3.738,8.348,8.348,8.348h22.261
	c4.61,0,8.348-3.738,8.348-8.348S182.697,406.261,178.087,406.261z M133.565,339.478h-22.261c-4.61,0-8.348,3.738-8.348,8.348
	s3.738,8.348,8.348,8.348h22.261c4.61,0,8.348-3.738,8.348-8.348S138.175,339.478,133.565,339.478z M77.913,283.826H33.391
	c-4.61,0-8.348,3.738-8.348,8.348c0,4.61,3.738,8.348,8.348,8.348h44.522c4.61,0,8.348-3.738,8.348-8.348
	C86.261,287.564,82.523,283.826,77.913,283.826z M478.609,283.826h-44.522c-4.61,0-8.348,3.738-8.348,8.348
	c0,4.61,3.738,8.348,8.348,8.348h44.522c4.61,0,8.348-3.738,8.348-8.348C486.957,287.564,483.219,283.826,478.609,283.826z
	 M400.696,339.478h-22.261c-4.61,0-8.348,3.738-8.348,8.348s3.738,8.348,8.348,8.348h22.261c4.61,0,8.348-3.738,8.348-8.348
	S405.306,339.478,400.696,339.478z M503.652,247.652H8.348C3.738,247.652,0,251.39,0,256s3.738,8.348,8.348,8.348h495.304
	c4.61,0,8.348-3.738,8.348-8.348S508.262,247.652,503.652,247.652z"/>
<path style="fill:#84837A;" d="M375.652,122.435c0,4.61-3.738,8.348-8.348,8.348c-10.74,0-19.478,8.738-19.478,19.478
	c0,4.61-3.738,8.348-8.348,8.348s-8.348-3.738-8.348-8.348c0-10.74-8.739-19.478-19.478-19.478c-4.61,0-8.348-3.738-8.348-8.348
	s3.738-8.348,8.348-8.348c11.176,0,21.186,5.096,27.826,13.084c6.64-7.988,16.65-13.084,27.826-13.084
	C371.915,114.087,375.652,117.825,375.652,122.435z M456.348,141.913c-11.176,0-21.186,5.096-27.826,13.084
	c-6.64-7.988-16.65-13.084-27.826-13.084c-4.61,0-8.348,3.738-8.348,8.348s3.738,8.348,8.348,8.348
	c10.74,0,19.478,8.738,19.478,19.478c0,4.61,3.738,8.348,8.348,8.348s8.348-3.738,8.348-8.348c0-10.74,8.739-19.478,19.478-19.478
	c4.61,0,8.348-3.738,8.348-8.348S460.958,141.913,456.348,141.913z"/>
<path style="fill:#C5EAD4;" d="M500.87,22.261c0,12.295-9.966,22.261-22.261,22.261h-36.393c1.898,3.277,3.002,7.071,3.002,11.13
	c0,12.295-9.966,22.261-22.261,22.261H322.783c-12.295,0-22.261-9.966-22.261-22.261s9.966-22.261,22.261-22.261h36.393
	c-1.898-3.277-3.002-7.071-3.002-11.13C356.174,9.966,366.14,0,378.435,0h100.174C490.903,0,500.87,9.966,500.87,22.261z
	 M233.739,77.913H22.261C9.966,77.913,0,87.879,0,100.174l0,0c0,12.295,9.966,22.261,22.261,22.261h211.478
	c12.295,0,22.261-9.966,22.261-22.261l0,0C256,87.879,246.034,77.913,233.739,77.913z"/>
<path style="fill:#A9D5BB;" d="M445.217,55.652L445.217,55.652c0,12.295-9.966,22.261-22.261,22.261H322.783
	c-12.295,0-22.261-9.966-22.261-22.261l0,0c0-12.295,9.966-22.261,22.261-22.261h100.174
	C435.251,33.391,445.217,43.357,445.217,55.652z"/>
</svg>