<?xml version="1.0" encoding="utf-8"?>
<!-- Uploaded to: SVG Repo, www.svgrepo.com, Generator: SVG Repo Mixer Tools -->
<svg width="800px" height="800px" viewBox="0 0 1024 1024" class="icon"  version="1.1" xmlns="http://www.w3.org/2000/svg"><path d="M160 552m-32 0a32 32 0 1 0 64 0 32 32 0 1 0-64 0Z" fill="#FFD53E" /><path d="M424 328l51.04 25.52C409.76 491.52 228.96 528.72 94.96 456A508.72 508.72 0 0 1 112 392a211.84 211.84 0 0 0 128 40 215.36 215.36 0 0 0 184-104z" fill="#EAEAEA" /><path d="M630 431.04L744 488h0.8a590.08 590.08 0 0 0-24 135.04c-12.96 0.96-26.64 0.96-40.8 0.96H80v-24a715.76 715.76 0 0 1 14.96-144c134 72.96 314.8 35.76 380.08-102.24l58.96 29.52 48 24zM192 552a32 32 0 1 0-32 32 32 32 0 0 0 32-32z" fill="#FFFFFF" /><path d="M936 560a101.68 101.68 0 0 1 4 16c-41.84 18.64-114 42.08-219.04 47.04A590.08 590.08 0 0 1 744.8 488c12.56 0 168.16 2.88 191.2 72z" fill="#FFD53E" /><path d="M940 576c15.52 96-146 112-260 112H80v-64h600c14.16 0 27.84 0 40.96-0.96 105.04-4.96 177.2-28.4 219.04-47.04z" fill="#3DBADA" /></svg>