<?xml version="1.0" encoding="iso-8859-1"?>
<!-- Uploaded to: SVG Repo, www.svgrepo.com, Generator: SVG Repo Mixer Tools -->
<svg height="800px" width="800px" version="1.1" id="Layer_1" xmlns="http://www.w3.org/2000/svg" xmlns:xlink="http://www.w3.org/1999/xlink" 
	 viewBox="0 0 512 512" xml:space="preserve">
<path style="fill:#A9B9BB;" d="M445.217,489.739H66.783c-24.588,0-44.522-19.934-44.522-44.522V66.783
	c0-24.588,19.933-44.522,44.522-44.522h378.435c24.588,0,44.522,19.933,44.522,44.522v378.435
	C489.739,469.806,469.806,489.739,445.217,489.739z"/>
<path style="fill:#74843A;" d="M283.02,206.805l83.933,293.766c1.636,5.728-2.665,11.43-8.622,11.43h-169.61
	c-7.897,0-13.599-7.559-11.43-15.152l82.869-290.044c1.458-5.103,6.122-8.622,11.43-8.622l0,0
	C276.898,198.183,281.563,201.701,283.02,206.805z"/>
<path style="fill:#8CA055;" d="M142.956,99.748l104.193,364.675c2.031,7.11-3.307,14.188-10.702,14.188H25.895
	c-9.804,0-16.882-9.383-14.188-18.809L114.579,99.749c1.81-6.334,7.6-10.702,14.188-10.702l0,0
	C135.356,89.045,141.146,93.412,142.956,99.748z"/>
<path style="fill:#C5EAD4;" d="M314.706,281.239c3.015,10.555-2.118,21.902-11.942,26.395c-4.084,1.869-8.444,2.845-12.957,2.903
	c-0.136,0.002-0.27,0.002-0.405,0.002c-8.368,0-16.308-3.297-22.4-9.312c-3.723-3.676-6.506-8.186-8.155-13.074
	c-0.943,0.083-1.892,0.125-2.847,0.125l-0.266-0.001c-6.915-0.051-13.295-3.289-17.481-8.881c-4.254-5.684-5.577-12.855-3.63-19.672
	l15.907-55.672c2.672-9.354,11.334-15.886,21.061-15.886s18.389,6.532,21.061,15.886L314.706,281.239z M153.658,96.689
	L153.658,96.689c-3.472-12.149-15.118-19.982-27.695-18.623c-10.508,1.133-19.224,8.609-22.206,19.048L58.299,256.214
	c-3.017,10.563-0.973,21.674,5.611,30.485c6.491,8.687,16.396,13.725,27.166,13.822l0.441,0.002
	c25.913,0,46.995-21.082,46.995-46.995v-12.336c0-0.086,0.007-0.149,0.1-0.243c0.092-0.092,0.265-0.203,0.453-0.203l0,0l0.27,0.001
	c12.804,0,24.772-5.059,33.696-14.246c8.444-8.692,11.572-21.501,8.164-33.428L153.658,96.689z M444.368,316.035
	c13.25-7.597,22.183-21.869,22.183-38.237l0,0c0-24.332-19.725-44.058-44.058-44.058l0,0c-24.333-0.001-44.059,19.724-44.059,44.057
	l0,0c0,16.368,8.933,30.641,22.183,38.237c-19.482,7.491-33.313,26.368-33.313,48.488v6.492c0,28.688,23.255,51.942,51.942,51.942
	h6.492c28.686,0,51.942-23.255,51.942-51.942v-6.492C477.681,342.402,463.849,323.525,444.368,316.035z"/>
<path style="fill:#EAFFFF;" d="M146.522,181.943c3.408,11.927,0.279,24.737-8.164,33.428c-8.924,9.186-20.892,14.246-33.696,14.246
	l-0.27-0.001l0,0c-0.188,0-0.361,0.11-0.453,0.203c-0.093,0.092-0.1,0.157-0.1,0.243v12.336c0,22.977-16.579,42.142-38.4,46.194
	c-0.525-0.612-1.04-1.238-1.528-1.891c-6.584-8.811-8.628-19.922-5.611-30.485l45.458-159.101
	c2.081-7.288,6.965-13.124,13.296-16.373c0.785,1.516,1.445,3.119,1.93,4.817l0,0L146.522,181.943z M270.386,204.052
	c-1.572-5.497-5.219-10.006-9.928-12.801c-4.709,2.795-8.358,7.304-9.928,12.801l-15.907,55.672
	c-1.948,6.817-0.626,13.988,3.63,19.672c4.185,5.592,10.565,8.83,17.481,8.881l0.266,0.001c0.955,0,1.904-0.041,2.847-0.125
	c1.65,4.887,4.432,9.397,8.155,13.074c3.307,3.266,7.161,5.722,11.331,7.293c0.729-0.272,1.453-0.56,2.165-0.886
	c9.824-4.492,14.957-15.84,11.942-26.395L270.386,204.052z M411.904,316.035c13.25-7.597,22.183-21.869,22.183-38.237l0,0
	c0-18.598-11.53-34.493-27.826-40.958c-16.297,6.465-27.826,22.359-27.826,40.958l0,0c0,16.368,8.933,30.641,22.183,38.237
	c-19.482,7.49-33.313,26.367-33.313,48.486v6.492c0,24.203,16.553,44.54,38.957,50.305c22.403-5.767,38.957-26.103,38.957-50.305
	v-6.492C445.217,342.402,431.386,323.525,411.904,316.035z"/>
<path style="fill:#6B6A63;" d="M420,272.672v1.183c0,4.61-3.738,8.348-8.348,8.348s-8.348-3.738-8.348-8.348v-1.183
	c0-4.61,3.738-8.348,8.348-8.348S420,268.062,420,272.672z M435.305,264.324c-4.61,0-8.348,3.738-8.348,8.348v1.183
	c0,4.61,3.738,8.348,8.348,8.348s8.348-3.738,8.348-8.348v-1.183C443.652,268.062,439.915,264.324,435.305,264.324z"/>
<path style="fill:#EAFFFF;" d="M500.87,478.609V512l0,0h-256H11.13l0,0c0-30.736,24.917-55.652,55.652-55.652h135.84
	c23.279,0,45.654-9.095,62.266-25.403c12.044-11.825,28.55-19.119,46.763-19.119h122.435
	C470.97,411.826,500.87,441.726,500.87,478.609z"/>
<g>
	<path style="fill:#C5EAD4;" d="M500.87,512h-256H104.818c8.589-19.652,28.189-33.391,51.009-33.391h135.84
		c23.279,0,45.654-9.095,62.266-25.403c12.044-11.825,28.55-19.119,46.763-19.119h83.155c10.578,11.816,17.018,27.414,17.018,44.522
		V512L500.87,512z"/>
	<path style="fill:#C5EAD4;" d="M512,503.652c0,4.61-3.738,8.348-8.348,8.348H8.348C3.738,512,0,508.262,0,503.652
		s3.738-8.348,8.348-8.348h495.304C508.262,495.304,512,499.042,512,503.652z"/>
</g>
<path style="fill:#C7D7D8;" d="M420,8.348v1.183c0,4.61-3.738,8.348-8.348,8.348s-8.348-3.738-8.348-8.348V8.348
	c0-4.61,3.738-8.348,8.348-8.348S420,3.738,420,8.348z M503.652,169.739c-4.61,0-8.348,3.738-8.348,8.348v1.183
	c0,4.61,3.738,8.348,8.348,8.348S512,183.88,512,179.27v-1.183C512,173.477,508.262,169.739,503.652,169.739z M486.957,279.861
	c-4.61,0-8.348,3.738-8.348,8.348v1.182c0,4.61,3.738,8.348,8.348,8.348c4.61,0,8.348-3.738,8.348-8.348v-1.183
	C495.304,283.598,491.567,279.861,486.957,279.861z M16.696,111.304v-1.183c0-4.61-3.738-8.348-8.348-8.348S0,105.511,0,110.122
	v1.182c0,4.61,3.738,8.348,8.348,8.348S16.696,115.915,16.696,111.304z M19.478,268.731c-4.61,0-8.348,3.738-8.348,8.348v1.182
	c0,4.61,3.738,8.348,8.348,8.348s8.348-3.738,8.348-8.348v-1.183C27.826,272.467,24.088,268.731,19.478,268.731z M356.174,68.383
	c-4.61,0-8.348,3.738-8.348,8.348v1.182c0,4.61,3.738,8.348,8.348,8.348s8.348-3.738,8.348-8.348V76.73
	C364.522,72.12,360.784,68.383,356.174,68.383z M178.087,23.861c-4.61,0-8.348,3.738-8.348,8.348v1.182
	c0,4.61,3.738,8.348,8.348,8.348c4.61,0,8.348-3.738,8.348-8.348v-1.183C186.435,27.598,182.697,23.861,178.087,23.861z
	 M89.043,13.913c-4.61,0-8.348,3.738-8.348,8.348v1.183c0,4.61,3.738,8.348,8.348,8.348c4.61,0,8.348-3.738,8.348-8.348v-1.183
	C97.391,17.651,93.654,13.913,89.043,13.913z M289.391,23.861c-4.61,0-8.348,3.738-8.348,8.348v1.182
	c0,4.61,3.738,8.348,8.348,8.348s8.348-3.738,8.348-8.348v-1.183C297.739,27.598,294.002,23.861,289.391,23.861z M356.174,190.818
	c-4.61,0-8.348,3.738-8.348,8.348v1.182c0,4.61,3.738,8.348,8.348,8.348s8.348-3.738,8.348-8.348v-1.183
	C364.522,194.554,360.784,190.818,356.174,190.818z M456.348,91.826c-4.61,0-8.348,3.738-8.348,8.348v1.183
	c0,4.61,3.738,8.348,8.348,8.348s8.348-3.738,8.348-8.348v-1.183C464.696,95.564,460.958,91.826,456.348,91.826z M233.739,101.774
	c-4.61,0-8.348,3.738-8.348,8.348v1.182c0,4.61,3.738,8.348,8.348,8.348s8.348-3.738,8.348-8.348v-1.183
	C242.087,105.511,238.349,101.774,233.739,101.774z M44.522,169.739c-4.61,0-8.348,3.738-8.348,8.348v1.183
	c0,4.61,3.738,8.348,8.348,8.348s8.348-3.738,8.348-8.348v-1.183C52.87,173.477,49.132,169.739,44.522,169.739z M267.13,336.696
	c-4.61,0-8.348,3.738-8.348,8.348v1.183c0,4.61,3.738,8.348,8.348,8.348s8.348-3.738,8.348-8.348v-1.183
	C275.478,340.433,271.741,336.696,267.13,336.696z M89.043,391.166c-4.61,0-8.348,3.738-8.348,8.348v1.182
	c0,4.61,3.738,8.348,8.348,8.348c4.61,0,8.348-3.738,8.348-8.348v-1.183C97.391,394.902,93.654,391.166,89.043,391.166z
	 M166.957,336.696c-4.61,0-8.348,3.738-8.348,8.348v1.183c0,4.61,3.738,8.348,8.348,8.348s8.348-3.738,8.348-8.348v-1.183
	C175.304,340.433,171.567,336.696,166.957,336.696z M133.565,192c-4.61,0-8.348,3.738-8.348,8.348v1.183
	c0,4.61,3.738,8.348,8.348,8.348c4.61,0,8.348-3.738,8.348-8.348v-1.183C141.913,195.738,138.175,192,133.565,192z"/>
</svg>