<?xml version="1.0" encoding="iso-8859-1"?>
<!-- Uploaded to: SVG Repo, www.svgrepo.com, Generator: SVG Repo Mixer Tools -->
<svg height="800px" width="800px" version="1.1" id="Layer_1" xmlns="http://www.w3.org/2000/svg" xmlns:xlink="http://www.w3.org/1999/xlink" 
	 viewBox="0 0 512 512" xml:space="preserve">
<path style="fill:#727C7C;" d="M445.217,300.522H66.783c-24.588,0-44.522-19.934-44.522-44.522V66.783
	c0-24.588,19.933-44.522,44.522-44.522h378.435c24.588,0,44.522,19.933,44.522,44.522V256
	C489.739,280.588,469.806,300.522,445.217,300.522z"/>
<path style="fill:#C7D7D8;" d="M47.071,389.565c-22.793-37.195-35.94-80.939-35.94-127.758c0-135.238,109.631-244.87,244.87-244.87
	s244.87,109.631,244.87,244.87c0,46.819-13.147,90.564-35.94,127.758H47.071z"/>
<path style="fill:#A9B9BB;" d="M322.783,133.565c0,18.442-14.949,33.391-33.391,33.391S256,152.007,256,133.565
	s14.949-33.391,33.391-33.391S322.783,115.123,322.783,133.565z M244.87,256c-12.295,0-22.261,9.966-22.261,22.261
	c0,12.295,9.966,22.261,22.261,22.261c12.295,0,22.261-9.966,22.261-22.261C267.13,265.966,257.164,256,244.87,256z
	 M105.739,178.087c-21.515,0-38.957,17.441-38.957,38.957S84.224,256,105.739,256s38.957-17.441,38.957-38.957
	S127.254,178.087,105.739,178.087z M439.652,66.783c-15.368,0-27.826,12.458-27.826,27.826s12.458,27.826,27.826,27.826
	s27.826-12.458,27.826-27.826S455.02,66.783,439.652,66.783z M27.826,0C12.458,0,0,12.458,0,27.826s12.458,27.826,27.826,27.826
	s27.826-12.458,27.826-27.826S43.194,0,27.826,0z"/>
<path style="fill:#DBCB9C;" d="M512,489.739c0,12.295-9.966,22.261-22.261,22.261H22.261C9.966,512,0,502.034,0,489.739V389.565h512
	V489.739z"/>
<path style="fill:#BCAE8A;" d="M512,389.565c0,4.61-3.738,8.348-8.348,8.348H8.348c-4.61,0-8.348-3.738-8.348-8.348
	c0-4.61,3.738-8.348,8.348-8.348h495.304C508.262,381.217,512,384.955,512,389.565z"/>
<path style="fill:#FF8950;" d="M445.217,308.87H345.043v-55.652h100.174c6.147,0,11.13,4.983,11.13,11.13v33.391
	C456.348,303.886,451.365,308.87,445.217,308.87z"/>
<path style="fill:#A0A092;" d="M353.391,242.087v144.696c0,4.61-3.738,8.348-8.348,8.348s-8.348-3.738-8.348-8.348V242.087
	c0-4.61,3.738-8.348,8.348-8.348S353.391,237.477,353.391,242.087z"/>
<path style="fill:#DBCB9C;" d="M428.342,434.643L428.342,434.643H261.744l0,0c0-41.501,33.643-75.144,75.144-75.144H353.2
	C394.7,359.5,428.342,393.143,428.342,434.643z"/>
<path style="fill:#BCAE8A;" d="M153.043,434.087c0,4.61-3.738,8.348-8.348,8.348h-22.261c-4.61,0-8.348-3.738-8.348-8.348
	s3.738-8.348,8.348-8.348h22.261C149.306,425.739,153.043,429.477,153.043,434.087z M222.609,470.261h-22.261
	c-4.61,0-8.348,3.738-8.348,8.348s3.738,8.348,8.348,8.348h22.261c4.61,0,8.348-3.738,8.348-8.348S227.219,470.261,222.609,470.261z
	 M411.826,470.261h-77.913c-4.61,0-8.348,3.738-8.348,8.348s3.738,8.348,8.348,8.348h77.913c4.61,0,8.348-3.738,8.348-8.348
	S416.436,470.261,411.826,470.261z M58.435,439.652H25.043c-4.61,0-8.348,3.738-8.348,8.348c0,4.61,3.738,8.348,8.348,8.348h33.391
	c4.61,0,8.348-3.738,8.348-8.348C66.783,443.39,63.045,439.652,58.435,439.652z M461.913,426.296H233.739
	c-4.61,0-8.348,3.738-8.348,8.348s3.738,8.348,8.348,8.348h228.174c4.61,0,8.348-3.738,8.348-8.348S466.523,426.296,461.913,426.296
	z"/>
</svg>