<?xml version="1.0" encoding="utf-8"?>
<!-- Uploaded to: SVG Repo, www.svgrepo.com, Generator: SVG Repo Mixer Tools -->
<svg width="800px" height="800px" viewBox="0 0 1024 1024" class="icon"  version="1.1" xmlns="http://www.w3.org/2000/svg"><path d="M512 455.04c56 0 48 208 240 208s144-208 184-208l8-64c-216-72-344 8-432 8s-216-80-432-8l8 64c40 0-8 208 184 208s184-208 240-208z" fill="#3DBADA" /><path d="M752 663.04c136.48 0 152-105.12 163.44-165.84-89.04 29.68-103.12 115.84-207.44 161.6a224.4 224.4 0 0 0 44 4.24zM572.48 542.8c57.2-52.96 147.84-7.52 216.48-116-123.92-11.28-186.88 20.24-276.96 20.24v8c25.04 0 37.36 41.68 60.48 87.76zM272 663.04c142.56 0 174.88-114.56 204.96-173.68-121.28 17.44-124.88 120-243.12 170.4a217.28 217.28 0 0 0 38.16 3.28zM340.88 426.96c-61.76-5.84-137.6-3.68-252.88 28.08 18.56 0 18.24 44.72 31.6 92.64 56.8-60.56 150.64-9.28 221.28-120.72z" fill="#FFFFFF" /><path d="M512 399.04c-88 0-216-80-432-8l8 64c232-64 304-8 424-8s192-56 424 8l8-64c-216-72-344 8-432 8z" fill="#65676C" /></svg>