<?xml version="1.0" encoding="utf-8"?>
<!-- Uploaded to: SVG Repo, www.svgrepo.com, Generator: SVG Repo Mixer Tools -->
<svg width="800px" height="800px" viewBox="0 0 1024 1024" class="icon"  version="1.1" xmlns="http://www.w3.org/2000/svg"><path d="M936 664c16-240-8-336-32-408V144H120v112c-24 72-48 168-32 408a1040 1040 0 0 1-8 216h360c40-112 32-200 72-344 40 144 32 232 72 344h360a1040 1040 0 0 1-8-216z" fill="#3EBBD8" /><path d="M120 144h784v112H120z" fill="#FDD54F" /><path d="M940.56 568.88c4.56-172-16-251.28-36.56-312.88H696.8c5.52 104 43.2 265.2 243.76 312.88zM327.2 256H120c-20.56 61.6-41.04 140.88-36.56 312.88C284 521.2 321.68 360 327.2 256z" fill="#4EC67C" /></svg>