<?xml version="1.0" encoding="utf-8"?>
<!-- Uploaded to: SVG Repo, www.svgrepo.com, Generator: SVG Repo Mixer Tools -->
<svg width="800px" height="800px" viewBox="0 0 1024 1024" class="icon"  version="1.1" xmlns="http://www.w3.org/2000/svg"><path d="M925.6 681.12L816 640c-32-176-88-392-216-392-64 0-88 64-88 64s-24-64-88-64c-128 0-184 216-216 392l-109.6 41.12a28.32 28.32 0 0 0-18.4 26.56C80 744 176 776 512 776s432-32 432-68.32a28.32 28.32 0 0 0-18.4-26.56z" fill="#65676C" /><path d="M837.36 648L816 640c-5.2-28.64-11.04-58.32-17.76-88H225.76c-6.72 29.68-12.56 59.36-17.76 88l-21.36 8z" fill="#9368C9" /></svg>