<?xml version="1.0" encoding="iso-8859-1"?>
<!-- Uploaded to: SVG Repo, www.svgrepo.com, Generator: SVG Repo Mixer Tools -->
<svg height="800px" width="800px" version="1.1" id="Layer_1" xmlns="http://www.w3.org/2000/svg" xmlns:xlink="http://www.w3.org/1999/xlink" 
	 viewBox="0 0 512 512" xml:space="preserve">
<g>
	<g>
		<path style="fill:#C03A2B;" d="M339.321,54.717c-2.056,0-4.113-0.734-5.751-2.236c-3.482-3.174-3.72-8.576-0.546-12.049
			c4.343-4.762,8.969-8.115,13.747-9.984c4.378-1.707,9.335,0.452,11.042,4.855c1.715,4.386-0.452,9.335-4.847,11.051
			c-2.304,0.896-4.77,2.773-7.339,5.581C343.946,53.778,341.634,54.717,339.321,54.717 M313.491,108.238
			c-0.853,0-1.715-0.128-2.569-0.393c-4.497-1.417-6.989-6.212-5.572-10.709c1.758-5.572,3.669-11.162,5.717-16.614
			c1.655-4.403,6.571-6.622,10.999-4.975c4.403,1.664,6.63,6.579,4.975,10.991c-1.946,5.154-3.746,10.462-5.419,15.735
			C320.48,105.917,317.109,108.238,313.491,108.238 M299.197,166.401c-0.486,0-0.973-0.043-1.476-0.128
			c-4.634-0.811-7.748-5.231-6.938-9.865c0,0,1.178-6.801,3.465-17.203c1.015-4.599,5.598-7.501,10.172-6.494
			c4.599,1.007,7.509,5.564,6.494,10.163c-2.167,9.882-3.302,16.367-3.319,16.461C306.869,163.482,303.268,166.401,299.197,166.401"
			/>
		<path style="fill:#C03A2B;" d="M183.933,57.983c-1.638,0-3.294-0.469-4.762-1.459c-1.041-0.7-2.074-1.254-3.063-1.638
			c-4.395-1.707-6.571-6.656-4.864-11.051c1.715-4.395,6.673-6.554,11.051-4.855c2.167,0.845,4.326,1.988,6.417,3.396
			c3.908,2.628,4.941,7.936,2.304,11.844C189.369,56.66,186.673,57.983,183.933,57.983 M214.15,108.646
			c-3.507,0-6.793-2.176-8.038-5.675c-1.971-5.53-4.002-10.692-6.033-15.351c-1.894-4.318,0.077-9.353,4.395-11.238
			c4.318-1.886,9.353,0.085,11.238,4.403c2.193,5.018,4.378,10.556,6.477,16.461c1.579,4.437-0.734,9.318-5.18,10.897
			C216.07,108.483,215.097,108.646,214.15,108.646 M229.868,166.399c-4.019,0-7.595-2.85-8.371-6.946
			c-0.026-0.102-1.254-6.579-3.61-16.341c-1.101-4.582,1.715-9.19,6.298-10.291c4.565-1.101,9.19,1.707,10.291,6.289
			c2.492,10.334,3.789,17.169,3.789,17.169c0.87,4.634-2.167,9.088-6.801,9.975C230.927,166.348,230.397,166.399,229.868,166.399"/>
		<path style="fill:#C03A2B;" d="M262.167,106.691c-4.215,0-7.885-3.132-8.448-7.424c-0.802-6.11-1.792-11.383-2.935-15.684
			c-1.229-4.557,1.476-9.233,6.033-10.453c4.557-1.237,9.225,1.485,10.445,6.033c1.348,5.026,2.483,11.042,3.379,17.886
			c0.614,4.676-2.679,8.96-7.356,9.574C262.909,106.666,262.534,106.691,262.167,106.691 M264.539,166.399
			c-0.102,0-0.213,0-0.316-0.009c-4.71-0.162-8.388-4.122-8.218-8.832c0-0.077,0.179-5.137,0.179-12.851l-0.009-3.874
			c-0.034-4.71,3.772-8.55,8.482-8.576h0.051c4.693,0,8.499,3.78,8.533,8.482l0.009,3.968c0,8.149-0.188,13.466-0.188,13.466
			C272.893,162.781,269.105,166.399,264.539,166.399"/>
	</g>
	<polygon style="fill:#1F2F3D;" points="384,277.333 363.324,291.115 401.067,396.8 503.467,396.8 	"/>
	<polygon style="fill:#ECF0F1;" points="221.868,234.667 238.935,268.8 264.535,200.533 290.135,268.8 307.202,234.667 
		352.386,260.489 315.735,157.867 213.335,157.867 176.684,260.489 	"/>
	<g>
		<path style="fill:#1F2F3D;" d="M299.454,320.029c-4.335,0-8.038-3.285-8.482-7.68c-0.742-7.424-0.853-13.406-0.853-16.307
			l0.017-1.886c0.145-4.702,4.215-8.141,8.781-8.277c4.702,0.137,8.405,4.053,8.277,8.755l-0.009,1.408
			c0,2.586,0.094,7.919,0.768,14.601c0.469,4.693-2.953,8.875-7.637,9.344C300.026,320.02,299.736,320.029,299.454,320.029
			 M322.051,373.635c-1.749,0-3.507-0.529-5.026-1.647c-5.171-3.78-9.694-8.943-13.44-15.36c-2.372-4.07-0.998-9.293,3.063-11.674
			c4.079-2.355,9.301-1.007,11.674,3.063c2.56,4.378,5.504,7.808,8.772,10.197c3.806,2.782,4.634,8.124,1.852,11.93
			C327.273,372.424,324.679,373.635,322.051,373.635"/>
		<path style="fill:#1F2F3D;" d="M230.217,320.02c-0.162,0-0.324,0-0.486-0.009c-4.71-0.273-8.303-4.301-8.047-9.003
			c0.239-4.105,0.307-7.706,0.307-10.479c0-3.456-0.111-5.581-0.111-5.692c-0.239-4.702,3.371-8.704,8.073-8.951
			c4.719-0.23,8.721,3.371,8.969,8.064c0,0,0.137,2.475,0.137,6.579c0,3.021-0.077,6.963-0.324,11.435
			C238.468,316.505,234.705,320.02,230.217,320.02 M210.948,374.915c-2.594,0-5.146-1.178-6.827-3.396
			c-2.833-3.772-2.074-9.122,1.69-11.955c2.927-2.202,5.547-5.658,7.774-10.274c2.057-4.241,7.168-6.025,11.401-3.959
			c4.241,2.048,6.016,7.151,3.959,11.392c-3.422,7.083-7.757,12.629-12.868,16.478C214.541,374.361,212.732,374.915,210.948,374.915
			"/>
	</g>
	<g>
		<path style="fill:#42A557;" d="M145.067,456.533c-4.71,0-8.533-3.823-8.533-8.533c0-4.702-3.831-8.533-8.533-8.533
			c-4.702,0-8.533,3.831-8.533,8.533c0,4.71-3.823,8.533-8.533,8.533c-4.71,0-8.533-3.823-8.533-8.533
			c0-9.412-7.654-17.067-17.067-17.067c-4.71,0-8.533-3.823-8.533-8.533c0-4.702-3.831-8.533-8.533-8.533s-8.533,3.831-8.533,8.533
			c0,4.71-3.823,8.533-8.533,8.533H34.133c-9.412,0-17.067,7.654-17.067,17.067c0,4.71-3.823,8.533-8.533,8.533S0,452.71,0,448
			c0-18.825,15.309-34.133,34.133-34.133h9.993c3.524-9.933,13.013-17.067,24.141-17.067c11.418,0,21.12,7.518,24.405,17.86
			c8.107,1.783,15.138,6.451,19.968,12.877c4.275-3.226,9.6-5.137,15.36-5.137c14.114,0,25.6,11.486,25.6,25.6
			C153.6,452.71,149.777,456.533,145.067,456.533"/>
		<path style="fill:#42A557;" d="M179.2,507.733c-14.114,0-25.6-11.494-25.6-25.617c0-11.537,7.663-21.316,18.176-24.508
			c3.2-10.487,12.962-18.142,24.491-18.142c11.418,0,21.12,7.518,24.405,17.86c8.107,1.783,15.138,6.451,19.968,12.877
			c4.275-3.226,9.6-5.137,15.36-5.137c14.114,0,25.6,11.486,25.6,25.6c0,4.71-3.823,8.533-8.533,8.533s-8.533-3.823-8.533-8.533
			c0-4.702-3.831-8.533-8.533-8.533c-4.702,0-8.533,3.831-8.533,8.533c0,4.71-3.823,8.533-8.533,8.533s-8.533-3.823-8.533-8.533
			c0-9.412-7.654-17.067-17.067-17.067c-4.71,0-8.533-3.823-8.533-8.533c0-4.702-3.831-8.533-8.533-8.533s-8.533,3.831-8.533,8.533
			c0,4.855-4.139,8.687-8.96,8.525c-4.506,0.222-8.107,3.959-8.107,8.525c0,4.71,3.831,8.55,8.533,8.55
			c4.71,0,8.533,3.823,8.533,8.533C187.733,503.91,183.91,507.733,179.2,507.733"/>
		<path style="fill:#42A557;" d="M366.933,507.733c-14.114,0-25.6-11.494-25.6-25.617c0-11.537,7.663-21.316,18.176-24.508
			c3.2-10.487,12.962-18.142,24.491-18.142c11.418,0,21.12,7.518,24.405,17.86c8.107,1.783,15.138,6.451,19.968,12.877
			c4.275-3.226,9.6-5.137,15.36-5.137c14.114,0,25.6,11.486,25.6,25.6c0,4.71-3.823,8.533-8.533,8.533s-8.533-3.823-8.533-8.533
			c0-4.702-3.831-8.533-8.533-8.533c-4.702,0-8.533,3.831-8.533,8.533c0,4.71-3.823,8.533-8.533,8.533s-8.533-3.823-8.533-8.533
			c0-9.412-7.654-17.067-17.067-17.067c-4.71,0-8.533-3.823-8.533-8.533c0-4.702-3.831-8.533-8.533-8.533
			c-4.702,0-8.533,3.831-8.533,8.533c0,4.855-4.13,8.687-8.96,8.525c-4.506,0.222-8.107,3.959-8.107,8.525
			c0,4.71,3.831,8.55,8.533,8.55c4.71,0,8.533,3.823,8.533,8.533C375.467,503.91,371.644,507.733,366.933,507.733"/>
		<path style="fill:#42A557;" d="M503.467,465.067c-4.71,0-8.533-3.823-8.533-8.533c0-4.702-3.831-8.533-8.533-8.533
			s-8.533,3.831-8.533,8.533c0,4.71-3.823,8.533-8.533,8.533c-4.71,0-8.533-3.823-8.533-8.533c0-9.412-7.654-17.067-17.067-17.067
			c-4.71,0-8.533-3.823-8.533-8.533c0-4.702-3.831-8.533-8.533-8.533s-8.533,3.831-8.533,8.533c0,4.71-3.823,8.533-8.533,8.533
			c-4.71,0-8.533-3.823-8.533-8.533v-0.009c0.009-14.114,11.486-25.591,25.6-25.591c11.418,0,21.12,7.518,24.405,17.86
			c8.107,1.783,15.138,6.451,19.968,12.877c4.275-3.226,9.6-5.137,15.36-5.137c14.114,0,25.6,11.486,25.6,25.6
			C512,461.244,508.177,465.067,503.467,465.067"/>
	</g>
	<path style="fill:#ECF0F1;" d="M162.98,337.349l13.781,4.591l-65.826-98.739L45.109,341.94l13.781-4.591
		C92.674,326.085,129.196,326.085,162.98,337.349"/>
	<g>
		<path style="fill:#8697CB;" d="M420.271,217.237c-2.039,0-4.087-0.725-5.726-2.21c-3.49-3.157-3.755-8.559-0.597-12.049
			l22.647-25.011l-29.372-16.589c-4.096-2.321-5.547-7.526-3.226-11.631c2.313-4.105,7.518-5.555,11.631-3.234l38.647,21.845
			c2.253,1.28,3.806,3.516,4.224,6.067c0.41,2.56-0.358,5.171-2.099,7.091l-29.798,32.913
			C424.913,216.29,422.601,217.237,420.271,217.237"/>
		<path style="fill:#8697CB;" d="M384.046,230.325c-1.596,0-3.209-0.444-4.651-1.382c-3.951-2.577-5.06-7.859-2.492-11.81
			l18.423-28.254l-31.607-11.776c-4.42-1.647-6.665-6.554-5.018-10.974c1.647-4.42,6.545-6.665,10.974-5.018l41.6,15.497
			c2.432,0.905,4.318,2.867,5.129,5.325c0.811,2.466,0.461,5.163-0.956,7.33l-24.243,37.188
			C389.567,228.96,386.837,230.325,384.046,230.325"/>
		<path style="fill:#8697CB;" d="M460.271,213.333c-2.5,0-4.983-1.092-6.665-3.2c-2.944-3.686-2.355-9.054,1.331-11.998
			l26.334-21.069l-26.334-21.069c-3.686-2.944-4.275-8.311-1.331-11.998c2.944-3.686,8.311-4.267,11.989-1.331l34.671,27.733
			c2.022,1.621,3.2,4.07,3.2,6.665c0,2.594-1.178,5.043-3.2,6.665l-34.671,27.733C464.026,212.719,462.14,213.333,460.271,213.333"
			/>
	</g>
	<path style="fill:#7F8C8D;" d="M281.6,21.333c14.14,0,25.6,11.46,25.6,25.6s-11.46,25.6-25.6,25.6h-17.067
		c-9.429,0-17.067-7.637-17.067-17.067c-9.429,0-17.067-7.637-17.067-17.067s7.637-17.067,17.067-17.067
		c0-9.429,7.637-17.067,17.067-17.067C273.963,4.267,281.6,11.904,281.6,21.333"/>
	<polygon style="fill:#35495E;" points="352.383,260.485 307.199,234.663 290.133,268.797 264.533,200.53 238.932,268.797 
		221.866,234.663 176.682,260.485 157.763,313.452 213.333,396.797 401.066,396.797 	"/>
	<path style="fill:#1F2F3D;" d="M176.762,341.943l-13.781-4.591c-33.783-11.264-70.306-11.264-104.09,0l-13.79,4.591L8.536,396.803
		h204.8L176.762,341.943z"/>
	<path style="fill:#42A557;" d="M256,448c-14.114,0-25.6-11.494-25.6-25.617c0-11.537,7.663-21.316,18.176-24.508
		c3.2-10.487,12.962-18.142,24.491-18.142c11.418,0,21.12,7.518,24.405,17.86c8.107,1.783,15.138,6.451,19.968,12.877
		c4.275-3.226,9.6-5.137,15.36-5.137c14.114,0,25.6,11.486,25.6,25.6c0,4.71-3.823,8.533-8.533,8.533
		c-4.71,0-8.533-3.823-8.533-8.533c0-4.702-3.831-8.533-8.533-8.533s-8.533,3.831-8.533,8.533c0,4.71-3.823,8.533-8.533,8.533
		c-4.71,0-8.533-3.823-8.533-8.533c0-9.412-7.654-17.067-17.067-17.067c-4.71,0-8.533-3.823-8.533-8.533
		c0-4.702-3.831-8.533-8.533-8.533c-4.702,0-8.533,3.831-8.533,8.533c0,4.847-4.122,8.593-8.96,8.525
		c-4.506,0.222-8.107,3.959-8.107,8.525c0,4.71,3.831,8.55,8.533,8.55c4.71,0,8.533,3.823,8.533,8.533
		C264.533,444.177,260.71,448,256,448"/>
</g>
</svg>