<svg viewBox="0 0 256 256" width="256" height="256">
  <!-- Bright Pink Circle -->
  <circle cx="80" cy="100" r="50" fill="rgb(255, 105, 180)" opacity="0.8" />

  <!-- Bright Blue Ellipse -->
  <ellipse cx="150" cy="120" rx="60" ry="40" fill="rgb(0, 191, 255)" opacity="0.8" />

  <!-- Bright Yellow Polygon -->
  <polygon points="200,50 250,100 200,150 150,100" fill="rgb(255, 215, 0)" opacity="0.8" />

  <!-- Bright Green Circle -->
  <circle cx="180" cy="180" r="40" fill="rgb(50, 205, 50)" opacity="0.8" />

  <!-- Bright Purple Ellipse -->
  <ellipse cx="100" cy="200" rx="50" ry="30" fill="rgb(147, 112, 219)" opacity="0.8" />

  <!-- Bright Orange Circle -->
  <circle cx="50" cy="150" r="30" fill="rgb(255, 165, 0)" opacity="0.8" />

  <!-- Bright Teal Ellipse -->
  <ellipse cx="220" cy="80" rx="40" ry="30" fill="rgb(0, 206, 209)" opacity="0.8" />

  <!-- Bright Lavender Polygon -->
  <polygon points="30,80 80,50 130,80 80,110" fill="rgb(230, 230, 250)" opacity="0.8" />

  <!-- Additional Irregular Shapes -->
  <!-- Bright Red Triangle -->
  <polygon points="10,10 60,10 35,60" fill="rgb(255, 0, 0)" opacity="0.8" />

  <!-- Bright Cyan Rectangle -->
  <rect x="200" y="200" width="40" height="60" fill="rgb(0, 255, 255)" opacity="0.8" />

  <!-- Bright Magenta Hexagon -->
  <polygon points="100,10 140,10 160,50 140,90 100,90 80,50" fill="rgb(255, 0, 255)" opacity="0.8" />
</svg>