<svg viewBox="0 0 256 256" width="256" height="256">
  <!-- Bold Red Curve -->
  <path d="M0,128 C50,50 100,200 150,100 C200,0 256,128 256,128" fill="none" stroke="rgb(255, 0, 0)" stroke-width="8" />

  <!-- Bold Blue Curve -->
  <path d="M0,128 C50,200 100,50 150,150 C200,250 256,128 256,128" fill="none" stroke="rgb(0, 0, 255)" stroke-width="8" />

  <!-- Bold Green Curve -->
  <path d="M0,128 C50,100 100,150 150,50 C200,-50 256,128 256,128" fill="none" stroke="rgb(0, 255, 0)" stroke-width="8" />

  <!-- Bold Yellow Curve -->
  <path d="M0,128 C50,150 100,100 150,200 C200,300 256,128 256,128" fill="none" stroke="rgb(255, 255, 0)" stroke-width="8" />

  <!-- Bold Purple Curve -->
  <path d="M0,128 C50,180 100,80 150,120 C200,160 256,128 256,128" fill="none" stroke="rgb(128, 0, 128)" stroke-width="8" />
</svg>