<svg viewBox="0 0 256 256" width="256" height="256">
  <!-- Sky (blue) -->
  <rect x="0" y="0" width="256" height="128" fill="rgb(135, 206, 250)" />

  <!-- Ocean (blue) -->
  <rect x="0" y="128" width="256" height="128" fill="rgb(0, 121, 184)" />

  <!-- Sandy Island -->
  <ellipse cx="128" cy="160" rx="80" ry="40" fill="rgb(244, 164, 96)" />

  <!-- Palm Tree Trunk -->
  <rect x="120" y="120" width="16" height="60" fill="rgb(139, 69, 19)" />

  <!-- Palm Tree Leaves -->
  <path d="M128,120 C100,100 80,80 60,100 C40,120 20,140 40,160 C60,180 80,160 100,140 C120,120 140,100 128,120 Z" fill="rgb(34, 139, 34)" />
  <path d="M128,120 C156,100 176,80 196,100 C216,120 236,140 216,160 C196,180 176,160 156,140 C136,120 116,100 128,120 Z" fill="rgb(34, 139, 34)" />
  <path d="M128,120 C140,100 160,80 180,60 C200,40 220,60 200,80 C180,100 160,120 140,140 C120,160 100,180 80,160 C60,140 80,120 100,100 C120,80 140,100 128,120 Z" fill="rgb(34, 139, 34)" />
</svg>