<svg viewBox="0 0 256 256" width="256" height="256">
  <!-- Zigzag Line 1 -->
  <polyline points="0,50 50,100 100,50 150,100 200,50 250,100" fill="none" stroke="rgb(255, 0, 0)" stroke-width="5" />

  <!-- Zigzag Line 2 -->
  <polyline points="0,150 50,100 100,150 150,100 200,150 250,100" fill="none" stroke="rgb(0, 255, 0)" stroke-width="5" />

  <!-- Zigzag Line 3 -->
  <polyline points="0,200 50,150 100,200 150,150 200,200 250,150" fill="none" stroke="rgb(0, 0, 255)" stroke-width="5" />

  <!-- Zigzag Line 4 -->
  <polyline points="0,100 50,150 100,100 150,150 200,100 250,150" fill="none" stroke="rgb(255, 255, 0)" stroke-width="5" />

  <!-- Zigzag Line 5 -->
  <polyline points="0,250 50,200 100,250 150,200 200,250 250,200" fill="none" stroke="rgb(255, 0, 255)" stroke-width="5" />
</svg>