<svg viewBox="0 0 250 250" width="250" height="250" xmlns="http://www.w3.org/2000/svg">
  <!-- Define a grid of 5x5 circles in different shades of green -->
  <circle cx="30" cy="30" r="20" fill="rgb(0, 128, 0)" />
  <circle cx="80" cy="30" r="20" fill="rgb(34, 139, 34)" />
  <circle cx="130" cy="30" r="20" fill="rgb(50, 205, 50)" />
  <circle cx="180" cy="30" r="20" fill="rgb(124, 252, 0)" />
  <circle cx="230" cy="30" r="20" fill="rgb(0, 255, 0)" />

  <circle cx="30" cy="80" r="20" fill="rgb(0, 100, 0)" />
  <circle cx="80" cy="80" r="20" fill="rgb(0, 150, 0)" />
  <circle cx="130" cy="80" r="20" fill="rgb(0, 200, 0)" />
  <circle cx="180" cy="80" r="20" fill="rgb(0, 250, 0)" />
  <circle cx="230" cy="80" r="20" fill="rgb(50, 150, 50)" />

  <circle cx="30" cy="130" r="20" fill="rgb(0, 128, 128)" />
  <circle cx="80" cy="130" r="20" fill="rgb(0, 139, 139)" />
  <circle cx="130" cy="130" r="20" fill="rgb(0, 205, 205)" />
  <circle cx="180" cy="130" r="20" fill="rgb(0, 252, 252)" />
  <circle cx="230" cy="130" r="20" fill="rgb(0, 255, 255)" />

  <circle cx="30" cy="180" r="20" fill="rgb(0, 128, 64)" />
  <circle cx="80" cy="180" r="20" fill="rgb(0, 139, 69)" />
  <circle cx="130" cy="180" r="20" fill="rgb(0, 205, 102)" />
  <circle cx="180" cy="180" r="20" fill="rgb(0, 252, 126)" />
  <circle cx="230" cy="180" r="20" fill="rgb(0, 255, 127)" />

  <circle cx="30" cy="230" r="20" fill="rgb(0, 64, 128)" />
  <circle cx="80" cy="230" r="20" fill="rgb(0, 69, 139)" />
  <circle cx="130" cy="230" r="20" fill="rgb(0, 102, 205)" />
  <circle cx="180" cy="230" r="20" fill="rgb(0, 126, 252)" />
  <circle cx="230" cy="230" r="20" fill="rgb(0, 127, 255)" />
</svg>