<svg viewBox="0 0 256 256" width="256" height="256">
  <!-- Zigzag Line 1 -->
  <polyline points="0,50 50,100 100,50 150,100 200,50 250,100" fill="none" stroke="rgb(255, 182, 193)" stroke-width="5" />

  <!-- Zigzag Line 2 -->
  <polyline points="0,100 50,150 100,100 150,150 200,100 250,150" fill="none" stroke="rgb(173, 216, 230)" stroke-width="5" />

  <!-- Zigzag Line 3 -->
  <polyline points="0,150 50,200 100,150 150,200 200,150 250,200" fill="none" stroke="rgb(255, 239, 213)" stroke-width="5" />

  <!-- Zigzag Line 4 -->
  <polyline points="0,200 50,250 100,200 150,250 200,200 250,250" fill="none" stroke="rgb(152, 251, 152)" stroke-width="5" />

  <!-- Zigzag Line 5 -->
  <polyline points="0,0 50,50 100,0 150,50 200,0 250,50" fill="none" stroke="rgb(221, 160, 221)" stroke-width="5" />

  <!-- Zigzag Line 6 -->
  <polyline points="0,250 50,200 100,250 150,200 200,250 250,200" fill="none" stroke="rgb(255, 218, 185)" stroke-width="5" />

  <!-- Zigzag Line 7 -->
  <polyline points="0,100 50,50 100,100 150,50 200,100 250,50" fill="none" stroke="rgb(175, 238, 238)" stroke-width="5" />

  <!-- Zigzag Line 8 -->
  <polyline points="0,150 50,100 100,150 150,100 200,150 250,100" fill="none" stroke="rgb(230, 230, 250)" stroke-width="5" />
</svg>