<svg viewBox="0 0 256 256" width="256" height="256">
  <!-- Sky with gradient for a volcanic atmosphere -->
  <defs>
    <linearGradient id="skyGradient" x1="0" y1="0" x2="0" y2="1">
      <stop offset="0%" stop-color="rgb(139, 69, 19)" />
      <stop offset="100%" stop-color="rgb(105, 105, 105)" />
    </linearGradient>
  </defs>
  <rect x="0" y="0" width="256" height="128" fill="url(#skyGradient)" />

  <!-- Volcanic Ground -->
  <rect x="0" y="128" width="256" height="128" fill="rgb(64, 64, 64)" />

  <!-- Volcanic Vents -->
  <g transform="translate(50, 128)">
    <!-- Vent 1 -->
    <ellipse cx="30" cy="20" rx="15" ry="10" fill="rgb(139, 69, 19)" />
    <ellipse cx="30" cy="10" rx="10" ry="5" fill="rgb(105, 105, 105)" />
    <ellipse cx="30" cy="0" rx="5" ry="2" fill="rgb(255, 255, 255)" />

    <!-- Vent 2 -->
    <ellipse cx="80" cy="20" rx="15" ry="10" fill="rgb(139, 69, 19)" />
    <ellipse cx="80" cy="10" rx="10" ry="5" fill="rgb(105, 105, 105)" />
    <ellipse cx="80" cy="0" rx="5" ry="2" fill="rgb(255, 255, 255)" />

    <!-- Vent 3 -->
    <ellipse cx="130" cy="20" rx="15" ry="10" fill="rgb(139, 69, 19)" />
    <ellipse cx="130" cy="10" rx="10" ry="5" fill="rgb(105, 105, 105)" />
    <ellipse cx="130" cy="0" rx="5" ry="2" fill="rgb(255, 255, 255)" />
  </g>

  <!-- Steam -->
  <g transform="translate(50, 128)">
    <!-- Steam from Vent 1 -->
    <ellipse cx="30" cy="-20" rx="10" ry="15" fill="rgb(255, 255, 255)" opacity="0.5" />
    <ellipse cx="30" cy="-40" rx="8" ry="12" fill="rgb(255, 255, 255)" opacity="0.4" />
    <ellipse cx="30" cy="-60" rx="6" ry="9" fill="rgb(255, 255, 255)" opacity="0.3" />

    <!-- Steam from Vent 2 -->
    <ellipse cx="80" cy="-20" rx="10" ry="15" fill="rgb(255, 255, 255)" opacity="0.5" />
    <ellipse cx="80" cy="-40" rx="8" ry="12" fill="rgb(255, 255, 255)" opacity="0.4" />
    <ellipse cx="80" cy="-60" rx="6" ry="9" fill="rgb(255, 255, 255)" opacity="0.3" />

    <!-- Steam from Vent 3 -->
    <ellipse cx="130" cy="-20" rx="10" ry="15" fill="rgb(255, 255, 255)" opacity="0.5" />
    <ellipse cx="130" cy="-40" rx="8" ry="12" fill="rgb(255, 255, 255)" opacity="0.4" />
    <ellipse cx="130" cy="-60" rx="6" ry="9" fill="rgb(255, 255, 255)" opacity="0.3" />
  </g>
</svg>