<svg viewBox="0 0 256 256" width="256" height="256">
  <!-- Wavy Line 1 -->
  <path d="M0,50 C50,30 100,70 150,40 C200,10 256,50 256,50" fill="none" stroke="rgb(255, 182, 193)" stroke-width="10" />

  <!-- Wavy Line 2 -->
  <path d="M0,100 C50,80 100,120 150,90 C200,60 256,100 256,100" fill="none" stroke="rgb(173, 216, 230)" stroke-width="10" />

  <!-- Wavy Line 3 -->
  <path d="M0,150 C50,130 100,170 150,140 C200,110 256,150 256,150" fill="none" stroke="rgb(255, 239, 213)" stroke-width="10" />

  <!-- Wavy Line 4 -->
  <path d="M0,200 C50,180 100,220 150,190 C200,160 256,200 256,200" fill="none" stroke="rgb(152, 251, 152)" stroke-width="10" />

  <!-- Wavy Line 5 -->
  <path d="M0,250 C50,230 100,270 150,240 C200,210 256,250 256,250" fill="none" stroke="rgb(221, 160, 221)" stroke-width="10" />

  <!-- Wavy Line 6 -->
  <path d="M0,300 C50,280 100,320 150,290 C200,260 256,300 256,300" fill="none" stroke="rgb(255, 218, 185)" stroke-width="10" />

  <!-- Wavy Line 7 -->
  <path d="M0,350 C50,330 100,370 150,340 C200,310 256,350 256,350" fill="none" stroke="rgb(175, 238, 238)" stroke-width="10" />

  <!-- Wavy Line 8 -->
  <path d="M0,400 C50,380 100,420 150,390 C200,360 256,400 256,400" fill="none" stroke="rgb(230, 230, 250)" stroke-width="10" />
</svg>