<svg viewBox="0 0 256 256" width="256" height="256">
  <!-- Zigzag Line 1 -->
  <polyline points="0,50 50,100 100,50 150,100 200,50 250,100" fill="none" stroke="rgb(255, 182, 193)" stroke-width="5" opacity="0.8" />

  <!-- Zigzag Line 2 -->
  <polyline points="0,120 50,170 100,120 150,170 200,120 250,170" fill="none" stroke="rgb(173, 216, 230)" stroke-width="5" opacity="0.8" />

  <!-- Zigzag Line 3 -->
  <polyline points="0,190 50,240 100,190 150,240 200,190 250,240" fill="none" stroke="rgb(255, 239, 213)" stroke-width="5" opacity="0.8" />

  <!-- Zigzag Line 4 -->
  <polyline points="0,80 50,130 100,80 150,130 200,80 250,130" fill="none" stroke="rgb(152, 251, 152)" stroke-width="5" opacity="0.8" />

  <!-- Zigzag Line 5 -->
  <polyline points="0,150 50,200 100,150 150,200 200,150 250,200" fill="none" stroke="rgb(221, 160, 221)" stroke-width="5" opacity="0.8" />

  <!-- Zigzag Line 6 -->
  <polyline points="0,30 50,80 100,30 150,80 200,30 250,80" fill="none" stroke="rgb(255, 218, 185)" stroke-width="5" opacity="0.8" />

  <!-- Zigzag Line 7 -->
  <polyline points="0,200 50,250 100,200 150,250 200,200 250,250" fill="none" stroke="rgb(175, 238, 238)" stroke-width="5" opacity="0.8" />

  <!-- Zigzag Line 8 -->
  <polyline points="0,100 50,150 100,100 150,150 200,100 250,150" fill="none" stroke="rgb(230, 230, 250)" stroke-width="5" opacity="0.8" />
</svg>