<svg viewBox="0 0 250 250" width="250" height="250" xmlns="http://www.w3.org/2000/svg">
  <!-- Define a gradient for the dots -->
  <defs>
    <radialGradient id="dotGradient" cx="50%" cy="50%" r="50%" fx="50%" fy="50%">
      <stop offset="0%" stop-color="rgb(255, 0, 0)" />
      <stop offset="100%" stop-color="rgb(0, 0, 255)" />
    </radialGradient>
  </defs>

  <!-- Pattern of dots -->
  <circle cx="30" cy="30" r="15" fill="url(#dotGradient)" />
  <circle cx="80" cy="30" r="15" fill="url(#dotGradient)" />
  <circle cx="130" cy="30" r="15" fill="url(#dotGradient)" />
  <circle cx="180" cy="30" r="15" fill="url(#dotGradient)" />
  <circle cx="230" cy="30" r="15" fill="url(#dotGradient)" />

  <circle cx="30" cy="80" r="15" fill="url(#dotGradient)" />
  <circle cx="80" cy="80" r="15" fill="url(#dotGradient)" />
  <circle cx="130" cy="80" r="15" fill="url(#dotGradient)" />
  <circle cx="180" cy="80" r="15" fill="url(#dotGradient)" />
  <circle cx="230" cy="80" r="15" fill="url(#dotGradient)" />

  <circle cx="30" cy="130" r="15" fill="url(#dotGradient)" />
  <circle cx="80" cy="130" r="15" fill="url(#dotGradient)" />
  <circle cx="130" cy="130" r="15" fill="url(#dotGradient)" />
  <circle cx="180" cy="130" r="15" fill="url(#dotGradient)" />
  <circle cx="230" cy="130" r="15" fill="url(#dotGradient)" />

  <circle cx="30" cy="180" r="15" fill="url(#dotGradient)" />
  <circle cx="80" cy="180" r="15" fill="url(#dotGradient)" />
  <circle cx="130" cy="180" r="15" fill="url(#dotGradient)" />
  <circle cx="180" cy="180" r="15" fill="url(#dotGradient)" />
  <circle cx="230" cy="180" r="15" fill="url(#dotGradient)" />

  <circle cx="30" cy="230" r="15" fill="url(#dotGradient)" />
  <circle cx="80" cy="230" r="15" fill="url(#dotGradient)" />
  <circle cx="130" cy="230" r="15" fill="url(#dotGradient)" />
  <circle cx="180" cy="230" r="15" fill="url(#dotGradient)" />
  <circle cx="230" cy="230" r="15" fill="url(#dotGradient)" />
</svg>