<svg viewBox="0 0 256 256" width="256" height="256">
  <!-- Flowing Curved Line 1 -->
  <path d="M0,100 C50,50 100,150 150,100 C200,50 256,100 256,100" fill="none" stroke="rgb(255, 182, 193)" stroke-width="10" opacity="0.8" />

  <!-- Flowing Curved Line 2 -->
  <path d="M0,150 C50,100 100,200 150,150 C200,100 256,150 256,150" fill="none" stroke="rgb(173, 216, 230)" stroke-width="10" opacity="0.8" />

  <!-- Flowing Curved Line 3 -->
  <path d="M0,200 C50,150 100,250 150,200 C200,150 256,200 256,200" fill="none" stroke="rgb(255, 239, 213)" stroke-width="10" opacity="0.8" />

  <!-- Flowing Curved Line 4 -->
  <path d="M0,50 C50,0 100,100 150,50 C200,0 256,50 256,50" fill="none" stroke="rgb(152, 251, 152)" stroke-width="10" opacity="0.8" />

  <!-- Flowing Curved Line 5 -->
  <path d="M0,250 C50,200 100,300 150,250 C200,200 256,250 256,250" fill="none" stroke="rgb(221, 160, 221)" stroke-width="10" opacity="0.8" />

  <!-- Flowing Curved Line 6 -->
  <path d="M0,0 C50,-50 100,50 150,0 C200,-50 256,0 256,0" fill="none" stroke="rgb(255, 218, 185)" stroke-width="10" opacity="0.8" />

  <!-- Flowing Curved Line 7 -->
  <path d="M0,300 C50,250 100,350 150,300 C200,250 256,300 256,300" fill="none" stroke="rgb(175, 238, 238)" stroke-width="10" opacity="0.8" />

  <!-- Flowing Curved Line 8 -->
  <path d="M0,350 C50,300 100,400 150,350 C200,300 256,350 256,350" fill="none" stroke="rgb(230, 230, 250)" stroke-width="10" opacity="0.8" />
</svg>