<svg viewBox="0 0 256 256" width="256" height="256">
  <!-- Sky with gradient -->
  <defs>
    <linearGradient id="skyGradient" x1="0" y1="0" x2="0" y2="1">
      <stop offset="0%" stop-color="rgb(135, 206, 235)" />
      <stop offset="100%" stop-color="rgb(173, 216, 230)" />
    </linearGradient>
  </defs>
  <rect x="0" y="0" width="256" height="128" fill="url(#skyGradient)" />

  <!-- Mountain Range -->
  <path d="M0,128 L50,80 L100,120 L150,60 L200,100 L256,128 V256 H0 Z" fill="rgb(139, 69, 19)" />
  <path d="M0,128 L30,100 L60,120 L90,80 L120,100 L150,60 L180,90 L210,70 L256,128 V256 H0 Z" fill="rgb(160, 82, 45)" />
  <path d="M0,128 L20,110 L40,120 L60,100 L80,110 L100,90 L120,100 L140,80 L160,90 L180,70 L200,80 L220,60 L256,128 V256 H0 Z" fill="rgb(205, 133, 63)" />
</svg>