<svg viewBox="0 0 256 256" width="256" height="256">
  <!-- Shirt outline -->
  <path d="M128,20 C100,20 80,40 80,80 L80,200 C80,220 100,240 128,240 C156,240 176,220 176,200 L176,80 C176,40 156,20 128,20 Z" fill="none" stroke="black" stroke-width="2"/>

  <!-- Collar -->
  <path d="M80,80 C80,60 100,40 128,40 C156,40 176,60 176,80 L176,90 C176,70 156,50 128,50 C100,50 80,70 80,90 Z" fill="white" stroke="black" stroke-width="1"/>

  <!-- Stripes -->
  <rect x="80" y="90" width="96" height="10" fill="rgb(0, 0, 128)"/> <!-- Navy -->
  <rect x="80" y="110" width="96" height="10" fill="white"/> <!-- White -->
  <rect x="80" y="130" width="96" height="10" fill="rgb(0, 0, 128)"/> <!-- Navy -->
  <rect x="80" y="150" width="96" height="10" fill="white"/> <!-- White -->
  <rect x="80" y="170" width="96" height="10" fill="rgb(0, 0, 128)"/> <!-- Navy -->
  <rect x="80" y="190" width="96" height="10" fill="white"/> <!-- White -->

  <!-- Buttons -->
  <circle cx="128" cy="100" r="4" fill="white" stroke="black" stroke-width="1"/>
  <circle cx="128" cy="120" r="4" fill="white" stroke="black" stroke-width="1"/>
  <circle cx="128" cy="140" r="4" fill="white" stroke="black" stroke-width="1"/>
  <circle cx="128" cy="160" r="4" fill="white" stroke="black" stroke-width="1"/>
  <circle cx="128" cy="180" r="4" fill="white" stroke="black" stroke-width="1"/>
</svg>