<svg viewBox="0 0 256 256" width="256" height="256">
  <!-- Ocean (blue) -->
  <rect x="0" y="128" width="256" height="128" fill="rgb(0, 121, 184)"/>

  <!-- Rocky coastline with more texture -->
  <path d="M0,128 L50,110 L100,140 L150,120 L200,130 L256,128 L256,140 L200,140 L150,130 L100,150 L50,130 L0,140 Z" fill="rgb(128, 128, 128)" />

  <!-- Crashing waves with more detail -->
  <path d="M20,128 C30,110 50,120 70,128 C60,140 40,130 20,128 Z" fill="rgb(255, 255, 255)" />
  <path d="M100,128 C110,110 130,120 150,128 C140,140 120,130 100,128 Z" fill="rgb(255, 255, 255)" />
  <path d="M180,128 C190,110 210,120 230,128 C220,140 200,130 180,128 Z" fill="rgb(255, 255, 255)" />
  <path d="M40,128 C50,110 70,120 90,128 C80,140 60,130 40,128 Z" fill="rgb(255, 255, 255)" />
  <path d="M120,128 C130,110 150,120 170,128 C160,140 140,130 120,128 Z" fill="rgb(255, 255, 255)" />
  <path d="M200,128 C210,110 230,120 250,128 C240,140 220,130 200,128 Z" fill="rgb(255, 255, 255)" />

  <!-- Additional wave details -->
  <path d="M10,128 C20,110 40,120 60,128 C50,140 30,130 10,128 Z" fill="rgb(255, 255, 255)" opacity="0.7" />
  <path d="M80,128 C90,110 110,120 130,128 C120,140 100,130 80,128 Z" fill="rgb(255, 255, 255)" opacity="0.7" />
  <path d="M160,128 C170,110 190,120 210,128 C200,140 180,130 160,128 Z" fill="rgb(255, 255, 255)" opacity="0.7" />
</svg>