<svg viewBox="0 0 100 150" width="100" height="150">
  <!-- Sweater Body -->
  <rect x="20" y="30" width="60" height="100" rx="10" ry="10" fill="rgb(128, 128, 128)" />

  <!-- V-neck -->
  <path d="M40,30 L50,50 L60,30" fill="none" stroke="rgb(128, 128, 128)" stroke-width="2" />

  <!-- Armholes -->
  <path d="M20,50 Q30,40 40,50" fill="none" stroke="rgb(128, 128, 128)" stroke-width="2" />
  <path d="M60,50 Q70,40 80,50" fill="none" stroke="rgb(128, 128, 128)" stroke-width="2" />

  <!-- Bottom Curve -->
  <path d="M20,130 Q50,140 80,130" fill="none" stroke="rgb(128, 128, 128)" stroke-width="2" />

  <!-- Knit Texture (Small Circles) -->
  <g fill="rgb(100, 100, 100)" opacity="0.5">
    <circle cx="30" cy="60" r="1" />
    <circle cx="40" cy="60" r="1" />
    <circle cx="50" cy="60" r="1" />
    <circle cx="60" cy="60" r="1" />
    <circle cx="70" cy="60" r="1" />
    <circle cx="30" cy="70" r="1" />
    <circle cx="40" cy="70" r="1" />
    <circle cx="50" cy="70" r="1" />
    <circle cx="60" cy="70" r="1" />
    <circle cx="70" cy="70" r="1" />
    <circle cx="30" cy="80" r="1" />
    <circle cx="40" cy="80" r="1" />
    <circle cx="50" cy="80" r="1" />
    <circle cx="60" cy="80" r="1" />
    <circle cx="70" cy="80" r="1" />
    <circle cx="30" cy="90" r="1" />
    <circle cx="40" cy="90" r="1" />
    <circle cx="50" cy="90" r="1" />
    <circle cx="60" cy="90" r="1" />
    <circle cx="70" cy="90" r="1" />
    <circle cx="30" cy="100" r="1" />
    <circle cx="40" cy="100" r="1" />
    <circle cx="50" cy="100" r="1" />
    <circle cx="60" cy="100" r="1" />
    <circle cx="70" cy="100" r="1" />
  </g>
</svg>