<svg viewBox="0 0 256 256" width="256" height="256">
  <!-- Left Loafer -->
  <g transform="translate(50, 100)">
    <!-- Loafer Shape -->
    <path d="M20,80 C20,40 60,20 100,20 C140,20 180,40 180,80 V120 C180,160 140,180 100,180 C60,180 20,160 20,120 Z" fill="rgb(139, 69, 19)" />
    <!-- Tassel Detail -->
    <line x1="100" y1="80" x2="100" y2="120" stroke="rgb(218, 165, 32)" stroke-width="4" />
    <circle cx="100" cy="120" r="8" fill="rgb(218, 165, 32)" />
  </g>

  <!-- Right Loafer -->
  <g transform="translate(150, 100)">
    <!-- Loafer Shape -->
    <path d="M20,80 C20,40 60,20 100,20 C140,20 180,40 180,80 V120 C180,160 140,180 100,180 C60,180 20,160 20,120 Z" fill="rgb(139, 69, 19)" />
    <!-- Tassel Detail -->
    <line x1="100" y1="80" x2="100" y2="120" stroke="rgb(218, 165, 32)" stroke-width="4" />
    <circle cx="100" cy="120" r="8" fill="rgb(218, 165, 32)" />
  </g>
</svg>