<svg viewBox="0 0 256 256" width="256" height="256">
  <!-- Hoodie outline -->
  <path d="M128,20 C100,20 80,40 80,80 L80,200 C80,220 100,240 128,240 C156,240 176,220 176,200 L176,80 C176,40 156,20 128,20 Z" fill="rgb(192, 192, 192)" stroke="black" stroke-width="2"/>

  <!-- Hood -->
  <path d="M80,80 C80,60 100,40 128,40 C156,40 176,60 176,80 L176,100 C176,120 156,140 128,140 C100,140 80,120 80,100 Z" fill="rgb(192, 192, 192)" stroke="black" stroke-width="2"/>

  <!-- Drawstrings -->
  <line x1="90" y1="90" x2="110" y2="90" stroke="black" stroke-width="2"/>
  <line x1="146" y1="90" x2="166" y2="90" stroke="black" stroke-width="2"/>
</svg>