<svg viewBox="0 0 256 256" width="256" height="256">
  <!-- Sky with soft gradient -->
  <defs>
    <linearGradient id="skyGradient" x1="0" y1="0" x2="0" y2="1">
      <stop offset="0%" stop-color="rgb(173, 216, 230)" />
      <stop offset="100%" stop-color="rgb(135, 206, 235)" />
    </linearGradient>
  </defs>
  <rect x="0" y="0" width="256" height="128" fill="url(#skyGradient)" />

  <!-- Lavender Field Base Layer -->
  <rect x="0" y="128" width="256" height="128" fill="rgb(34, 139, 34)" />

  <!-- Lavender Plants -->
  <g fill="rgb(106, 90, 205)">
    <rect x="20" y="140" width="10" height="40" />
    <rect x="40" y="130" width="10" height="50" />
    <rect x="60" y="140" width="10" height="40" />
    <rect x="80" y="135" width="10" height="45" />
    <rect x="100" y="140" width="10" height="40" />
    <rect x="120" y="130" width="10" height="50" />
    <rect x="140" y="140" width="10" height="40" />
    <rect x="160" y="135" width="10" height="45" />
    <rect x="180" y="140" width="10" height="40" />
    <rect x="200" y="130" width="10" height="50" />
    <rect x="220" y="140" width="10" height="40" />
    <rect x="240" y="135" width="10" height="45" />
  </g>

  <!-- Lavender Flower Tops -->
  <g fill="rgb(147, 112, 219)">
    <circle cx="25" cy="140" r="5" />
    <circle cx="45" cy="130" r="5" />
    <circle cx="65" cy="140" r="5" />
    <circle cx="85" cy="135" r="5" />
    <circle cx="105" cy="140" r="5" />
    <circle cx="125" cy="130" r="5" />
    <circle cx="145" cy="140" r="5" />
    <circle cx="165" cy="135" r="5" />
    <circle cx="185" cy="140" r="5" />
    <circle cx="205" cy="130" r="5" />
    <circle cx="225" cy="140" r="5" />
    <circle cx="245" cy="135" r="5" />
  </g>
</svg>