<svg viewBox="0 0 256 256" width="256" height="256">
  <!-- Left Glove -->
  <path d="M50,50 C50,80 60,120 50,150 C40,180 50,200 50,200 L100,200 L100,150 L150,150 L150,200 L200,200 L200,50 L150,50 L150,100 L100,100 L100,50 Z" fill="rgb(139, 69, 19)" />

  <!-- Right Glove -->
  <path d="M206,50 C206,80 196,120 206,150 C216,180 206,200 206,200 L156,200 L156,150 L106,150 L106,200 L56,200 L56,50 L106,50 L106,100 L156,100 L156,50 Z" fill="rgb(139, 69, 19)" />

  <!-- Snap Closure on Left Glove -->
  <circle cx="125" cy="125" r="10" fill="rgb(192, 192, 192)" />

  <!-- Snap Closure on Right Glove -->
  <circle cx="131" cy="125" r="10" fill="rgb(192, 192, 192)" />
</svg>