<svg viewBox="0 0 256 256" width="256" height="256">
  <!-- Chinos Outline -->
  <path d="M80,80 C80,60 100,40 128,40 C156,40 176,60 176,80 L176,200 C176,220 156,240 128,240 C100,240 80,220 80,200 Z" fill="none" stroke="black" stroke-width="2"/>

  <!-- Chinos Fill -->
  <path d="M80,80 C80,60 100,40 128,40 C156,40 176,60 176,80 L176,200 C176,220 156,240 128,240 C100,240 80,220 80,200 Z" fill="rgb(139, 69, 19)"/>

  <!-- Belt Area -->
  <rect x="80" y="80" width="96" height="10" fill="rgb(101, 67, 33)"/>

  <!-- Slim Fit Details -->
  <path d="M80,90 L80,200" stroke="black" stroke-width="2"/>
  <path d="M176,90 L176,200" stroke="black" stroke-width="2"/>
</svg>