<svg viewBox="0 0 256 256" width="256" height="256">
  <!-- Left Shoe -->
  <path d="M50,160 C50,140 70,120 100,120 C130,120 150,140 150,160 L150,220 C150,240 130,260 100,260 C70,260 50,240 50,220 Z" fill="rgb(50, 50, 50)" stroke="black" stroke-width="2"/>
  <path d="M60,170 C60,150 75,135 95,135 C115,135 130,150 130,170 L130,210 C130,230 115,245 95,245 C75,245 60,230 60,210 Z" fill="rgb(70, 70, 70)"/>
  <ellipse cx="95" cy="190" rx="10" ry="5" fill="rgb(90, 90, 90)"/>
  
  <!-- Right Shoe -->
  <path d="M150,160 C150,140 170,120 200,120 C230,120 250,140 250,160 L250,220 C250,240 230,260 200,260 C170,260 150,240 150,220 Z" fill="rgb(50, 50, 50)" stroke="black" stroke-width="2"/>
  <path d="M160,170 C160,150 175,135 195,135 C215,135 230,150 230,170 L230,210 C230,230 215,245 195,245 C175,245 160,230 160,210 Z" fill="rgb(70, 70, 70)"/>
  <ellipse cx="195" cy="190" rx="10" ry="5" fill="rgb(90, 90, 90)"/>
</svg>