<svg viewBox="0 0 256 256" width="256" height="256">
  <!-- Shirt outline -->
  <path d="M128,20 C100,20 80,40 80,80 L80,200 C80,220 100,240 128,240 C156,240 176,220 176,200 L176,80 C176,40 156,20 128,20 Z" fill="none" stroke="black" stroke-width="2"/>

  <!-- Collar -->
  <path d="M80,80 C80,60 100,40 128,40 C156,40 176,60 176,80 L176,100 C176,120 156,140 128,140 C100,140 80,120 80,100 Z" fill="rgb(240, 240, 240)" stroke="black" stroke-width="1"/>

  <!-- Stripes -->
  <rect x="80" y="100" width="96" height="10" fill="rgb(0, 0, 128)"/> <!-- Navy -->
  <rect x="80" y="120" width="96" height="10" fill="white"/> <!-- White -->
  <rect x="80" y="140" width="96" height="10" fill="rgb(0, 0, 128)"/> <!-- Navy -->
  <rect x="80" y="160" width="96" height="10" fill="white"/> <!-- White -->
  <rect x="80" y="180" width="96" height="10" fill="rgb(0, 0, 128)"/> <!-- Navy -->
  <rect x="80" y="200" width="96" height="10" fill="white"/> <!-- White -->

  <!-- Buttons -->
  <circle cx="128" cy="90" r="4" fill="white" stroke="black" stroke-width="1"/>
  <circle cx="128" cy="110" r="4" fill="white" stroke="black" stroke-width="1"/>
  <circle cx="128" cy="130" r="4" fill="white" stroke="black" stroke-width="1"/>
  <circle cx="128" cy="150" r="4" fill="white" stroke="black" stroke-width="1"/>
  <circle cx="128" cy="170" r="4" fill="white" stroke="black" stroke-width="1"/>
</svg>