<svg viewBox="0 0 100 150" width="100" height="150">
  <!-- Sweater Body -->
  <rect x="20" y="30" width="60" height="100" rx="10" ry="10" fill="rgb(128, 128, 128)" />

  <!-- High Neck -->
  <rect x="30" y="20" width="40" height="10" rx="5" ry="5" fill="rgb(128, 128, 128)" />

  <!-- Armholes -->
  <path d="M20,50 Q30,40 40,50" fill="none" stroke="rgb(128, 128, 128)" stroke-width="2" />
  <path d="M60,50 Q70,40 80,50" fill="none" stroke="rgb(128, 128, 128)" stroke-width="2" />

  <!-- Bottom Curve -->
  <path d="M20,130 Q50,140 80,130" fill="none" stroke="rgb(128, 128, 128)" stroke-width="2" />

  <!-- Button Front -->
  <line x1="50" y1="40" x2="50" y2="130" stroke="rgb(128, 128, 128)" stroke-width="2" />

  <!-- Buttons -->
  <circle cx="50" cy="60" r="3" fill="rgb(128, 128, 128)" />
  <circle cx="50" cy="80" r="3" fill="rgb(128, 128, 128)" />
  <circle cx="50" cy="100" r="3" fill="rgb(128, 128, 128)" />
  <circle cx="50" cy="120" r="3" fill="rgb(128, 128, 128)" />

  <!-- Knit Texture Effect -->
  <g opacity="0.3">
    <line x1="25" y1="35" x2="25" y2="125" stroke="rgb(128, 128, 128)" stroke-width="1" />
    <line x1="30" y1="35" x2="30" y2="125" stroke="rgb(128, 128, 128)" stroke-width="1" />
    <line x1="35" y1="35" x2="35" y2="125" stroke="rgb(128, 128, 128)" stroke-width="1" />
    <line x1="40" y1="35" x2="40" y2="125" stroke="rgb(128, 128, 128)" stroke-width="1" />
    <line x1="45" y1="35" x2="45" y2="125" stroke="rgb(128, 128, 128)" stroke-width="1" />
    <line x1="55" y1="35" x2="55" y2="125" stroke="rgb(128, 128, 128)" stroke-width="1" />
    <line x1="60" y1="35" x2="60" y2="125" stroke="rgb(128, 128, 128)" stroke-width="1" />
    <line x1="65" y1="35" x2="65" y2="125" stroke="rgb(128, 128, 128)" stroke-width="1" />
    <line x1="70" y1="35" x2="70" y2="125" stroke="rgb(128, 128, 128)" stroke-width="1" />
    <line x1="75" y1="35" x2="75" y2="125" stroke="rgb(128, 128, 128)" stroke-width="1" />
  </g>
</svg>