<svg viewBox="0 0 256 256" width="256" height="256">
  <!-- Left Mule -->
  <path d="M80,40 L80,200 C80,220 100,220 100,200 L100,40 Z" fill="rgb(135, 206, 235)" />
  <rect x="80" y="200" width="20" height="40" fill="rgb(135, 206, 235)" rx="5" />
  <rect x="80" y="220" width="20" height="10" fill="rgb(100, 149, 237)" rx="5" />

  <!-- Right Mule -->
  <path d="M136,40 L136,200 C136,220 156,220 156,200 L156,40 Z" fill="rgb(135, 206, 235)" />
  <rect x="136" y="200" width="20" height="40" fill="rgb(135, 206, 235)" rx="5" />
  <rect x="136" y="220" width="20" height="10" fill="rgb(100, 149, 237)" rx="5" />

  <!-- Waistband -->
  <rect x="80" y="20" width="96" height="20" fill="rgb(135, 206, 235)" rx="10" />

  <!-- Left Block Heel -->
  <rect x="80" y="200" width="20" height="20" fill="rgb(100, 149, 237)" rx="5" />

  <!-- Right Block Heel -->
  <rect x="136" y="200" width="20" height="20" fill="rgb(100, 149, 237)" rx="5" />
</svg>