<svg viewBox="0 0 256 256" width="256" height="256">
  <!-- Left Slipper -->
  <path d="M50,150 C50,120 80,100 110,100 C140,100 160,120 160,150 L160,200 L50,200 Z" fill="rgb(173, 216, 230)" />
  <path d="M50,150 C50,120 80,100 110,100 C140,100 160,120 160,150" fill="none" stroke="rgb(0, 0, 0)" stroke-width="2" />
  
  <!-- Right Slipper -->
  <path d="M170,150 C170,120 200,100 230,100 C260,100 280,120 280,150 L280,200 L170,200 Z" fill="rgb(173, 216, 230)" />
  <path d="M170,150 C170,120 200,100 230,100 C260,100 280,120 280,150" fill="none" stroke="rgb(0, 0, 0)" stroke-width="2" />
  
  <!-- Soft Sole for Left Slipper -->
  <path d="M50,200 L160,200 C160,220 140,240 110,240 C80,240 50,220 50,200 Z" fill="rgb(245, 245, 220)" />
  
  <!-- Soft Sole for Right Slipper -->
  <path d="M170,200 L280,200 C280,220 260,240 230,240 C200,240 170,220 170,200 Z" fill="rgb(245, 245, 220)" />
</svg>