<svg viewBox="0 0 256 256" width="256" height="256">
  <!-- Left Leg -->
  <path d="M80,40 C80,20 100,0 128,0 C156,0 176,20 176,40 L176,200 C176,220 156,240 128,240 C100,240 80,220 80,200 Z" fill="rgb(0, 0, 128)" stroke="black" stroke-width="2"/>

  <!-- Right Leg -->
  <path d="M176,40 C176,20 196,0 224,0 C252,0 272,20 272,40 L272,200 C272,220 252,240 224,240 C196,240 176,220 176,200 Z" fill="rgb(0, 0, 128)" stroke="black" stroke-width="2"/>

  <!-- Mesh Panel on Left Leg -->
  <defs>
    <pattern id="meshPattern" x="0" y="0" width="10" height="10" patternUnits="userSpaceOnUse">
      <rect x="0" y="0" width="5" height="5" fill="white"/>
      <rect x="5" y="5" width="5" height="5" fill="white"/>
    </pattern>
  </defs>
  <rect x="100" y="60" width="56" height="140" fill="url(#meshPattern)" stroke="black" stroke-width="1"/>
</svg>