<svg viewBox="0 0 256 256" width="256" height="256">
  <!-- Sky (light blue) -->
  <rect x="0" y="0" width="256" height="128" fill="rgb(135, 206, 235)"/>

  <!-- Jungle Base Layer (dark green) -->
  <rect x="0" y="128" width="256" height="128" fill="rgb(0, 100, 0)"/>

  <!-- Trees -->
  <rect x="20" y="100" width="10" height="80" fill="rgb(139, 69, 19)"/>
  <rect x="60" y="80" width="10" height="100" fill="rgb(139, 69, 19)"/>
  <rect x="100" y="90" width="10" height="90" fill="rgb(139, 69, 19)"/>
  <rect x="140" y="70" width="10" height="110" fill="rgb(139, 69, 19)"/>
  <rect x="180" y="100" width="10" height="80" fill="rgb(139, 69, 19)"/>
  <rect x="220" y="80" width="10" height="100" fill="rgb(139, 69, 19)"/>

  <!-- Tree Foliage -->
  <circle cx="25" cy="100" r="20" fill="rgb(34, 139, 34)"/>
  <circle cx="65" cy="80" r="20" fill="rgb(34, 139, 34)"/>
  <circle cx="105" cy="90" r="20" fill="rgb(34, 139, 34)"/>
  <circle cx="145" cy="70" r="20" fill="rgb(34, 139, 34)"/>
  <circle cx="185" cy="100" r="20" fill="rgb(34, 139, 34)"/>
  <circle cx="225" cy="80" r="20" fill="rgb(34, 139, 34)"/>

  <!-- Vines -->
  <path d="M25,120 Q30,140 40,150 T60,160" stroke="rgb(0, 100, 0)" stroke-width="3" fill="none"/>
  <path d="M65,100 Q70,120 80,130 T100,140" stroke="rgb(0, 100, 0)" stroke-width="3" fill="none"/>
  <path d="M105,110 Q110,130 120,140 T140,150" stroke="rgb(0, 100, 0)" stroke-width="3" fill="none"/>
  <path d="M145,90 Q150,110 160,120 T180,130" stroke="rgb(0, 100, 0)" stroke-width="3" fill="none"/>
  <path d="M185,120 Q190,140 200,150 T220,160" stroke="rgb(0, 100, 0)" stroke-width="3" fill="none"/>
  <path d="M225,100 Q230,120 240,130 T256,140" stroke="rgb(0, 100, 0)" stroke-width="3" fill="none"/>
</svg>