<svg viewBox="0 0 256 256" width="256" height="256">
  <!-- Left Loafer -->
  <path d="M50,150 Q70,130 90,150 Q110,170 130,150 Q150,130 170,150 Q190,170 210,150 L210,200 Q190,220 170,200 Q150,180 130,200 Q110,220 90,200 Q70,180 50,200 Z" fill="rgb(139, 69, 19)" />
  
  <!-- Right Loafer -->
  <path d="M50,50 Q70,30 90,50 Q110,70 130,50 Q150,30 170,50 Q190,70 210,50 L210,100 Q190,120 170,100 Q150,80 130,100 Q110,120 90,100 Q70,80 50,100 Z" fill="rgb(139, 69, 19)" />
  
  <!-- Penny Detail on Left Loafer -->
  <circle cx="130" cy="175" r="10" fill="rgb(184, 134, 11)" />
  
  <!-- Penny Detail on Right Loafer -->
  <circle cx="130" cy="75" r="10" fill="rgb(184, 134, 11)" />
</svg>