<svg viewBox="0 0 256 256" width="256" height="256">
  <!-- Left Sneaker -->
  <path d="M50,150 C50,120 70,100 100,100 C130,100 150,120 150,150 V200 C150,220 130,240 100,240 C70,240 50,220 50,200 Z" fill="white" stroke="black" stroke-width="2" />
  <path d="M60,200 C60,210 70,220 80,220 C90,220 100,210 100,200 V150 C100,140 90,130 80,130 C70,130 60,140 60,150 Z" fill="lightgray" />
  <path d="M70,140 C70,135 75,130 80,130 C85,130 90,135 90,140 V150 C90,155 85,160 80,160 C75,160 70,155 70,150 Z" fill="gray" />

  <!-- Right Sneaker -->
  <path d="M150,150 C150,120 170,100 200,100 C230,100 250,120 250,150 V200 C250,220 230,240 200,240 C170,240 150,220 150,200 Z" fill="white" stroke="black" stroke-width="2" />
  <path d="M160,200 C160,210 170,220 180,220 C190,220 200,210 200,200 V150 C200,140 190,130 180,130 C170,130 160,140 160,150 Z" fill="lightgray" />
  <path d="M170,140 C170,135 175,130 180,130 C185,130 190,135 190,140 V150 C190,155 185,160 180,160 C175,160 170,155 170,150 Z" fill="gray" />
</svg>