<svg viewBox="0 0 256 256" width="256" height="256">
  <!-- Left Boot -->
  <path d="M50,150 L50,200 C50,220 70,240 90,240 L110,240 C130,240 150,220 150,200 L150,150 Z" fill="rgb(139, 69, 19)" />
  <path d="M50,150 L50,200 C50,220 70,240 90,240 L110,240 C130,240 150,220 150,200 L150,150 Z" fill="rgb(139, 69, 19)" />
  <path d="M60,160 L60,190 C60,210 80,230 100,230 L110,230 C130,230 140,210 140,190 L140,160 Z" fill="rgb(245, 245, 220)" />

  <!-- Right Boot -->
  <path d="M160,150 L160,200 C160,220 180,240 200,240 L220,240 C240,240 250,220 250,200 L250,150 Z" fill="rgb(139, 69, 19)" />
  <path d="M160,150 L160,200 C160,220 180,240 200,240 L220,240 C240,240 250,220 250,200 L250,150 Z" fill="rgb(139, 69, 19)" />
  <path d="M170,160 L170,190 C170,210 190,230 210,230 L220,230 C240,230 240,210 240,190 L240,160 Z" fill="rgb(245, 245, 220)" />
</svg>