<svg viewBox="0 0 256 256" width="256" height="256">
  <!-- Left Boot -->
  <path d="M60,160 C60,120 80,100 100,100 L120,100 C140,100 160,120 160,160 L160,240 C160,250 150,260 140,260 L80,260 C70,260 60,250 60,240 Z" fill="rgb(139, 69, 19)" stroke="black" stroke-width="2"/>
  <!-- Left Boot Zipper -->
  <line x1="100" y1="120" x2="100" y2="220" stroke="black" stroke-width="2"/>
  <line x1="105" y1="120" x2="105" y2="220" stroke="black" stroke-width="2"/>
  <line x1="110" y1="120" x2="110" y2="220" stroke="black" stroke-width="2"/>

  <!-- Right Boot -->
  <path d="M160,160 C160,120 180,100 200,100 L220,100 C240,100 260,120 260,160 L260,240 C260,250 250,260 240,260 L180,260 C170,260 160,250 160,240 Z" fill="rgb(139, 69, 19)" stroke="black" stroke-width="2"/>
  <!-- Right Boot Zipper -->
  <line x1="200" y1="120" x2="200" y2="220" stroke="black" stroke-width="2"/>
  <line x1="205" y1="120" x2="205" y2="220" stroke="black" stroke-width="2"/>
  <line x1="210" y1="120" x2="210" y2="220" stroke="black" stroke-width="2"/>
</svg>