<svg viewBox="0 0 256 256" width="256" height="256">
  <!-- Define the cork texture gradient -->
  <defs>
    <linearGradient id="corkGradient" x1="0" y1="0" x2="0" y2="1">
      <stop offset="0%" stop-color="rgb(210, 180, 140)" />
      <stop offset="100%" stop-color="rgb(165, 120, 80)" />
    </linearGradient>
  </defs>

  <!-- Left sandal sole -->
  <path d="M50,150 C50,120 80,100 120,100 C160,100 190,120 190,150 L190,200 C190,220 160,240 120,240 C80,240 50,220 50,200 Z" fill="url(#corkGradient)" stroke="black" stroke-width="2"/>

  <!-- Right sandal sole -->
  <path d="M70,150 C70,120 100,100 140,100 C180,100 210,120 210,150 L210,200 C210,220 180,240 140,240 C100,240 70,220 70,200 Z" fill="url(#corkGradient)" stroke="black" stroke-width="2"/>

  <!-- Left sandal strap -->
  <path d="M80,130 C80,130 100,120 120,130 C140,140 140,140 140,140 L140,140 C140,140 120,150 100,140 C80,130 80,130 80,130 Z" fill="gold" stroke="black" stroke-width="1"/>

  <!-- Right sandal strap -->
  <path d="M100,130 C100,130 120,120 140,130 C160,140 160,140 160,140 L160,140 C160,140 140,150 120,140 C100,130 100,130 100,130 Z" fill="gold" stroke="black" stroke-width="1"/>

  <!-- Left sandal buckle -->
  <rect x="105" y="125" width="10" height="20" fill="gold" stroke="black" stroke-width="1"/>

  <!-- Right sandal buckle -->
  <rect x="125" y="125" width="10" height="20" fill="gold" stroke="black" stroke-width="1"/>
</svg>