<svg viewBox="0 0 256 256" width="256" height="256">
  <!-- Sneaker Outline -->
  <path d="M50,150 C50,100 100,50 150,50 C200,50 250,100 250,150 V200 C250,220 230,240 200,240 H100 C70,240 50,220 50,200 Z" fill="rgb(200, 200, 200)" />

  <!-- Mesh Upper -->
  <g fill="none" stroke="rgb(150, 150, 150)" stroke-width="2">
    <!-- Horizontal Lines -->
    <line x1="60" y1="70" x2="240" y2="70" />
    <line x1="60" y1="90" x2="240" y2="90" />
    <line x1="60" y1="110" x2="240" y2="110" />
    <line x1="60" y1="130" x2="240" y2="130" />
    <line x1="60" y1="150" x2="240" y2="150" />
    <!-- Vertical Lines -->
    <line x1="70" y1="60" x2="70" y2="160" />
    <line x1="90" y1="60" x2="90" y2="160" />
    <line x1="110" y1="60" x2="110" y2="160" />
    <line x1="130" y1="60" x2="130" y2="160" />
    <line x1="150" y1="60" x2="150" y2="160" />
    <line x1="170" y1="60" x2="170" y2="160" />
    <line x1="190" y1="60" x2="190" y2="160" />
    <line x1="210" y1="60" x2="210" y2="160" />
    <line x1="230" y1="60" x2="230" y2="160" />
  </g>
</svg>