<svg viewBox="0 0 256 256" width="256" height="256">
  <!-- Sneaker Body -->
  <path d="M50,160 C50,120 80,100 120,100 C160,100 190,120 190,160 L190,220 C190,240 160,260 120,260 C80,260 50,240 50,220 Z" fill="rgb(200, 200, 200)" stroke="black" stroke-width="2"/>
  
  <!-- Sneaker Sole -->
  <path d="M50,220 C50,240 80,260 120,260 C160,260 190,240 190,220 L190,230 C190,250 160,270 120,270 C80,270 50,250 50,230 Z" fill="rgb(50, 50, 50)" stroke="black" stroke-width="2"/>
  
  <!-- Padded Collar -->
  <path d="M60,150 C60,130 90,110 120,110 C150,110 180,130 180,150 L180,160 C180,140 150,120 120,120 C90,120 60,140 60,160 Z" fill="rgb(255, 255, 255)" stroke="black" stroke-width="2"/>
  
  <!-- Laces -->
  <rect x="80" y="130" width="80" height="10" fill="rgb(255, 255, 255)" stroke="black" stroke-width="1"/>
  <rect x="80" y="145" width="80" height="10" fill="rgb(255, 255, 255)" stroke="black" stroke-width="1"/>
  
  <!-- Second Sneaker Body -->
  <path d="M70,170 C70,130 100,110 140,110 C180,110 210,130 210,170 L210,230 C210,250 180,270 140,270 C100,270 70,250 70,230 Z" fill="rgb(200, 200, 200)" stroke="black" stroke-width="2"/>
  
  <!-- Second Sneaker Sole -->
  <path d="M70,230 C70,250 100,270 140,270 C180,270 210,250 210,230 L210,240 C210,260 180,280 140,280 C100,280 70,260 70,240 Z" fill="rgb(50, 50, 50)" stroke="black" stroke-width="2"/>
  
  <!-- Second Padded Collar -->
  <path d="M80,160 C80,140 110,120 140,120 C170,120 200,140 200,160 L200,170 C200,150 170,130 140,130 C110,130 80,150 80,170 Z" fill="rgb(255, 255, 255)" stroke="black" stroke-width="2"/>
  
  <!-- Second Laces -->
  <rect x="100" y="140" width="80" height="10" fill="rgb(255, 255, 255)" stroke="black" stroke-width="1"/>
  <rect x="100" y="155" width="80" height="10" fill="rgb(255, 255, 255)" stroke="black" stroke-width="1"/>
</svg>