<svg viewBox="0 0 256 256" width="256" height="256">
  <!-- Sandal Base -->
  <rect x="50" y="150" width="156" height="30" fill="rgb(139, 69, 19)" />
  <rect x="50" y="180" width="156" height="10" fill="rgb(139, 69, 19)" />

  <!-- Braided Strap -->
  <path d="M60,160 C60,140 100,140 100,160 C100,180 140,180 140,160 C140,140 180,140 180,160 C180,180 220,180 220,160" fill="none" stroke="rgb(210, 180, 140)" stroke-width="8" />
  <path d="M60,170 C60,150 100,150 100,170 C100,190 140,190 140,170 C140,150 180,150 180,170 C180,190 220,190 220,170" fill="none" stroke="rgb(210, 180, 140)" stroke-width="8" />
  <path d="M60,180 C60,160 100,160 100,180 C100,200 140,200 140,180 C140,160 180,160 180,180 C180,200 220,200 220,180" fill="none" stroke="rgb(210, 180, 140)" stroke-width="8" />

  <!-- Sandal Toe Strap -->
  <rect x="80" y="130" width="96" height="20" fill="rgb(210, 180, 140)" />
</svg>