<svg viewBox="0 0 256 256" width="256" height="256">
  <!-- Left Boot -->
  <path d="M50,150 L50,200 C50,220 70,240 90,240 L110,240 C130,240 150,220 150,200 L150,150 Z" fill="rgb(139, 69, 19)" />
  <!-- Left Lug Sole -->
  <rect x="50" y="200" width="100" height="20" fill="rgb(105, 105, 105)" />
  <rect x="60" y="210" width="20" height="10" fill="rgb(169, 169, 169)" />
  <rect x="90" y="210" width="20" height="10" fill="rgb(169, 169, 169)" />
  <rect x="120" y="210" width="20" height="10" fill="rgb(169, 169, 169)" />

  <!-- Right Boot -->
  <path d="M150,150 L150,200 C150,220 170,240 190,240 L210,240 C230,240 250,220 250,200 L250,150 Z" fill="rgb(139, 69, 19)" />
  <!-- Right Lug Sole -->
  <rect x="150" y="200" width="100" height="20" fill="rgb(105, 105, 105)" />
  <rect x="160" y="210" width="20" height="10" fill="rgb(169, 169, 169)" />
  <rect x="190" y="210" width="20" height="10" fill="rgb(169, 169, 169)" />
  <rect x="220" y="210" width="20" height="10" fill="rgb(169, 169, 169)" />
</svg>