<svg viewBox="0 0 256 256" width="256" height="256">
  <!-- Left Heel -->
  <path d="M50,150 L50,200 L100,200 L100,180 L80,180 L80,150 Z" fill="rgb(139, 69, 19)" />
  <path d="M60,160 L60,190 L90,190 L90,180 L70,180 L70,160 Z" fill="rgb(192, 192, 192)" />
  <line x1="70" y1="160" x2="70" y2="180" stroke="rgb(192, 192, 192)" stroke-width="4" />
  <line x1="80" y1="150" x2="80" y2="180" stroke="rgb(192, 192, 192)" stroke-width="4" />

  <!-- Right Heel -->
  <path d="M150,150 L150,200 L200,200 L200,180 L180,180 L180,150 Z" fill="rgb(139, 69, 19)" />
  <path d="M160,160 L160,190 L190,190 L190,180 L170,180 L170,160 Z" fill="rgb(192, 192, 192)" />
  <line x1="170" y1="160" x2="170" y2="180" stroke="rgb(192, 192, 192)" stroke-width="4" />
  <line x1="180" y1="150" x2="180" y2="180" stroke="rgb(192, 192, 192)" stroke-width="4" />
</svg>