<svg viewBox="0 0 256 256" width="256" height="256">
  <!-- Left Shoe -->
  <path d="M50,150 C50,120 80,100 120,100 C160,100 190,120 190,150 V200 H50 Z" fill="rgb(128, 0, 128)" />
  <circle cx="120" cy="150" r="10" fill="rgb(255, 255, 255)" />
  <line x1="120" y1="150" x2="120" y2="170" stroke="rgb(255, 255, 255)" stroke-width="4" />
  <path d="M50,200 L50,220 L190,220 L190,200" fill="rgb(128, 0, 128)" />

  <!-- Right Shoe -->
  <path d="M70,150 C70,120 100,100 140,100 C180,100 210,120 210,150 V200 H70 Z" fill="rgb(128, 0, 128)" />
  <circle cx="140" cy="150" r="10" fill="rgb(255, 255, 255)" />
  <line x1="140" y1="150" x2="140" y2="170" stroke="rgb(255, 255, 255)" stroke-width="4" />
  <path d="M70,200 L70,220 L210,220 L210,200" fill="rgb(128, 0, 128)" />
</svg>