<svg viewBox="0 0 256 256" width="256" height="256">
  <!-- Sneaker Outline -->
  <path d="M50,200 C50,180 70,160 100,160 C130,160 150,180 150,200 L150,240 C150,250 140,260 130,260 L70,260 C60,260 50,250 50,240 Z" fill="rgb(139, 69, 19)" stroke="black" stroke-width="2"/>
  <path d="M106,200 C106,180 126,160 156,160 C186,160 206,180 206,200 L206,240 C206,250 196,260 186,260 L126,260 C116,260 106,250 106,240 Z" fill="rgb(139, 69, 19)" stroke="black" stroke-width="2"/>

  <!-- Suede Texture for Sneaker Upper -->
  <defs>
    <linearGradient id="suedeGradient" x1="0" y1="0" x2="0" y2="1">
      <stop offset="0%" stop-color="rgb(139, 69, 19)" />
      <stop offset="50%" stop-color="rgb(160, 82, 45)" />
      <stop offset="100%" stop-color="rgb(139, 69, 19)" />
    </linearGradient>
  </defs>
  <rect x="50" y="160" width="100" height="40" fill="url(#suedeGradient)" opacity="0.8"/>
  <rect x="106" y="160" width="100" height="40" fill="url(#suedeGradient)" opacity="0.8"/>

  <!-- Sneaker Soles -->
  <rect x="50" y="240" width="100" height="20" fill="rgb(50, 50, 50)"/>
  <rect x="106" y="240" width="100" height="20" fill="rgb(50, 50, 50)"/>

  <!-- Laces -->
  <line x1="70" y1="180" x2="130" y2="180" stroke="white" stroke-width="4"/>
  <line x1="70" y1="190" x2="130" y2="190" stroke="white" stroke-width="4"/>
  <line x1="126" y1="180" x2="186" y2="180" stroke="white" stroke-width="4"/>
  <line x1="126" y1="190" x2="186" y2="190" stroke="white" stroke-width="4"/>
</svg>