<svg viewBox="0 0 256 256" width="256" height="256">
  <!-- Left Heel -->
  <path d="M50,200 C50,150 80,120 100,100 L120,80 L140,100 L160,120 C180,140 200,150 200,200 L200,220 L180,240 L160,220 L140,200 L120,180 L100,200 L80,220 L60,240 L50,220 Z" fill="rgb(128, 0, 128)" />

  <!-- Right Heel -->
  <path d="M206,200 C206,150 176,120 156,100 L136,80 L116,100 L96,120 C76,140 56,150 56,200 L56,220 L76,240 L96,220 L116,200 L136,180 L156,200 L176,220 L196,240 L206,220 Z" fill="rgb(128, 0, 128)" />

  <!-- Left Heel Strap -->
  <path d="M100,100 L120,80 L140,100 L160,120 C180,140 200,150 200,200 L200,220 L180,240 L160,220 L140,200 L120,180 L100,200 L80,220 L60,240 L50,220 Z" fill="none" stroke="rgb(50, 50, 150)" stroke-width="5" />

  <!-- Right Heel Strap -->
  <path d="M156,100 L136,80 L116,100 L96,120 C76,140 56,150 56,200 L56,220 L76,240 L96,220 L116,200 L136,180 L156,200 L176,220 L196,240 L206,220 Z" fill="none" stroke="rgb(50, 50, 150)" stroke-width="5" />
</svg>