<svg viewBox="0 0 256 256" width="256" height="256">
  <!-- Sky with gradient -->
  <defs>
    <linearGradient id="skyGradient" x1="0" y1="0" x2="0" y2="1">
      <stop offset="0%" stop-color="rgb(135, 206, 235)" />
      <stop offset="100%" stop-color="rgb(173, 216, 230)" />
    </linearGradient>
  </defs>
  <rect x="0" y="0" width="256" height="128" fill="url(#skyGradient)" />

  <!-- Prairie (green grass) -->
  <rect x="0" y="128" width="256" height="128" fill="rgb(34, 139, 34)" />

  <!-- Sunflowers -->
  <g transform="translate(50, 180)">
    <!-- Stem -->
    <line x1="0" y1="0" x2="0" y2="40" stroke="rgb(0, 128, 0)" stroke-width="3" />
    <!-- Petals -->
    <circle cx="0" cy="0" r="10" fill="rgb(255, 215, 0)" />
    <circle cx="0" cy="0" r="5" fill="rgb(139, 69, 19)" />
    <line x1="-15" y1="0" x2="15" y2="0" stroke="rgb(255, 215, 0)" stroke-width="3" />
    <line x1="0" y1="-15" x2="0" y2="15" stroke="rgb(255, 215, 0)" stroke-width="3" />
    <line x1="-10" y1="-10" x2="10" y2="10" stroke="rgb(255, 215, 0)" stroke-width="3" />
    <line x1="-10" y1="10" x2="10" y2="-10" stroke="rgb(255, 215, 0)" stroke-width="3" />
  </g>

  <g transform="translate(120, 190)">
    <!-- Stem -->
    <line x1="0" y1="0" x2="0" y2="40" stroke="rgb(0, 128, 0)" stroke-width="3" />
    <!-- Petals -->
    <circle cx="0" cy="0" r="10" fill="rgb(255, 215, 0)" />
    <circle cx="0" cy="0" r="5" fill="rgb(139, 69, 19)" />
    <line x1="-15" y1="0" x2="15" y2="0" stroke="rgb(255, 215, 0)" stroke-width="3" />
    <line x1="0" y1="-15" x2="0" y2="15" stroke="rgb(255, 215, 0)" stroke-width="3" />
    <line x1="-10" y1="-10" x2="10" y2="10" stroke="rgb(255, 215, 0)" stroke-width="3" />
    <line x1="-10" y1="10" x2="10" y2="-10" stroke="rgb(255, 215, 0)" stroke-width="3" />
  </g>

  <g transform="translate(200, 180)">
    <!-- Stem -->
    <line x1="0" y1="0" x2="0" y2="40" stroke="rgb(0, 128, 0)" stroke-width="3" />
    <!-- Petals -->
    <circle cx="0" cy="0" r="10" fill="rgb(255, 215, 0)" />
    <circle cx="0" cy="0" r="5" fill="rgb(139, 69, 19)" />
    <line x1="-15" y1="0" x2="15" y2="0" stroke="rgb(255, 215, 0)" stroke-width="3" />
    <line x1="0" y1="-15" x2="0" y2="15" stroke="rgb(255, 215, 0)" stroke-width="3" />
    <line x1="-10" y1="-10" x2="10" y2="10" stroke="rgb(255, 215, 0)" stroke-width="3" />
    <line x1="-10" y1="10" x2="10" y2="-10" stroke="rgb(255, 215, 0)" stroke-width="3" />
  </g>
</svg>