<svg viewBox="0 0 256 256" width="256" height="256">
  <!-- Sneaker Base Shape -->
  <rect x="50" y="100" width="156" height="100" rx="20" ry="20" fill="rgb(200, 200, 200)" />

  <!-- Perforated Upper -->
  <g fill="rgb(150, 150, 150)">
    <circle cx="70" cy="120" r="5" />
    <circle cx="90" cy="120" r="5" />
    <circle cx="110" cy="120" r="5" />
    <circle cx="130" cy="120" r="5" />
    <circle cx="150" cy="120" r="5" />
    <circle cx="170" cy="120" r="5" />
    <circle cx="190" cy="120" r="5" />
    <circle cx="70" cy="140" r="5" />
    <circle cx="90" cy="140" r="5" />
    <circle cx="110" cy="140" r="5" />
    <circle cx="130" cy="140" r="5" />
    <circle cx="150" cy="140" r="5" />
    <circle cx="170" cy="140" r="5" />
    <circle cx="190" cy="140" r="5" />
    <circle cx="70" cy="160" r="5" />
    <circle cx="90" cy="160" r="5" />
    <circle cx="110" cy="160" r="5" />
    <circle cx="130" cy="160" r="5" />
    <circle cx="150" cy="160" r="5" />
    <circle cx="170" cy="160" r="5" />
    <circle cx="190" cy="160" r="5" />
  </g>

  <!-- Sneaker Sole -->
  <rect x="50" y="180" width="156" height="20" rx="10" ry="10" fill="rgb(100, 100, 100)" />
</svg>