<svg viewBox="0 0 256 256" width="256" height="256">
  <!-- Left Sneaker -->
  <g transform="translate(20, 80)">
    <!-- Sneaker Base -->
    <path d="M20,80 C20,60 40,40 60,40 C80,40 100,60 100,80 L100,140 C100,160 80,180 60,180 C40,180 20,160 20,140 Z" fill="rgb(200, 200, 200)" stroke="black" stroke-width="2"/>
    
    <!-- Reflective Upper -->
    <defs>
      <linearGradient id="reflectiveGradient" x1="0" y1="0" x2="0" y2="1">
        <stop offset="0%" stop-color="rgb(255, 255, 255)" />
        <stop offset="50%" stop-color="rgb(200, 200, 200)" />
        <stop offset="100%" stop-color="rgb(150, 150, 150)" />
      </linearGradient>
    </defs>
    <path d="M30,70 C30,50 50,30 70,30 C90,30 110,50 110,70 L110,130 C110,150 90,170 70,170 C50,170 30,150 30,130 Z" fill="url(#reflectiveGradient)" stroke="black" stroke-width="1"/>
    
    <!-- Laces -->
    <rect x="40" y="60" width="60" height="10" fill="white" stroke="black" stroke-width="1"/>
    <rect x="40" y="80" width="60" height="10" fill="white" stroke="black" stroke-width="1"/>
  </g>

  <!-- Right Sneaker -->
  <g transform="translate(140, 80)">
    <!-- Sneaker Base -->
    <path d="M20,80 C20,60 40,40 60,40 C80,40 100,60 100,80 L100,140 C100,160 80,180 60,180 C40,180 20,160 20,140 Z" fill="rgb(200, 200, 200)" stroke="black" stroke-width="2"/>
    
    <!-- Reflective Upper -->
    <path d="M30,70 C30,50 50,30 70,30 C90,30 110,50 110,70 L110,130 C110,150 90,170 70,170 C50,170 30,150 30,130 Z" fill="url(#reflectiveGradient)" stroke="black" stroke-width="1"/>
    
    <!-- Laces -->
    <rect x="40" y="60" width="60" height="10" fill="white" stroke="black" stroke-width="1"/>
    <rect x="40" y="80" width="60" height="10" fill="white" stroke="black" stroke-width="1"/>
  </g>
</svg>