<svg viewBox="0 0 256 256" width="256" height="256">
  <!-- Sky with gradient -->
  <defs>
    <linearGradient id="skyGradient" x1="0" y1="0" x2="0" y2="1">
      <stop offset="0%" stop-color="rgb(135, 206, 235)" />
      <stop offset="100%" stop-color="rgb(173, 216, 230)" />
    </linearGradient>
  </defs>
  <rect x="0" y="0" width="256" height="128" fill="url(#skyGradient)" />

  <!-- Lake -->
  <rect x="0" y="128" width="256" height="128" fill="rgb(0, 119, 190)" />

  <!-- Trees on the left side -->
  <rect x="20" y="100" width="10" height="50" fill="rgb(139, 69, 19)" />
  <polygon points="15,100 35,100 25,70" fill="rgb(34, 139, 34)" />
  <rect x="40" y="110" width="10" height="40" fill="rgb(139, 69, 19)" />
  <polygon points="35,110 55,110 45,80" fill="rgb(34, 139, 34)" />

  <!-- Trees on the right side -->
  <rect x="220" y="100" width="10" height="50" fill="rgb(139, 69, 19)" />
  <polygon points="215,100 235,100 225,70" fill="rgb(34, 139, 34)" />
  <rect x="200" y="110" width="10" height="40" fill="rgb(139, 69, 19)" />
  <polygon points="195,110 215,110 205,80" fill="rgb(34, 139, 34)" />

  <!-- Reflections of trees in the lake -->
  <rect x="20" y="178" width="10" height="50" fill="rgb(139, 69, 19)" opacity="0.5" />
  <polygon points="15,178 35,178 25,208" fill="rgb(34, 139, 34)" opacity="0.5" />
  <rect x="40" y="188" width="10" height="40" fill="rgb(139, 69, 19)" opacity="0.5" />
  <polygon points="35,188 55,188 45,218" fill="rgb(34, 139, 34)" opacity="0.5" />
  <rect x="220" y="178" width="10" height="50" fill="rgb(139, 69, 19)" opacity="0.5" />
  <polygon points="215,178 235,178 225,208" fill="rgb(34, 139, 34)" opacity="0.5" />
  <rect x="200" y="188" width="10" height="40" fill="rgb(139, 69, 19)" opacity="0.5" />
  <polygon points="195,188 215,188 205,218" fill="rgb(34, 139, 34)" opacity="0.5" />
</svg>