<svg viewBox="0 0 256 256" width="256" height="256">
  <!-- Sky (wintery blue) -->
  <rect x="0" y="0" width="256" height="128" fill="rgb(173, 216, 230)" />

  <!-- Snowy Ground -->
  <rect x="0" y="128" width="256" height="128" fill="rgb(240, 248, 255)" />

  <!-- Trees -->
  <rect x="30" y="100" width="10" height="60" fill="rgb(139, 69, 19)" />
  <polygon points="25,100 45,100 35,70" fill="rgb(34, 139, 34)" />
  <rect x="80" y="110" width="10" height="50" fill="rgb(139, 69, 19)" />
  <polygon points="75,110 95,110 85,80" fill="rgb(34, 139, 34)" />
  <rect x="130" y="100" width="10" height="60" fill="rgb(139, 69, 19)" />
  <polygon points="125,100 145,100 135,70" fill="rgb(34, 139, 34)" />
  <rect x="180" y="110" width="10" height="50" fill="rgb(139, 69, 19)" />
  <polygon points="175,110 195,110 185,80" fill="rgb(34, 139, 34)" />
  <rect x="230" y="100" width="10" height="60" fill="rgb(139, 69, 19)" />
  <polygon points="225,100 245,100 235,70" fill="rgb(34, 139, 34)" />

  <!-- Animal Tracks -->
  <circle cx="50" cy="180" r="3" fill="rgb(105, 105, 105)" />
  <circle cx="55" cy="185" r="3" fill="rgb(105, 105, 105)" />
  <circle cx="60" cy="180" r="3" fill="rgb(105, 105, 105)" />
  <circle cx="65" cy="185" r="3" fill="rgb(105, 105, 105)" />
  <circle cx="100" cy="170" r="3" fill="rgb(105, 105, 105)" />
  <circle cx="105" cy="175" r="3" fill="rgb(105, 105, 105)" />
  <circle cx="110" cy="170" r="3" fill="rgb(105, 105, 105)" />
  <circle cx="115" cy="175" r="3" fill="rgb(105, 105, 105)" />
  <circle cx="150" cy="180" r="3" fill="rgb(105, 105, 105)" />
  <circle cx="155" cy="185" r="3" fill="rgb(105, 105, 105)" />
  <circle cx="160" cy="180" r="3" fill="rgb(105, 105, 105)" />
  <circle cx="165" cy="185" r="3" fill="rgb(105, 105, 105)" />
  <circle cx="200" cy="170" r="3" fill="rgb(105, 105, 105)" />
  <circle cx="205" cy="175" r="3" fill="rgb(105, 105, 105)" />
  <circle cx="210" cy="170" r="3" fill="rgb(105, 105, 105)" />
  <circle cx="215" cy="175" r="3" fill="rgb(105, 105, 105)" />
</svg>