<svg viewBox="0 0 256 256" width="256" height="256">
  <!-- Sky with gradient -->
  <defs>
    <linearGradient id="skyGradient" x1="0" y1="0" x2="0" y2="1">
      <stop offset="0%" stop-color="rgb(135, 206, 235)" />
      <stop offset="100%" stop-color="rgb(173, 216, 230)" />
    </linearGradient>
  </defs>
  <rect x="0" y="0" width="256" height="128" fill="url(#skyGradient)" />

  <!-- Mountains -->
  <polygon points="0,128 50,50 100,128" fill="rgb(139, 69, 19)" />
  <polygon points="50,128 100,30 150,128" fill="rgb(139, 69, 19)" />
  <polygon points="100,128 150,60 200,128" fill="rgb(139, 69, 19)" />
  <polygon points="150,128 200,40 256,128" fill="rgb(139, 69, 19)" />

  <!-- Lake -->
  <rect x="0" y="128" width="256" height="128" fill="rgb(0, 119, 190)" />

  <!-- Reflection of Mountains -->
  <polygon points="0,128 50,206 100,128" fill="rgb(0, 119, 190)" opacity="0.5" />
  <polygon points="50,128 100,226 150,128" fill="rgb(0, 119, 190)" opacity="0.5" />
  <polygon points="100,128 150,196 200,128" fill="rgb(0, 119, 190)" opacity="0.5" />
  <polygon points="150,128 200,216 256,128" fill="rgb(0, 119, 190)" opacity="0.5" />
</svg>