<svg viewBox="0 0 256 256" width="256" height="256">
  <!-- Sky with gradient -->
  <defs>
    <linearGradient id="skyGradient" x1="0" y1="0" x2="0" y2="1">
      <stop offset="0%" stop-color="rgb(135, 206, 235)" />
      <stop offset="100%" stop-color="rgb(173, 216, 230)" />
    </linearGradient>
  </defs>
  <rect x="0" y="0" width="256" height="128" fill="url(#skyGradient)" />

  <!-- Prairie (green grass) -->
  <rect x="0" y="128" width="256" height="128" fill="rgb(34, 139, 34)" />

  <!-- Winding Dirt Road -->
  <path d="M0,160 C50,140 100,180 150,150 C200,120 256,160 256,160 V256 H0 Z" fill="rgb(139, 69, 19)" />

  <!-- Wildflowers -->
  <circle cx="50" cy="180" r="5" fill="rgb(255, 0, 0)" />
  <circle cx="80" cy="160" r="5" fill="rgb(255, 255, 0)" />
  <circle cx="120" cy="190" r="5" fill="rgb(255, 0, 255)" />
  <circle cx="150" cy="170" r="5" fill="rgb(0, 255, 0)" />
  <circle cx="200" cy="180" r="5" fill="rgb(255, 165, 0)" />
  <circle cx="230" cy="160" r="5" fill="rgb(128, 0, 128)" />
  <circle cx="30" cy="150" r="4" fill="rgb(255, 192, 203)" />
  <circle cx="100" cy="140" r="4" fill="rgb(0, 255, 255)" />
  <circle cx="180" cy="150" r="4" fill="rgb(255, 215, 0)" />
  <circle cx="220" cy="140" r="4" fill="rgb(75, 0, 130)" />
</svg>