<svg viewBox="0 0 256 256" width="256" height="256">
  <!-- Sky with gradient -->
  <defs>
    <linearGradient id="skyGradient" x1="0" y1="0" x2="0" y2="1">
      <stop offset="0%" stop-color="rgb(135, 206, 235)" />
      <stop offset="100%" stop-color="rgb(173, 216, 230)" />
    </linearGradient>
  </defs>
  <rect x="0" y="0" width="256" height="128" fill="url(#skyGradient)" />

  <!-- Prairie (green grass) -->
  <rect x="0" y="128" width="256" height="128" fill="rgb(34, 139, 34)" />

  <!-- Tulips -->
  <g transform="translate(0, 128)">
    <!-- Tulip 1 -->
    <path d="M50,50 Q55,30 60,50 T70,50 L70,80 Q65,90 60,80 T50,80 Z" fill="rgb(255, 0, 0)" />
    <path d="M70,80 L70,100 Q65,110 60,100 T50,100 Z" fill="rgb(0, 128, 0)" />

    <!-- Tulip 2 -->
    <path d="M80,40 Q85,20 90,40 T100,40 L100,70 Q95,80 90,70 T80,70 Z" fill="rgb(255, 255, 0)" />
    <path d="M100,70 L100,90 Q95,100 90,90 T80,90 Z" fill="rgb(0, 128, 0)" />

    <!-- Tulip 3 -->
    <path d="M120,60 Q125,40 130,60 T140,60 L140,90 Q135,100 130,90 T120,90 Z" fill="rgb(255, 0, 255)" />
    <path d="M140,90 L140,110 Q135,120 130,110 T120,110 Z" fill="rgb(0, 128, 0)" />

    <!-- Tulip 4 -->
    <path d="M150,50 Q155,30 160,50 T170,50 L170,80 Q165,90 160,80 T150,80 Z" fill="rgb(0, 255, 0)" />
    <path d="M170,80 L170,100 Q165,110 160,100 T150,100 Z" fill="rgb(0, 128, 0)" />

    <!-- Tulip 5 -->
    <path d="M200,60 Q205,40 210,60 T220,60 L220,90 Q215,100 210,90 T200,90 Z" fill="rgb(255, 165, 0)" />
    <path d="M220,90 L220,110 Q215,120 210,110 T200,110 Z" fill="rgb(0, 128, 0)" />

    <!-- Tulip 6 -->
    <path d="M230,40 Q235,20 240,40 T250,40 L250,70 Q245,80 240,70 T230,70 Z" fill="rgb(128, 0, 128)" />
    <path d="M250,70 L250,90 Q245,100 240,90 T230,90 Z" fill="rgb(0, 128, 0)" />

    <!-- Tulip 7 -->
    <path d="M30,50 Q35,30 40,50 T50,50 L50,80 Q45,90 40,80 T30,80 Z" fill="rgb(255, 192, 203)" />
    <path d="M50,80 L50,100 Q45,110 40,100 T30,100 Z" fill="rgb(0, 128, 0)" />

    <!-- Tulip 8 -->
    <path d="M100,40 Q105,20 110,40 T120,40 L120,70 Q115,80 110,70 T100,70 Z" fill="rgb(0, 255, 255)" />
    <path d="M120,70 L120,90 Q115,100 110,90 T100,90 Z" fill="rgb(0, 128, 0)" />

    <!-- Tulip 9 -->
    <path d="M180,50 Q185,30 190,50 T200,50 L200,80 Q195,90 190,80 T180,80 Z" fill="rgb(255, 215, 0)" />
    <path d="M200,80 L200,100 Q195,110 190,100 T180,100 Z" fill="rgb(0, 128, 0)" />

    <!-- Tulip 10 -->
    <path d="M220,40 Q225,20 230,40 T240,40 L240,70 Q235,80 230,70 T220,70 Z" fill="rgb(75, 0, 130)" />
    <path d="M240,70 L240,90 Q235,100 230,90 T220,90 Z" fill="rgb(0, 128, 0)" />
  </g>
</svg>