<svg viewBox="0 0 256 256" width="256" height="256">
  <!-- Dense Forest Canopy -->
  <defs>
    <linearGradient id="treeGradient" x1="0" y1="0" x2="0" y2="1">
      <stop offset="0%" stop-color="rgb(0, 100, 0)" />
      <stop offset="100%" stop-color="rgb(34, 139, 34)" />
    </linearGradient>
  </defs>
  <rect x="0" y="0" width="256" height="128" fill="url(#treeGradient)" />

  <!-- Tree Trunks -->
  <rect x="20" y="100" width="10" height="28" fill="rgb(139, 69, 19)" />
  <rect x="60" y="90" width="10" height="38" fill="rgb(139, 69, 19)" />
  <rect x="100" y="100" width="10" height="28" fill="rgb(139, 69, 19)" />
  <rect x="140" y="80" width="10" height="48" fill="rgb(139, 69, 19)" />
  <rect x="180" y="90" width="10" height="38" fill="rgb(139, 69, 19)" />
  <rect x="220" y="100" width="10" height="28" fill="rgb(139, 69, 19)" />

  <!-- Tree Tops -->
  <circle cx="25" cy="100" r="15" fill="rgb(0, 100, 0)" />
  <circle cx="65" cy="90" r="20" fill="rgb(0, 100, 0)" />
  <circle cx="105" cy="100" r="15" fill="rgb(0, 100, 0)" />
  <circle cx="145" cy="80" r="25" fill="rgb(0, 100, 0)" />
  <circle cx="185" cy="90" r="20" fill="rgb(0, 100, 0)" />
  <circle cx="225" cy="100" r="15" fill="rgb(0, 100, 0)" />

  <!-- Waterfall -->
  <defs>
    <linearGradient id="waterGradient" x1="0" y1="0" x2="0" y2="1">
      <stop offset="0%" stop-color="rgb(135, 206, 250)" />
      <stop offset="100%" stop-color="rgb(0, 191, 255)" />
    </linearGradient>
  </defs>
  <rect x="120" y="128" width="16" height="128" fill="url(#waterGradient)" />
  <rect x="120" y="128" width="16" height="16" fill="rgb(173, 216, 230)" />

  <!-- Forest Floor -->
  <rect x="0" y="128" width="256" height="128" fill="rgb(34, 139, 34)" />
  <path d="M0,150 C50,130 100,170 150,140 C200,110 256,150 256,150 V256 H0 Z" fill="rgb(50, 205, 50)" />
</svg>