<svg viewBox="0 0 256 256" width="256" height="256">
  <!-- Sky with gradient -->
  <defs>
    <linearGradient id="skyGradient" x1="0" y1="0" x2="0" y2="1">
      <stop offset="0%" stop-color="rgb(135, 206, 235)" />
      <stop offset="100%" stop-color="rgb(173, 216, 230)" />
    </linearGradient>
  </defs>
  <rect x="0" y="0" width="256" height="128" fill="url(#skyGradient)" />

  <!-- Forest Floor -->
  <rect x="0" y="128" width="256" height="128" fill="rgb(139, 69, 19)" />

  <!-- Trees -->
  <rect x="30" y="100" width="10" height="60" fill="rgb(101, 67, 33)" />
  <circle cx="35" cy="100" r="15" fill="rgb(34, 139, 34)" />
  <rect x="100" y="80" width="10" height="80" fill="rgb(101, 67, 33)" />
  <circle cx="105" cy="80" r="20" fill="rgb(34, 139, 34)" />
  <rect x="180" y="90" width="10" height="70" fill="rgb(101, 67, 33)" />
  <circle cx="185" cy="90" r="18" fill="rgb(34, 139, 34)" />

  <!-- Fallen Leaves -->
  <circle cx="50" cy="180" r="4" fill="rgb(255, 165, 0)" />
  <circle cx="80" cy="160" r="4" fill="rgb(255, 215, 0)" />
  <circle cx="120" cy="190" r="4" fill="rgb(255, 140, 0)" />
  <circle cx="150" cy="170" r="4" fill="rgb(255, 69, 0)" />
  <circle cx="200" cy="180" r="4" fill="rgb(255, 165, 0)" />
  <circle cx="230" cy="160" r="4" fill="rgb(255, 215, 0)" />
  <circle cx="30" cy="150" r="3" fill="rgb(255, 140, 0)" />
  <circle cx="100" cy="140" r="3" fill="rgb(255, 69, 0)" />
  <circle cx="180" cy="150" r="3" fill="rgb(255, 165, 0)" />
  <circle cx="220" cy="140" r="3" fill="rgb(255, 215, 0)" />
</svg>