<svg viewBox="0 0 256 256" width="256" height="256">
  <!-- Sky with gradient -->
  <defs>
    <linearGradient id="skyGradient" x1="0" y1="0" x2="0" y2="1">
      <stop offset="0%" stop-color="rgb(135, 206, 235)" />
      <stop offset="100%" stop-color="rgb(173, 216, 230)" />
    </linearGradient>
  </defs>
  <rect x="0" y="0" width="256" height="128" fill="url(#skyGradient)" />

  <!-- Sea with gradient -->
  <defs>
    <linearGradient id="seaGradient" x1="0" y1="0" x2="0" y2="1">
      <stop offset="0%" stop-color="rgb(0, 119, 190)" />
      <stop offset="100%" stop-color="rgb(0, 191, 255)" />
    </linearGradient>
  </defs>
  <rect x="0" y="128" width="256" height="128" fill="url(#seaGradient)" />

  <!-- Distant Island -->
  <path d="M50,128 C100,80 150,100 200,128 V256 H50 Z" fill="rgb(34, 139, 34)" />

  <!-- Waves -->
  <path d="M0,150 C50,140 100,160 150,140 C200,120 256,150 256,150 V160 H0 Z" fill="rgb(0, 119, 190)" opacity="0.8" />
  <path d="M0,170 C50,160 100,180 150,160 C200,140 256,170 256,170 V180 H0 Z" fill="rgb(0, 119, 190)" opacity="0.6" />
  <path d="M0,190 C50,180 100,200 150,180 C200,160 256,190 256,190 V200 H0 Z" fill="rgb(0, 119, 190)" opacity="0.4" />
</svg>