<svg viewBox="0 0 256 256" width="256" height="256">
  <!-- Sky with gradient -->
  <defs>
    <linearGradient id="skyGradient" x1="0" y1="0" x2="0" y2="1">
      <stop offset="0%" stop-color="rgb(135, 206, 235)" />
      <stop offset="100%" stop-color="rgb(173, 216, 230)" />
    </linearGradient>
  </defs>
  <rect x="0" y="0" width="256" height="128" fill="url(#skyGradient)" />

  <!-- Forest Base Layer -->
  <rect x="0" y="128" width="256" height="128" fill="rgb(34, 139, 34)" />

  <!-- Trees -->
  <rect x="20" y="100" width="10" height="60" fill="rgb(139, 69, 19)" />
  <circle cx="25" cy="100" r="15" fill="rgb(0, 100, 0)" />
  
  <rect x="60" y="110" width="10" height="50" fill="rgb(139, 69, 19)" />
  <circle cx="65" cy="110" r="15" fill="rgb(0, 100, 0)" />
  
  <rect x="100" y="120" width="10" height="40" fill="rgb(139, 69, 19)" />
  <circle cx="105" cy="120" r="15" fill="rgb(0, 100, 0)" />
  
  <rect x="140" y="110" width="10" height="50" fill="rgb(139, 69, 19)" />
  <circle cx="145" cy="110" r="15" fill="rgb(0, 100, 0)" />
  
  <rect x="180" y="100" width="10" height="60" fill="rgb(139, 69, 19)" />
  <circle cx="185" cy="100" r="15" fill="rgb(0, 100, 0)" />
  
  <rect x="220" y="110" width="10" height="50" fill="rgb(139, 69, 19)" />
  <circle cx="225" cy="110" r="15" fill="rgb(0, 100, 0)" />

  <!-- Stream -->
  <path d="M0,160 C50,140 100,180 150,150 C200,120 256,160 256,160 V256 H0 Z" fill="rgb(0, 191, 255)" />
</svg>