<svg viewBox="0 0 256 256" width="256" height="256">
  <!-- Sky with gradient -->
  <defs>
    <linearGradient id="skyGradient" x1="0" y1="0" x2="0" y2="1">
      <stop offset="0%" stop-color="rgb(135, 206, 235)" />
      <stop offset="100%" stop-color="rgb(173, 216, 230)" />
    </linearGradient>
  </defs>
  <rect x="0" y="0" width="256" height="128" fill="url(#skyGradient)" />

  <!-- Forest Floor (Mossy Carpet) -->
  <rect x="0" y="128" width="256" height="128" fill="rgb(47, 79, 79)" />

  <!-- Mossy Details -->
  <circle cx="30" cy="150" r="4" fill="rgb(34, 139, 34)" />
  <circle cx="60" cy="170" r="4" fill="rgb(50, 205, 50)" />
  <circle cx="90" cy="160" r="4" fill="rgb(34, 139, 34)" />
  <circle cx="120" cy="180" r="4" fill="rgb(50, 205, 50)" />
  <circle cx="150" cy="150" r="4" fill="rgb(34, 139, 34)" />
  <circle cx="180" cy="170" r="4" fill="rgb(50, 205, 50)" />
  <circle cx="210" cy="160" r="4" fill="rgb(34, 139, 34)" />
  <circle cx="240" cy="180" r="4" fill="rgb(50, 205, 50)" />

  <!-- Trees -->
  <rect x="20" y="100" width="10" height="60" fill="rgb(139, 69, 19)" />
  <rect x="50" y="80" width="10" height="80" fill="rgb(139, 69, 19)" />
  <rect x="80" y="90" width="10" height="70" fill="rgb(139, 69, 19)" />
  <rect x="110" y="100" width="10" height="60" fill="rgb(139, 69, 19)" />
  <rect x="140" y="80" width="10" height="80" fill="rgb(139, 69, 19)" />
  <rect x="170" y="90" width="10" height="70" fill="rgb(139, 69, 19)" />
  <rect x="200" y="100" width="10" height="60" fill="rgb(139, 69, 19)" />
  <rect x="230" y="80" width="10" height="80" fill="rgb(139, 69, 19)" />

  <!-- Tree Tops -->
  <circle cx="25" cy="100" r="15" fill="rgb(34, 139, 34)" />
  <circle cx="55" cy="80" r="15" fill="rgb(50, 205, 50)" />
  <circle cx="85" cy="90" r="15" fill="rgb(34, 139, 34)" />
  <circle cx="115" cy="100" r="15" fill="rgb(50, 205, 50)" />
  <circle cx="145" cy="80" r="15" fill="rgb(34, 139, 34)" />
  <circle cx="175" cy="90" r="15" fill="rgb(50, 205, 50)" />
  <circle cx="205" cy="100" r="15" fill="rgb(34, 139, 34)" />
  <circle cx="235" cy="80" r="15" fill="rgb(50, 205, 50)" />
</svg>