<svg viewBox="0 0 256 256" width="256" height="256">
  <!-- Sky with gradient -->
  <defs>
    <linearGradient id="skyGradient" x1="0" y1="0" x2="0" y2="1">
      <stop offset="0%" stop-color="rgb(173, 216, 230)" />
      <stop offset="100%" stop-color="rgb(135, 206, 250)" />
    </linearGradient>
  </defs>
  <rect x="0" y="0" width="256" height="128" fill="url(#skyGradient)" />

  <!-- Sandy Desert Base Layer -->
  <rect x="0" y="128" width="256" height="128" fill="rgb(244, 164, 96)" />

  <!-- Sandy Desert with subtle gradient -->
  <defs>
    <linearGradient id="desertGradient" x1="0" y1="0" x2="0" y2="1">
      <stop offset="0%" stop-color="rgb(244, 164, 96)" />
      <stop offset="100%" stop-color="rgb(210, 140, 70)" />
    </linearGradient>
  </defs>
  <rect x="0" y="128" width="256" height="128" fill="url(#desertGradient)" />

  <!-- Distant Mountain Range -->
  <path d="M0,128 C50,100 100,150 150,120 C200,90 256,128 256,128 V150 C200,110 150,140 100,170 C50,200 0,150 0,150 Z" fill="rgb(139, 69, 19)" />

  <!-- Additional Mountain Layer for Depth -->
  <path d="M0,140 C50,120 100,160 150,130 C200,100 256,140 256,140 V160 C200,120 150,150 100,180 C50,210 0,160 0,160 Z" fill="rgb(101, 67, 33)" />
</svg>