<svg viewBox="0 0 256 256" width="256" height="256">
  <!-- Sky (light blue) -->
  <rect x="0" y="0" width="256" height="128" fill="rgb(135, 206, 235)"/>

  <!-- Ground (green grass) -->
  <rect x="0" y="128" width="256" height="128" fill="rgb(34, 139, 34)"/>

  <!-- Trees -->
  <rect x="20" y="100" width="10" height="60" fill="rgb(139, 69, 19)"/>
  <circle cx="25" cy="90" r="20" fill="rgb(0, 100, 0)"/>
  <rect x="60" y="80" width="10" height="80" fill="rgb(139, 69, 19)"/>
  <circle cx="65" cy="70" r="25" fill="rgb(0, 100, 0)"/>
  <rect x="100" y="90" width="10" height="70" fill="rgb(139, 69, 19)"/>
  <circle cx="105" cy="80" r="20" fill="rgb(0, 100, 0)"/>
  <rect x="140" y="100" width="10" height="60" fill="rgb(139, 69, 19)"/>
  <circle cx="145" cy="90" r="20" fill="rgb(0, 100, 0)"/>
  <rect x="180" y="80" width="10" height="80" fill="rgb(139, 69, 19)"/>
  <circle cx="185" cy="70" r="25" fill="rgb(0, 100, 0)"/>
  <rect x="220" y="90" width="10" height="70" fill="rgb(139, 69, 19)"/>
  <circle cx="225" cy="80" r="20" fill="rgb(0, 100, 0)"/>

  <!-- Wooden Bench -->
  <rect x="80" y="180" width="100" height="10" fill="rgb(139, 69, 19)"/>
  <rect x="80" y="190" width="10" height="20" fill="rgb(139, 69, 19)"/>
  <rect x="170" y="190" width="10" height="20" fill="rgb(139, 69, 19)"/>
  <rect x="80" y="210" width="100" height="10" fill="rgb(139, 69, 19)"/>
</svg>