<svg viewBox="0 0 256 256" width="256" height="256">
  <!-- Sky with gradient -->
  <defs>
    <linearGradient id="skyGradient" x1="0" y1="0" x2="0" y2="1">
      <stop offset="0%" stop-color="rgb(135, 206, 235)" />
      <stop offset="100%" stop-color="rgb(173, 216, 230)" />
    </linearGradient>
  </defs>
  <rect x="0" y="0" width="256" height="128" fill="url(#skyGradient)" />

  <!-- Prairie (green grass) -->
  <rect x="0" y="128" width="256" height="128" fill="rgb(34, 139, 34)" />

  <!-- Wildflowers -->
  <circle cx="50" cy="180" r="5" fill="rgb(255, 0, 0)" />
  <circle cx="80" cy="160" r="5" fill="rgb(255, 255, 0)" />
  <circle cx="120" cy="190" r="5" fill="rgb(255, 0, 255)" />
  <circle cx="150" cy="170" r="5" fill="rgb(0, 255, 0)" />
  <circle cx="200" cy="180" r="5" fill="rgb(255, 165, 0)" />
  <circle cx="230" cy="160" r="5" fill="rgb(128, 0, 128)" />
  <circle cx="30" cy="150" r="4" fill="rgb(255, 192, 203)" />
  <circle cx="100" cy="140" r="4" fill="rgb(0, 255, 255)" />
  <circle cx="180" cy="150" r="4" fill="rgb(255, 215, 0)" />
  <circle cx="220" cy="140" r="4" fill="rgb(75, 0, 130)" />
  <circle cx="60" cy="140" r="4" fill="rgb(255, 99, 71)" />
  <circle cx="90" cy="170" r="4" fill="rgb(147, 112, 219)" />
  <circle cx="130" cy="150" r="4" fill="rgb(255, 20, 147)" />
  <circle cx="160" cy="140" r="4" fill="rgb(0, 128, 128)" />
  <circle cx="190" cy="160" r="4" fill="rgb(218, 165, 32)" />
  <circle cx="240" cy="150" r="4" fill="rgb(139, 0, 139)" />
</svg>