<svg viewBox="0 0 256 256" width="256" height="256">
  <!-- Sky (light blue) -->
  <rect x="0" y="0" width="256" height="128" fill="rgb(135, 206, 235)"/>

  <!-- Ground (green grass) -->
  <rect x="0" y="128" width="256" height="128" fill="rgb(34, 139, 34)"/>

  <!-- Trees -->
  <rect x="20" y="100" width="10" height="60" fill="rgb(139, 69, 19)"/>
  <circle cx="25" cy="90" r="20" fill="rgb(0, 100, 0)"/>
  <rect x="60" y="110" width="10" height="50" fill="rgb(139, 69, 19)"/>
  <circle cx="65" cy="100" r="15" fill="rgb(0, 100, 0)"/>
  <rect x="100" y="120" width="10" height="40" fill="rgb(139, 69, 19)"/>
  <circle cx="105" cy="110" r="10" fill="rgb(0, 100, 0)"/>
  <rect x="140" y="100" width="10" height="60" fill="rgb(139, 69, 19)"/>
  <circle cx="145" cy="90" r="20" fill="rgb(0, 100, 0)"/>
  <rect x="180" y="110" width="10" height="50" fill="rgb(139, 69, 19)"/>
  <circle cx="185" cy="100" r="15" fill="rgb(0, 100, 0)"/>
  <rect x="220" y="120" width="10" height="40" fill="rgb(139, 69, 19)"/>
  <circle cx="225" cy="110" r="10" fill="rgb(0, 100, 0)"/>

  <!-- River -->
  <path d="M0,150 C50,140 100,160 150,140 C200,120 256,150 256,150 V180 C200,160 150,180 100,160 C50,140 0,160 0,160 Z" fill="rgb(0, 191, 255)"/>

  <!-- Wooden Bridge -->
  <rect x="100" y="140" width="60" height="10" fill="rgb(139, 69, 19)"/>
  <rect x="100" y="150" width="60" height="10" fill="rgb(139, 69, 19)"/>
  <rect x="100" y="160" width="60" height="10" fill="rgb(139, 69, 19)"/>
  <rect x="90" y="140" width="10" height="30" fill="rgb(139, 69, 19)"/>
  <rect x="160" y="140" width="10" height="30" fill="rgb(139, 69, 19)"/>
</svg>