<svg viewBox="0 0 256 256" width="256" height="256">
  <!-- Sky (light blue) -->
  <rect x="0" y="0" width="256" height="128" fill="rgb(135, 206, 235)"/>

  <!-- Sun -->
  <circle cx="200" cy="50" r="30" fill="rgb(255, 223, 0)"/>

  <!-- Wheat Field -->
  <rect x="0" y="128" width="256" height="128" fill="rgb(218, 165, 32)"/>

  <!-- Wheat Stalks -->
  <line x1="50" y1="150" x2="50" y2="200" stroke="rgb(139, 69, 19)" stroke-width="2"/>
  <line x1="80" y1="140" x2="80" y2="190" stroke="rgb(139, 69, 19)" stroke-width="2"/>
  <line x1="120" y1="160" x2="120" y2="210" stroke="rgb(139, 69, 19)" stroke-width="2"/>
  <line x1="150" y1="150" x2="150" y2="200" stroke="rgb(139, 69, 19)" stroke-width="2"/>
  <line x1="200" y1="140" x2="200" y2="190" stroke="rgb(139, 69, 19)" stroke-width="2"/>
  <line x1="230" y1="160" x2="230" y2="210" stroke="rgb(139, 69, 19)" stroke-width="2"/>

  <!-- Wheat Heads -->
  <polygon points="50,150 55,140 60,150" fill="rgb(245, 222, 179)"/>
  <polygon points="80,140 85,130 90,140" fill="rgb(245, 222, 179)"/>
  <polygon points="120,160 125,150 130,160" fill="rgb(245, 222, 179)"/>
  <polygon points="150,150 155,140 160,150" fill="rgb(245, 222, 179)"/>
  <polygon points="200,140 205,130 210,140" fill="rgb(245, 222, 179)"/>
  <polygon points="230,160 235,150 240,160" fill="rgb(245, 222, 179)"/>
</svg>