<svg viewBox="0 0 256 256" width="256" height="256">
  <!-- Sky with gradient -->
  <defs>
    <linearGradient id="skyGradient" x1="0" y1="0" x2="0" y2="1">
      <stop offset="0%" stop-color="rgb(135, 206, 235)" />
      <stop offset="100%" stop-color="rgb(173, 216, 230)" />
    </linearGradient>
  </defs>
  <rect x="0" y="0" width="256" height="128" fill="url(#skyGradient)" />

  <!-- Ground -->
  <rect x="0" y="128" width="256" height="128" fill="rgb(34, 139, 34)" />

  <!-- Trees -->
  <rect x="20" y="100" width="10" height="60" fill="rgb(139, 69, 19)" />
  <ellipse cx="25" cy="100" rx="15" ry="30" fill="rgb(0, 100, 0)" />
  <rect x="80" y="80" width="10" height="80" fill="rgb(139, 69, 19)" />
  <ellipse cx="85" cy="80" rx="20" ry="40" fill="rgb(0, 100, 0)" />
  <rect x="150" y="90" width="10" height="70" fill="rgb(139, 69, 19)" />
  <ellipse cx="155" cy="90" rx="18" ry="35" fill="rgb(0, 100, 0)" />
  <rect x="220" y="100" width="10" height="60" fill="rgb(139, 69, 19)" />
  <ellipse cx="225" cy="100" rx="15" ry="30" fill="rgb(0, 100, 0)" />

  <!-- Wooden Bench -->
  <rect x="80" y="180" width="100" height="10" fill="rgb(139, 69, 19)" />
  <rect x="80" y="190" width="10" height="20" fill="rgb(139, 69, 19)" />
  <rect x="170" y="190" width="10" height="20" fill="rgb(139, 69, 19)" />
  <rect x="85" y="190" width="90" height="5" fill="rgb(139, 69, 19)" />
</svg>