<svg viewBox="0 0 256 256" width="256" height="256">
  <!-- Sky (blue) -->
  <rect x="0" y="0" width="256" height="128" fill="rgb(135, 206, 250)" />

  <!-- Grassy Meadow -->
  <rect x="0" y="128" width="256" height="128" fill="rgb(34, 139, 34)" />

  <!-- Stream -->
  <path d="M0,160 C50,140 100,180 150,150 C200,120 256,160 256,160 V180 C200,180 150,180 100,180 C50,180 0,180 0,180 Z" fill="rgb(0, 191, 255)" />

  <!-- Wooden Bridge -->
  <rect x="80" y="140" width="96" height="10" fill="rgb(139, 69, 19)" />
  <rect x="80" y="150" width="96" height="5" fill="rgb(139, 69, 19)" />
  <rect x="80" y="155" width="96" height="5" fill="rgb(139, 69, 19)" />
  <rect x="80" y="160" width="96" height="5" fill="rgb(139, 69, 19)" />
  <rect x="80" y="165" width="96" height="5" fill="rgb(139, 69, 19)" />
  <rect x="80" y="170" width="96" height="5" fill="rgb(139, 69, 19)" />
  <rect x="80" y="175" width="96" height="5" fill="rgb(139, 69, 19)" />
  <rect x="80" y="180" width="96" height="5" fill="rgb(139, 69, 19)" />
  <rect x="80" y="185" width="96" height="5" fill="rgb(139, 69, 19)" />
  <rect x="80" y="190" width="96" height="5" fill="rgb(139, 69, 19)" />
  <rect x="80" y="195" width="96" height="5" fill="rgb(139, 69, 19)" />
  <rect x="80" y="200" width="96" height="5" fill="rgb(139, 69, 19)" />
  <rect x="80" y="205" width="96" height="5" fill="rgb(139, 69, 19)" />
  <rect x="80" y="210" width="96" height="5" fill="rgb(139, 69, 19)" />
  <rect x="80" y="215" width="96" height="5" fill="rgb(139, 69, 19)" />
  <rect x="80" y="220" width="96" height="5" fill="rgb(139, 69, 19)" />
  <rect x="80" y="225" width="96" height="5" fill="rgb(139, 69, 19)" />
  <rect x="80" y="230" width="96" height="5" fill="rgb(139, 69, 19)" />
  <rect x="80" y="235" width="96" height="5" fill="rgb(139, 69, 19)" />
  <rect x="80" y="240" width="96" height="5" fill="rgb(139, 69, 19)" />
  <rect x="80" y="245" width="96" height="5" fill="rgb(139, 69, 19)" />
  <rect x="80" y="250" width="96" height="5" fill="rgb(139, 69, 19)" />
</svg>