<svg viewBox="0 0 256 256" width="256" height="256">
  <!-- Sky with winter gradient -->
  <defs>
    <linearGradient id="skyGradient" x1="0" y1="0" x2="0" y2="1">
      <stop offset="0%" stop-color="rgb(173, 216, 230)" />
      <stop offset="100%" stop-color="rgb(240, 248, 255)" />
    </linearGradient>
  </defs>
  <rect x="0" y="0" width="256" height="128" fill="url(#skyGradient)" />

  <!-- Snowy Ground -->
  <rect x="0" y="128" width="256" height="128" fill="rgb(255, 250, 250)" />

  <!-- Trees -->
  <rect x="20" y="140" width="10" height="60" fill="rgb(139, 69, 19)" />
  <polygon points="25,100 50,140 0,140" fill="rgb(34, 139, 34)" />
  <rect x="60" y="130" width="10" height="70" fill="rgb(139, 69, 19)" />
  <polygon points="65,90 90,130 40,130" fill="rgb(34, 139, 34)" />
  <rect x="100" y="120" width="10" height="80" fill="rgb(139, 69, 19)" />
  <polygon points="105,80 130,120 80,120" fill="rgb(34, 139, 34)" />
  <rect x="180" y="140" width="10" height="60" fill="rgb(139, 69, 19)" />
  <polygon points="185,100 210,140 160,140" fill="rgb(34, 139, 34)" />
  <rect x="220" y="130" width="10" height="70" fill="rgb(139, 69, 19)" />
  <polygon points="225,90 250,130 200,130" fill="rgb(34, 139, 34)" />

  <!-- Wooden Cabin -->
  <rect x="120" y="160" width="40" height="40" fill="rgb(139, 69, 19)" />
  <polygon points="120,160 140,140 160,160" fill="rgb(165, 42, 42)" />
  <rect x="130" y="170" width="20" height="20" fill="rgb(255, 255, 255)" />
</svg>