<svg viewBox="0 0 256 256" width="256" height="256">
  <!-- Sky with gradient -->
  <defs>
    <linearGradient id="skyGradient" x1="0" y1="0" x2="0" y2="1">
      <stop offset="0%" stop-color="rgb(135, 206, 235)" />
      <stop offset="100%" stop-color="rgb(173, 216, 230)" />
    </linearGradient>
  </defs>
  <rect x="0" y="0" width="256" height="128" fill="url(#skyGradient)" />

  <!-- Ground -->
  <rect x="0" y="128" width="256" height="128" fill="rgb(34, 139, 34)" />

  <!-- Trees -->
  <rect x="20" y="100" width="10" height="60" fill="rgb(139, 69, 19)" />
  <circle cx="25" cy="90" r="20" fill="rgb(0, 100, 0)" />
  <rect x="80" y="110" width="10" height="50" fill="rgb(139, 69, 19)" />
  <circle cx="85" cy="100" r="15" fill="rgb(0, 100, 0)" />
  <rect x="150" y="100" width="10" height="60" fill="rgb(139, 69, 19)" />
  <circle cx="155" cy="90" r="20" fill="rgb(0, 100, 0)" />
  <rect x="200" y="110" width="10" height="50" fill="rgb(139, 69, 19)" />
  <circle cx="205" cy="100" r="15" fill="rgb(0, 100, 0)" />

  <!-- Wooden Bridge -->
  <rect x="100" y="150" width="60" height="10" fill="rgb(139, 69, 19)" />
  <rect x="105" y="140" width="50" height="10" fill="rgb(139, 69, 19)" />
  <rect x="110" y="130" width="40" height="10" fill="rgb(139, 69, 19)" />
  <rect x="115" y="120" width="30" height="10" fill="rgb(139, 69, 19)" />
  <rect x="120" y="110" width="20" height="10" fill="rgb(139, 69, 19)" />

  <!-- Stream under the bridge -->
  <rect x="90" y="160" width="80" height="10" fill="rgb(0, 191, 255)" />
</svg>